{"glyphs":{"0":{"ha":694,"x_min":50,"x_max":644,"o":"m 644 460 q 605 203 644 322 q 543 83 582 130 q 454 8 504 36 q 347 -19 405 -19 q 227 15 280 -19 q 132 112 173 49 q 79 235 102 158 q 50 449 50 338 q 92 724 50 599 q 197 883 127 828 q 347 939 268 939 q 496 884 427 939 q 598 737 566 829 q 644 460 644 610 m 435 461 q 432 743 435 703 q 399 870 425 837 q 345 892 382 892 q 298 876 315 892 q 264 792 273 852 q 256 373 256 732 q 269 111 256 178 q 298 47 279 63 q 349 31 317 31 q 399 52 382 31 q 432 170 428 90 l 435 461 z "},"1":{"ha":694,"x_min":92,"x_max":588,"o":"m 452 939 l 452 186 q 460 78 452 102 q 491 40 467 55 q 567 25 515 25 l 588 25 l 588 0 l 104 0 l 104 25 l 128 25 q 212 39 187 25 q 246 76 237 52 q 255 186 255 100 l 255 663 q 249 743 255 727 q 226 770 243 759 q 188 781 210 781 q 104 760 153 781 l 92 784 l 430 939 l 452 939 z "},"2":{"ha":694,"x_min":34,"x_max":627,"o":"m 575 0 l 34 0 l 34 15 q 336 414 283 311 q 389 614 389 516 q 345 732 389 685 q 237 779 301 779 q 75 675 133 779 l 50 684 q 161 876 87 814 q 334 939 236 939 q 461 906 404 939 q 551 817 519 873 q 584 711 584 760 q 534 528 584 621 q 235 178 465 402 l 433 178 q 529 184 507 178 q 565 204 551 190 q 602 266 579 219 l 627 266 l 575 0 z "},"3":{"ha":694,"x_min":22,"x_max":614,"o":"m 205 461 l 205 485 q 313 527 283 507 q 364 586 342 546 q 386 666 386 625 q 345 763 386 722 q 243 803 304 803 q 81 703 148 803 l 56 711 q 181 882 105 825 q 351 939 258 939 q 509 880 447 939 q 571 744 571 822 q 542 646 571 693 q 452 563 513 599 q 573 468 531 524 q 614 326 614 411 q 510 81 614 182 q 231 -20 406 -20 q 61 19 115 -20 q 22 89 22 46 q 45 142 22 120 q 96 164 67 164 q 138 155 119 164 q 215 95 149 149 q 339 41 281 41 q 425 81 389 41 q 461 182 461 121 q 396 353 461 275 q 205 461 331 431 z "},"4":{"ha":694,"x_min":35,"x_max":638,"o":"m 35 347 l 471 939 l 554 939 l 554 347 l 638 347 l 638 206 l 554 206 l 554 0 l 368 0 l 368 206 l 35 206 l 35 347 m 100 347 l 368 347 l 368 709 l 100 347 z "},"5":{"ha":694,"x_min":47,"x_max":642,"o":"m 212 920 l 642 920 l 574 745 l 212 745 l 177 653 q 537 536 411 644 q 641 315 641 448 q 593 150 641 231 q 457 25 545 68 q 265 -19 370 -19 q 92 23 153 -19 q 50 91 50 53 q 72 142 50 120 q 123 165 94 165 q 177 154 150 165 q 270 97 204 143 q 341 58 311 68 q 389 50 362 50 q 483 90 444 50 q 522 188 522 131 q 403 382 522 307 q 102 456 283 456 q 47 456 83 456 l 212 920 z "},"6":{"ha":694,"x_min":52,"x_max":652,"o":"m 652 939 l 652 920 q 455 839 530 888 q 338 720 381 790 q 271 546 295 650 q 321 572 301 566 q 410 586 365 586 q 582 511 513 586 q 650 307 650 436 q 613 140 650 216 q 507 22 576 64 q 361 -19 439 -19 q 204 27 276 -19 q 92 163 132 74 q 52 358 52 253 q 126 646 52 513 q 337 858 200 779 q 652 939 473 937 m 262 491 q 257 354 257 397 q 275 173 257 260 q 324 50 293 85 q 377 25 347 25 q 433 61 408 25 q 457 209 457 98 q 412 467 457 396 q 333 513 382 513 q 262 491 306 513 z "},"7":{"ha":694,"x_min":47,"x_max":661,"o":"m 246 -19 l 496 740 l 306 740 q 138 711 194 740 q 73 634 98 690 l 47 634 l 113 920 l 661 920 l 353 -19 l 246 -19 z "},"8":{"ha":694,"x_min":49,"x_max":646,"o":"m 473 519 q 608 387 570 448 q 646 246 646 326 q 562 58 646 135 q 334 -19 478 -19 q 123 48 198 -19 q 49 212 49 115 q 92 342 49 286 q 235 444 135 397 q 95 580 126 527 q 64 703 64 633 q 143 865 64 795 q 357 935 221 935 q 560 873 489 935 q 631 724 631 811 q 592 609 631 659 q 473 519 554 559 m 422 554 q 459 630 447 588 q 471 722 471 672 q 433 857 471 810 q 355 893 405 893 q 277 860 309 893 q 245 779 245 827 q 281 676 245 729 q 422 554 317 623 m 286 411 q 256 376 265 392 q 232 307 243 353 q 221 212 221 262 q 237 105 221 149 q 284 43 254 62 q 346 24 314 24 q 429 61 395 24 q 463 160 463 97 q 286 411 463 292 z "},"9":{"ha":694,"x_min":43,"x_max":645,"o":"m 43 -19 l 43 0 q 234 76 155 26 q 358 200 312 126 q 422 370 404 274 q 350 340 380 349 q 288 332 321 332 q 114 407 184 332 q 45 613 45 482 q 82 780 45 704 q 190 897 120 855 q 335 939 260 939 q 488 892 416 939 q 602 759 559 846 q 645 559 645 671 q 575 281 645 414 q 368 68 506 149 q 43 -19 231 -12 m 432 427 q 439 561 439 503 q 410 791 439 684 q 362 878 394 850 q 318 892 345 892 q 265 863 284 892 q 239 711 239 823 q 283 452 239 523 q 362 406 313 406 q 432 427 389 406 z "}," ":{"ha":347,"x_min":0,"x_max":0,"o":""}," ":{"ha":347,"x_min":0,"x_max":0,"o":""},"!":{"ha":463,"x_min":119,"x_max":345,"o":"m 247 299 l 217 299 q 186 486 212 376 l 151 634 q 119 825 119 767 q 150 909 119 877 q 231 941 181 941 q 312 908 280 941 q 345 827 345 876 q 311 634 345 775 l 275 486 q 247 299 256 408 m 233 202 q 310 170 278 202 q 342 92 342 138 q 310 14 342 46 q 233 -18 278 -18 q 155 14 187 -18 q 123 92 123 46 q 155 170 123 137 q 233 202 186 202 z "},"\"":{"ha":771,"x_min":119,"x_max":647,"o":"m 237 489 l 203 489 l 133 750 q 119 840 119 801 q 149 911 119 882 q 220 941 178 941 q 294 910 267 941 q 320 843 320 879 q 304 749 320 812 l 237 489 m 564 489 l 530 489 l 462 749 q 446 842 446 809 q 476 911 446 881 q 548 941 506 941 q 622 909 596 941 q 647 844 647 877 q 629 749 647 820 l 564 489 z "},"#":{"ha":694,"x_min":27,"x_max":667,"o":"m 61 -19 l 119 269 l 27 269 l 27 359 l 137 359 l 177 557 l 27 557 l 27 645 l 195 645 l 254 939 l 343 939 l 283 645 l 484 645 l 542 939 l 631 939 l 572 645 l 667 645 l 667 557 l 555 557 l 514 359 l 667 359 l 667 269 l 497 269 l 439 -19 l 349 -19 l 407 269 l 210 269 l 149 -19 l 61 -19 m 227 359 l 427 359 l 466 557 l 267 557 l 227 359 z "},"$":{"ha":694,"x_min":54,"x_max":650,"o":"m 384 566 q 591 412 546 464 q 650 245 650 341 q 580 69 650 141 q 384 -14 509 -3 l 384 -94 l 325 -94 l 325 -19 q 197 -7 253 -18 q 70 31 142 3 l 70 250 l 98 250 q 141 130 112 176 q 215 60 170 83 q 325 31 259 37 l 325 366 q 107 530 161 469 q 54 673 54 591 q 121 828 54 761 q 325 913 189 896 l 325 945 l 384 945 l 384 913 q 616 842 499 905 l 616 646 l 589 646 q 542 755 570 712 q 471 828 515 798 q 384 865 438 850 l 384 566 m 325 867 q 245 840 275 863 q 198 753 198 804 q 220 690 198 722 q 325 604 242 659 l 325 867 m 384 31 q 469 78 442 45 q 496 160 496 111 q 472 240 496 203 q 384 325 448 277 l 384 31 z "},"%":{"ha":1389,"x_min":96,"x_max":1293,"o":"m 1067 941 l 414 -39 l 323 -39 l 975 941 l 1067 941 m 324 941 q 487 872 420 941 q 553 696 553 804 q 486 517 553 586 q 321 448 420 448 q 160 515 224 448 q 96 690 96 581 q 162 871 96 802 q 324 941 228 941 m 324 905 q 300 896 309 905 q 274 842 283 880 q 266 684 266 804 q 277 536 266 588 q 300 491 284 506 q 324 482 311 482 q 348 490 339 482 q 371 536 363 505 q 382 681 382 588 q 372 846 382 795 q 347 897 364 881 q 324 905 339 905 m 1062 455 q 1226 388 1160 455 q 1293 211 1293 320 q 1225 31 1293 100 q 1063 -38 1158 -38 q 903 31 969 -38 q 837 209 837 100 q 901 387 837 318 q 1062 455 966 455 m 1064 420 q 1041 412 1050 420 q 1016 360 1025 397 q 1007 218 1007 323 q 1017 58 1007 107 q 1042 8 1025 24 q 1065 0 1051 0 q 1086 7 1078 0 q 1112 58 1103 23 q 1123 208 1123 108 q 1112 363 1123 314 q 1088 412 1104 398 q 1064 420 1080 420 z "},"&":{"ha":1157,"x_min":56,"x_max":1097,"o":"m 791 550 l 1073 550 l 1073 524 q 998 495 1025 517 q 928 396 971 474 q 806 222 884 318 q 918 135 875 159 q 978 118 949 118 q 1069 184 1028 118 l 1097 169 q 978 14 1041 60 q 868 -21 930 -21 q 767 2 815 -21 q 651 87 720 24 q 492 4 566 30 q 336 -21 417 -21 q 132 49 208 -21 q 56 213 56 119 q 128 390 56 315 q 339 520 201 465 q 313 606 321 564 q 304 688 304 648 q 380 868 304 796 q 575 941 456 941 q 727 893 671 941 q 783 781 783 845 q 725 650 783 705 q 544 550 668 595 q 768 259 621 415 q 868 451 868 371 q 848 499 868 479 q 791 524 829 519 l 791 550 m 521 591 q 616 647 592 617 q 641 720 641 677 q 601 848 641 796 q 536 883 574 883 q 481 858 504 883 q 458 790 458 833 q 469 719 458 757 q 521 591 480 681 m 358 477 q 281 428 304 454 q 250 343 250 390 q 287 216 250 279 q 376 119 323 153 q 480 84 428 84 q 538 95 506 84 q 608 129 570 106 q 358 477 445 296 z "},"'":{"ha":386,"x_min":95,"x_max":295,"o":"m 212 490 l 180 490 l 109 749 q 95 838 95 797 q 124 911 95 882 q 195 941 153 941 q 269 909 243 941 q 295 842 295 878 q 279 749 295 811 l 212 490 z "},"(":{"ha":463,"x_min":56,"x_max":446,"o":"m 446 941 l 446 909 q 342 819 376 863 q 271 663 296 758 q 238 331 238 544 q 268 19 238 130 q 348 -161 297 -92 q 446 -244 383 -208 l 446 -278 q 169 -54 283 -223 q 56 335 56 115 q 169 719 56 552 q 446 941 282 886 z "},")":{"ha":463,"x_min":17,"x_max":408,"o":"m 17 -278 l 17 -247 q 121 -156 87 -200 q 193 0 166 -95 q 225 332 225 119 q 196 644 225 533 q 115 823 166 755 q 17 907 80 871 l 17 941 q 294 716 180 886 q 408 328 408 547 q 294 -56 408 111 q 17 -278 180 -223 z "},"*":{"ha":694,"x_min":77,"x_max":617,"o":"m 334 673 q 327 732 332 712 q 299 795 321 753 q 277 862 277 838 q 299 917 277 893 q 347 941 321 941 q 398 919 376 941 q 419 861 419 897 q 398 794 419 833 q 371 734 377 755 q 362 673 366 713 q 416 700 400 688 q 465 745 433 711 q 547 791 507 791 q 597 771 576 791 q 617 724 617 751 q 592 673 617 695 q 527 650 567 650 q 479 652 513 650 q 444 653 463 653 q 368 650 418 653 q 413 605 397 617 q 469 572 429 592 q 527 528 509 551 q 540 485 540 511 q 520 436 540 456 q 473 416 500 416 q 420 440 444 416 q 388 526 397 464 q 376 584 382 566 q 349 637 370 602 q 319 582 326 602 q 306 526 311 562 q 275 441 297 464 q 222 418 252 418 q 175 437 195 418 q 155 482 155 456 q 170 531 155 509 q 226 575 185 552 q 283 609 267 597 q 328 650 298 621 l 256 653 q 220 652 237 653 q 165 650 180 650 q 102 671 126 650 q 77 723 77 693 q 97 771 77 751 q 148 791 117 791 q 230 750 191 791 q 281 701 269 709 q 334 673 297 689 z "},"+":{"ha":791,"x_min":27,"x_max":768,"o":"m 27 505 l 353 505 l 353 830 l 442 830 l 442 505 l 768 505 l 768 415 l 442 415 l 442 92 l 353 92 l 353 415 l 27 415 l 27 505 z "},",":{"ha":347,"x_min":45,"x_max":302,"o":"m 69 -243 l 69 -214 q 183 -126 148 -180 q 219 -16 219 -72 q 214 2 219 -4 q 205 7 210 7 q 193 3 201 7 q 144 -9 173 -9 q 74 22 104 -9 q 45 96 45 54 q 79 174 45 140 q 161 208 113 208 q 260 163 219 208 q 302 39 302 118 q 243 -133 302 -58 q 69 -243 184 -208 z "},"-":{"ha":463,"x_min":34,"x_max":429,"o":"m 429 249 l 34 249 l 34 389 l 429 389 l 429 249 z "},"­":{"ha":463,"x_min":34,"x_max":429,"o":"m 429 249 l 34 249 l 34 389 l 429 389 l 429 249 z "},".":{"ha":347,"x_min":61,"x_max":287,"o":"m 174 209 q 254 176 221 209 q 287 96 287 142 q 254 16 287 49 q 174 -17 220 -17 q 94 16 127 -17 q 61 96 61 49 q 94 176 61 142 q 174 209 127 209 z "},"/":{"ha":386,"x_min":1,"x_max":390,"o":"m 390 941 l 88 -21 l 1 -21 l 304 941 l 390 941 z "},":":{"ha":463,"x_min":119,"x_max":345,"o":"m 232 652 q 312 620 279 652 q 345 540 345 587 q 312 460 345 493 q 232 427 279 427 q 152 460 185 427 q 119 540 119 493 q 152 620 119 587 q 232 652 185 652 m 231 209 q 312 176 279 209 q 345 96 345 142 q 311 16 345 49 q 231 -17 278 -17 q 152 16 184 -17 q 119 96 119 49 q 152 176 119 142 q 231 209 184 209 z "},";":{"ha":463,"x_min":103,"x_max":360,"o":"m 231 652 q 311 620 278 652 q 343 541 343 587 q 310 461 343 494 q 231 428 277 428 q 152 461 184 428 q 119 541 119 494 q 151 620 119 587 q 231 652 184 652 m 127 -243 l 127 -214 q 242 -126 206 -180 q 277 -16 277 -72 q 273 2 277 -4 q 263 7 268 7 q 251 3 259 7 q 202 -9 231 -9 q 133 22 162 -9 q 103 96 103 54 q 137 174 103 140 q 219 208 171 208 q 319 163 277 208 q 360 39 360 118 q 301 -133 360 -58 q 127 -243 243 -208 z "},";":{"ha":463,"x_min":103,"x_max":360,"o":"m 231 652 q 311 620 278 652 q 343 541 343 587 q 310 461 343 494 q 231 428 277 428 q 152 461 184 428 q 119 541 119 494 q 151 620 119 587 q 231 652 184 652 m 127 -243 l 127 -214 q 242 -126 206 -180 q 277 -16 277 -72 q 273 2 277 -4 q 263 7 268 7 q 251 3 259 7 q 202 -9 231 -9 q 133 22 162 -9 q 103 96 103 54 q 137 174 103 140 q 219 208 171 208 q 319 163 277 208 q 360 39 360 118 q 301 -133 360 -58 q 127 -243 243 -208 z "},"<":{"ha":791,"x_min":28,"x_max":768,"o":"m 768 125 l 28 428 l 28 483 l 768 789 l 768 695 l 195 456 l 768 220 l 768 125 z "},"=":{"ha":791,"x_min":27,"x_max":769,"o":"m 27 613 l 769 613 l 769 525 l 27 525 l 27 613 m 27 391 l 769 391 l 769 303 l 27 303 l 27 391 z "},">":{"ha":791,"x_min":28,"x_max":768,"o":"m 28 789 l 768 487 l 768 431 l 28 125 l 28 220 l 601 458 l 28 694 l 28 789 z "},"?":{"ha":694,"x_min":85,"x_max":616,"o":"m 330 300 l 302 300 q 309 412 300 375 q 353 515 317 450 q 400 620 389 581 q 411 718 411 660 q 376 851 411 808 q 292 894 340 894 q 231 874 256 894 q 212 843 212 859 q 224 809 212 832 q 254 720 254 757 q 231 665 254 687 q 174 642 208 642 q 111 669 136 642 q 85 740 85 696 q 154 880 85 820 q 347 941 223 941 q 548 878 479 941 q 616 726 616 815 q 581 607 616 662 q 445 486 546 553 q 356 407 377 441 q 330 300 334 372 m 322 201 q 399 169 368 201 q 431 92 431 137 q 399 14 431 46 q 322 -18 368 -18 q 245 14 277 -18 q 213 92 213 46 q 245 169 213 137 q 322 201 277 201 z "},"@":{"ha":1292,"x_min":62,"x_max":1261,"o":"m 800 627 l 965 634 l 841 208 q 820 102 820 138 q 836 65 820 81 q 875 49 852 49 q 996 103 922 49 q 1119 257 1070 157 q 1167 470 1167 357 q 1047 778 1167 657 q 733 898 926 898 q 430 820 566 898 q 214 592 294 741 q 134 272 134 443 q 283 -112 134 37 q 664 -262 433 -262 q 1006 -159 854 -262 q 1220 112 1157 -57 l 1261 112 q 1024 -194 1180 -87 q 663 -300 869 -300 q 232 -131 401 -300 q 62 296 62 37 q 146 625 62 473 q 382 859 231 777 q 719 941 534 941 q 981 881 869 941 q 1149 712 1093 821 q 1206 483 1206 604 q 1145 227 1206 342 q 994 55 1084 111 q 799 0 903 0 q 696 33 732 0 q 661 119 661 66 q 677 214 661 155 q 590 85 621 121 q 505 14 547 37 q 444 0 478 0 q 362 38 395 0 q 330 151 330 77 q 352 299 330 227 q 412 436 374 372 q 499 551 450 500 q 612 635 549 602 q 680 653 644 653 q 743 629 718 653 q 777 547 768 606 l 800 627 m 697 604 q 646 576 671 604 q 574 447 612 537 q 505 186 505 285 q 517 140 505 157 q 545 124 530 124 q 582 143 557 124 q 656 233 616 170 q 720 373 695 296 q 745 515 745 450 q 728 586 745 562 q 697 604 715 604 z "},"A":{"ha":1003,"x_min":11,"x_max":987,"o":"m 578 262 l 253 262 l 214 172 q 195 98 195 127 q 227 41 195 60 q 317 25 245 31 l 317 0 l 11 0 l 11 25 q 92 66 60 33 q 171 205 124 100 l 500 939 l 513 939 l 844 184 q 922 50 892 77 q 987 25 945 28 l 987 0 l 543 0 l 543 25 l 561 25 q 636 40 614 25 q 651 71 651 51 q 647 96 651 83 q 627 147 646 102 l 578 262 m 555 312 l 418 629 l 277 312 l 555 312 z "},"B":{"ha":926,"x_min":29,"x_max":878,"o":"m 618 488 q 802 414 749 457 q 878 254 878 352 q 794 82 878 150 q 496 0 692 0 l 29 0 l 29 25 q 116 37 93 25 q 148 68 138 49 q 157 161 157 87 l 157 758 q 148 852 157 833 q 115 883 138 871 q 29 895 92 895 l 29 920 l 470 920 q 694 891 628 920 q 798 807 760 863 q 836 688 836 751 q 787 570 836 622 q 618 488 739 518 m 371 506 q 513 528 467 506 q 583 589 559 549 q 608 689 608 628 q 584 789 608 750 q 515 848 559 828 q 371 868 470 869 l 371 506 m 371 453 l 371 158 l 370 124 q 389 69 370 87 q 444 50 408 50 q 544 74 498 50 q 614 144 590 98 q 639 246 639 190 q 609 362 639 311 q 527 433 579 413 q 371 453 475 454 z "},"C":{"ha":1003,"x_min":55,"x_max":927,"o":"m 927 941 l 927 622 l 901 622 q 789 813 871 747 q 605 880 708 880 q 447 830 519 880 q 342 701 375 781 q 299 473 299 598 q 330 248 299 349 q 428 95 361 146 q 600 43 494 43 q 759 81 687 43 q 911 212 831 119 l 911 132 q 750 15 834 52 q 555 -21 667 -21 q 293 38 408 -21 q 117 208 179 97 q 55 443 55 318 q 124 692 55 574 q 310 876 193 810 q 558 941 427 941 q 763 899 655 941 q 842 874 825 874 q 880 890 864 874 q 901 941 896 906 l 927 941 z "},"D":{"ha":1003,"x_min":18,"x_max":945,"o":"m 18 0 l 18 25 l 49 25 q 110 38 89 25 q 142 72 132 50 q 148 157 148 86 l 148 762 q 140 850 148 833 q 110 881 133 868 q 49 895 87 895 l 18 895 l 18 920 l 430 920 q 695 875 595 920 q 881 709 818 820 q 945 457 945 597 q 913 278 945 360 q 833 143 882 197 q 719 58 783 90 q 560 8 654 26 q 430 0 519 0 l 18 0 m 369 867 l 369 150 q 374 80 369 93 q 393 60 380 67 q 446 50 411 50 q 618 127 559 50 q 700 452 700 232 q 644 734 700 629 q 531 847 600 817 q 369 867 482 868 z "},"E":{"ha":926,"x_min":28,"x_max":864,"o":"m 378 867 l 378 492 l 397 492 q 524 547 484 492 q 574 709 563 602 l 600 709 l 600 228 l 574 228 q 539 357 566 307 q 479 424 513 407 q 378 441 444 441 l 378 182 q 385 90 378 106 q 409 62 391 73 q 466 51 427 51 l 521 51 q 727 111 650 51 q 839 292 805 170 l 864 292 l 823 0 l 28 0 l 28 25 l 58 25 q 123 39 98 25 q 150 72 140 49 q 157 157 157 88 l 157 762 q 154 839 157 825 q 129 876 147 863 q 58 895 103 895 l 28 895 l 28 920 l 798 920 l 798 648 l 772 648 q 716 791 752 747 q 616 854 681 834 q 473 867 578 867 l 378 867 z "},"F":{"ha":848,"x_min":31,"x_max":807,"o":"m 382 867 l 382 489 l 408 489 q 508 507 469 489 q 573 569 547 526 q 608 686 600 612 l 632 686 l 632 224 l 608 224 q 538 397 595 355 q 408 439 481 439 l 382 439 l 382 157 q 390 69 382 87 q 420 38 397 52 q 481 25 443 25 l 512 25 l 512 0 l 31 0 l 31 25 l 62 25 q 126 39 102 25 q 153 72 144 49 q 161 157 161 88 l 161 762 q 153 850 161 833 q 123 881 146 868 q 62 895 100 895 l 31 895 l 31 920 l 807 920 l 807 656 l 779 656 q 731 793 770 749 q 618 857 692 838 q 467 867 577 867 l 382 867 z "},"G":{"ha":1080,"x_min":56,"x_max":1066,"o":"m 958 941 l 958 616 l 933 616 q 797 819 888 749 q 598 888 706 888 q 427 830 495 888 q 330 668 358 772 q 301 455 301 564 q 332 223 301 323 q 433 77 363 123 q 598 30 503 30 q 666 37 631 30 q 738 58 701 44 l 738 249 q 730 319 738 303 q 700 348 723 335 q 643 361 676 361 l 619 361 l 619 386 l 1066 386 l 1066 361 q 995 347 1015 357 q 964 312 975 336 q 958 249 958 299 l 958 58 q 775 -2 870 18 q 577 -22 680 -22 q 360 14 446 -22 q 207 107 273 50 q 104 238 141 165 q 56 448 56 332 q 202 798 56 655 q 569 941 348 941 q 692 930 637 941 q 789 900 722 925 q 868 874 856 874 q 903 888 887 874 q 933 941 920 902 l 958 941 z "},"H":{"ha":1080,"x_min":29,"x_max":1055,"o":"m 380 442 l 380 157 q 388 69 380 87 q 418 38 395 52 q 479 25 441 25 l 510 25 l 510 0 l 29 0 l 29 25 l 60 25 q 124 39 100 25 q 151 72 142 49 q 159 157 159 88 l 159 762 q 151 850 159 833 q 121 881 144 868 q 60 895 98 895 l 29 895 l 29 920 l 510 920 l 510 895 l 479 895 q 415 880 439 895 q 387 848 397 871 q 380 762 380 831 l 380 502 l 705 502 l 705 762 q 697 850 705 833 q 667 881 690 868 q 605 895 644 895 l 575 895 l 575 920 l 1055 920 l 1055 895 l 1025 895 q 961 880 985 895 q 933 848 943 871 q 926 762 926 831 l 926 157 q 933 69 926 87 q 964 38 941 52 q 1025 25 987 25 l 1055 25 l 1055 0 l 575 0 l 575 25 l 605 25 q 669 39 646 25 q 697 72 687 49 q 705 157 705 88 l 705 442 l 380 442 z "},"I":{"ha":541,"x_min":28,"x_max":509,"o":"m 509 25 l 509 0 l 28 0 l 28 25 l 58 25 q 123 39 98 25 q 150 72 140 49 q 157 157 157 88 l 157 762 q 150 850 157 833 q 120 881 142 868 q 58 895 97 895 l 28 895 l 28 920 l 509 920 l 509 895 l 478 895 q 414 880 438 895 q 386 848 396 871 q 378 762 378 831 l 378 157 q 386 69 378 87 q 417 38 394 52 q 478 25 439 25 l 509 25 z "},"J":{"ha":694,"x_min":15,"x_max":686,"o":"m 197 895 l 197 920 l 686 920 l 686 895 l 656 895 q 591 880 616 895 q 564 848 574 871 q 557 762 557 831 l 557 312 q 530 120 557 180 q 436 19 504 60 q 274 -21 369 -21 q 86 40 158 -21 q 15 175 15 101 q 44 252 15 222 q 115 281 73 281 q 185 255 157 281 q 213 190 213 229 q 208 157 213 171 q 187 122 205 150 q 168 83 168 95 q 186 53 168 66 q 253 34 212 34 q 301 49 282 34 q 328 95 320 64 q 336 271 336 127 l 336 762 q 328 850 336 833 q 297 881 320 868 q 236 895 275 895 l 197 895 z "},"K":{"ha":1080,"x_min":31,"x_max":1096,"o":"m 578 568 l 902 163 q 1020 47 970 77 q 1096 25 1056 25 l 1096 0 l 617 0 l 617 25 q 676 39 663 29 q 689 64 689 50 q 627 172 689 93 l 416 437 l 382 408 l 382 157 q 390 68 382 85 q 421 38 398 50 q 495 25 444 25 l 495 0 l 31 0 l 31 25 l 62 25 q 126 39 102 25 q 153 72 144 49 q 161 157 161 88 l 161 762 q 153 850 161 833 q 123 881 146 868 q 62 895 100 895 l 31 895 l 31 920 l 489 920 l 489 895 q 418 881 442 895 q 390 849 400 871 q 382 762 382 832 l 382 476 l 723 752 q 794 844 794 810 q 765 885 794 870 q 691 895 750 892 l 691 920 l 1050 920 l 1050 895 q 974 877 1002 891 q 848 783 947 863 l 578 568 z "},"L":{"ha":926,"x_min":26,"x_max":877,"o":"m 877 323 l 842 0 l 26 0 l 26 25 l 56 25 q 121 39 96 25 q 148 72 138 49 q 155 157 155 88 l 155 762 q 148 850 155 833 q 118 881 140 868 q 56 895 95 895 l 26 895 l 26 920 l 516 920 l 516 895 l 476 895 q 412 880 436 895 q 384 848 394 871 q 376 762 376 831 l 376 176 q 385 86 376 106 q 416 58 393 67 q 498 52 433 52 l 575 52 q 697 77 648 52 q 782 159 746 103 q 849 323 817 214 l 877 323 z "},"M":{"ha":1311,"x_min":28,"x_max":1286,"o":"m 662 313 l 911 920 l 1286 920 l 1286 895 l 1256 895 q 1191 880 1215 895 q 1164 848 1174 871 q 1156 764 1156 832 l 1156 157 q 1164 69 1156 87 q 1194 38 1171 52 q 1256 25 1217 25 l 1286 25 l 1286 0 l 806 0 l 806 25 l 836 25 q 901 39 876 25 q 928 72 918 49 q 935 157 935 88 l 935 839 l 583 0 l 566 0 l 208 833 l 208 185 q 212 102 208 117 q 250 46 220 68 q 342 25 279 25 l 342 0 l 28 0 l 28 25 l 37 25 q 94 35 68 24 q 134 63 121 45 q 155 113 148 81 q 157 182 157 120 l 157 764 q 149 851 157 833 q 119 881 142 868 q 57 895 96 895 l 28 895 l 28 920 l 404 920 l 662 313 z "},"N":{"ha":1003,"x_min":20,"x_max":970,"o":"m 346 920 l 800 349 l 800 745 q 776 857 800 827 q 667 895 743 896 l 667 920 l 970 920 l 970 895 q 892 875 912 887 q 861 837 872 863 q 850 745 850 810 l 850 -21 l 827 -21 l 205 745 l 205 160 q 241 53 205 81 q 324 25 277 25 l 346 25 l 346 0 l 20 0 l 20 25 q 125 56 96 26 q 155 160 155 87 l 155 809 l 136 833 q 84 882 106 870 q 20 895 62 893 l 20 920 l 346 920 z "},"O":{"ha":1080,"x_min":54,"x_max":1031,"o":"m 536 932 q 893 804 756 941 q 1031 463 1031 668 q 928 155 1031 288 q 545 -21 793 -21 q 161 147 297 -21 q 54 463 54 280 q 194 804 54 667 q 536 932 333 941 m 545 889 q 353 760 418 889 q 299 456 299 654 q 382 109 299 221 q 543 30 439 30 q 660 64 613 30 q 753 202 720 107 q 786 451 786 298 q 752 724 786 633 q 666 852 718 814 q 545 889 613 889 z "},"P":{"ha":848,"x_min":35,"x_max":806,"o":"m 375 416 l 375 161 q 384 67 375 87 q 417 37 393 48 q 503 25 440 25 l 503 0 l 35 0 l 35 25 q 122 37 99 25 q 154 68 144 49 q 163 161 163 87 l 163 758 q 154 852 163 833 q 121 883 144 871 q 35 895 98 895 l 35 920 l 436 920 q 720 849 634 920 q 806 673 806 779 q 751 519 806 583 q 597 433 695 456 q 375 416 532 416 m 375 867 l 375 469 q 409 468 397 468 q 536 517 492 468 q 581 669 581 566 q 536 819 581 772 q 403 867 492 867 l 375 867 z "},"Q":{"ha":1080,"x_min":54,"x_max":1031,"o":"m 664 -8 q 761 -144 695 -98 q 926 -189 827 -189 q 983 -184 953 -189 l 983 -225 q 800 -251 881 -251 q 575 -189 674 -251 q 425 -8 475 -127 q 156 155 258 27 q 54 461 54 283 q 193 804 54 667 q 544 941 331 941 q 894 804 756 941 q 1031 461 1031 667 q 924 150 1031 282 q 664 -8 816 18 m 543 889 q 355 762 421 889 q 299 459 299 656 q 382 109 299 223 q 543 30 441 30 q 704 108 646 30 q 787 444 787 220 q 735 764 787 665 q 543 889 670 889 z "},"R":{"ha":1003,"x_min":26,"x_max":1015,"o":"m 369 419 l 369 161 q 378 67 369 87 q 410 37 387 48 q 496 25 433 25 l 496 0 l 26 0 l 26 25 q 112 37 90 25 q 144 68 135 49 q 153 161 153 87 l 153 758 q 144 852 153 833 q 112 883 135 871 q 26 895 89 895 l 26 920 l 453 920 q 697 897 620 920 q 823 811 774 873 q 872 666 872 749 q 799 498 872 564 q 668 435 752 456 l 889 123 q 951 48 932 63 q 1015 25 979 27 l 1015 0 l 726 0 l 429 419 l 369 419 m 369 870 l 369 467 l 408 467 q 549 485 502 467 q 622 547 595 502 q 649 665 649 592 q 600 820 649 770 q 441 870 551 870 l 369 870 z "},"S":{"ha":772,"x_min":72,"x_max":717,"o":"m 652 941 l 660 634 l 632 634 q 535 820 612 749 q 369 890 458 890 q 259 853 300 890 q 219 768 219 816 q 233 713 219 737 q 296 650 253 682 q 444 571 328 628 q 661 421 605 492 q 717 260 717 351 q 627 61 717 144 q 399 -22 537 -22 q 317 -13 355 -22 q 220 20 278 -4 q 166 34 187 34 q 129 20 149 34 q 97 -21 109 7 l 72 -21 l 72 326 l 97 326 q 212 103 127 180 q 395 26 297 26 q 516 67 471 26 q 562 163 562 109 q 544 227 562 196 q 492 284 527 257 q 367 356 456 312 q 186 461 241 418 q 102 558 132 505 q 73 676 73 612 q 153 863 73 786 q 357 941 234 941 q 444 930 401 941 q 521 900 475 922 q 585 878 567 878 q 613 888 603 878 q 632 941 623 899 l 652 941 z "},"T":{"ha":926,"x_min":50,"x_max":876,"o":"m 876 920 l 876 671 l 852 671 q 804 794 830 757 q 731 854 777 832 q 641 867 705 867 l 572 867 l 572 157 q 580 69 572 87 q 611 38 588 52 q 673 25 633 25 l 703 25 l 703 0 l 222 0 l 222 25 l 252 25 q 317 39 292 25 q 345 72 334 49 q 352 157 352 88 l 352 867 l 286 867 q 151 827 193 867 q 76 671 92 772 l 50 671 l 50 920 l 876 920 z "},"U":{"ha":1003,"x_min":33,"x_max":979,"o":"m 33 920 l 507 920 l 507 895 l 484 895 q 410 883 430 895 q 381 852 390 872 q 373 754 373 833 l 373 304 q 392 140 373 180 q 453 74 410 100 q 561 47 496 47 q 688 81 635 47 q 767 174 741 115 q 793 379 793 233 l 793 754 q 780 842 793 816 q 747 879 767 869 q 661 895 717 895 l 661 920 l 979 920 l 979 895 l 960 895 q 896 879 922 895 q 859 832 870 863 q 850 754 850 810 l 850 405 q 828 171 850 243 q 724 39 807 99 q 498 -22 642 -22 q 314 10 379 -22 q 189 121 225 54 q 152 304 152 189 l 152 754 q 143 853 152 833 q 113 884 134 872 q 33 895 91 895 l 33 920 z "},"V":{"ha":1003,"x_min":11,"x_max":989,"o":"m 989 920 l 989 895 q 899 841 939 886 q 814 682 871 807 l 498 -21 l 475 -21 l 160 710 q 84 865 103 842 q 11 895 64 888 l 11 920 l 452 920 l 452 895 l 437 895 q 355 880 377 895 q 340 850 340 869 q 345 821 340 838 q 382 732 351 804 l 578 274 l 760 682 q 800 781 792 755 q 807 823 807 806 q 796 859 807 844 q 764 883 785 875 q 687 895 735 895 l 687 920 l 989 920 z "},"W":{"ha":1389,"x_min":12,"x_max":1377,"o":"m 1377 920 l 1377 895 q 1333 880 1351 892 q 1302 843 1316 868 q 1259 738 1298 835 l 971 -21 l 945 -21 l 717 572 l 466 -21 l 441 -21 l 138 730 q 74 867 92 843 q 12 895 56 890 l 12 920 l 411 920 l 411 895 q 347 880 363 893 q 331 847 331 867 q 364 738 331 821 l 545 292 l 689 640 l 651 738 q 603 845 620 818 q 564 883 586 871 q 499 895 542 895 l 499 920 l 945 920 l 945 895 q 878 887 898 894 q 855 871 863 882 q 847 846 847 860 q 878 750 847 830 l 1045 315 l 1195 709 q 1224 792 1219 770 q 1230 833 1230 814 q 1211 877 1230 861 q 1138 895 1192 893 l 1138 920 l 1377 920 z "},"X":{"ha":1003,"x_min":9,"x_max":994,"o":"m 587 539 l 840 163 q 930 49 903 69 q 994 25 957 29 l 994 0 l 545 0 l 545 25 q 614 41 599 29 q 630 71 630 54 q 625 93 630 83 q 578 169 616 113 l 444 368 l 303 196 q 240 90 240 118 q 256 54 240 71 q 304 29 273 37 q 363 25 319 25 l 363 0 l 9 0 l 9 25 q 104 58 70 34 q 231 188 150 89 l 414 410 l 180 754 q 114 848 122 839 q 78 880 96 871 q 29 895 60 890 l 29 920 l 486 920 l 486 895 l 463 895 q 408 882 423 895 q 392 850 392 869 q 397 825 392 836 l 444 754 l 557 581 l 654 699 q 729 827 729 791 q 719 861 729 846 q 688 886 708 877 q 627 895 669 895 l 627 920 l 966 920 l 966 895 q 901 885 926 894 q 849 850 877 876 q 761 749 831 834 l 587 539 z "},"Y":{"ha":1003,"x_min":12,"x_max":987,"o":"m 987 920 l 987 895 q 918 868 942 888 q 810 713 884 840 l 611 380 l 611 157 q 618 69 611 86 q 648 38 626 52 q 707 25 670 25 l 758 25 l 758 0 l 242 0 l 242 25 l 290 25 q 355 39 331 25 q 382 72 372 49 q 390 157 390 88 l 390 342 l 174 736 q 83 873 109 852 q 12 895 56 894 l 12 920 l 453 920 l 453 895 l 433 895 q 377 883 393 895 q 361 859 361 871 q 416 736 361 834 l 582 431 l 747 709 q 809 844 809 810 q 791 874 809 862 q 707 895 768 891 l 707 920 l 987 920 z "},"Z":{"ha":926,"x_min":22,"x_max":902,"o":"m 848 920 l 307 52 l 482 52 q 656 67 606 52 q 795 157 736 92 q 876 332 853 222 l 902 332 l 865 0 l 22 0 l 564 869 l 427 869 q 323 865 348 869 q 234 830 275 856 q 164 760 192 804 q 121 650 137 717 l 96 650 l 121 920 l 848 920 z "},"[":{"ha":463,"x_min":145,"x_max":418,"o":"m 145 -254 l 145 920 l 418 920 l 418 891 l 387 891 q 327 882 342 891 q 304 855 312 873 q 296 768 296 837 l 296 -107 q 299 -182 296 -172 q 322 -218 305 -206 q 387 -229 338 -229 l 418 -229 l 418 -254 l 145 -254 z "},"\\":{"ha":386,"x_min":1,"x_max":390,"o":"m 1 941 l 87 941 l 390 -21 l 302 -21 l 1 941 z "},"]":{"ha":463,"x_min":45,"x_max":318,"o":"m 318 920 l 318 -254 l 45 -254 l 45 -228 l 76 -228 q 136 -219 121 -228 q 159 -192 151 -210 q 167 -106 167 -174 l 167 770 q 164 845 167 836 q 141 881 158 869 q 76 892 125 892 l 45 892 l 45 920 l 318 920 z "},"^":{"ha":807,"x_min":100,"x_max":708,"o":"m 100 452 l 378 939 l 434 939 l 708 452 l 600 452 l 400 799 l 203 452 l 100 452 z "},"_":{"ha":694,"x_min":-13,"x_max":707,"o":"m -13 -211 l 707 -211 l 707 -300 l -13 -300 l -13 -211 z "},"`":{"ha":463,"x_min":26,"x_max":309,"o":"m 26 951 l 230 951 l 309 715 l 251 715 l 26 951 z "},"a":{"ha":694,"x_min":62,"x_max":671,"o":"m 397 94 q 189 -9 281 -9 q 98 27 134 -9 q 62 116 62 62 q 125 247 62 189 q 397 401 187 304 l 397 465 q 389 555 397 536 q 359 588 381 574 q 311 602 338 602 q 238 582 267 602 q 220 553 220 570 q 239 518 220 539 q 265 462 265 489 q 240 405 265 429 q 176 382 216 382 q 104 408 133 382 q 75 468 75 433 q 114 561 75 517 q 222 629 153 606 q 366 653 291 653 q 508 615 456 653 q 576 532 561 576 q 586 401 586 503 l 586 155 q 589 100 586 111 q 600 83 593 89 q 615 78 606 78 q 651 103 633 78 l 671 87 q 601 14 637 37 q 519 -9 565 -9 q 434 17 465 -9 q 397 94 404 42 m 397 143 l 397 355 q 275 252 315 307 q 248 178 248 216 q 271 123 248 147 q 318 105 288 105 q 397 143 352 105 z "},"b":{"ha":772,"x_min":29,"x_max":713,"o":"m 292 920 l 292 570 q 467 653 372 653 q 590 615 532 653 q 680 506 648 576 q 713 343 713 435 q 671 155 713 239 q 561 25 630 70 q 403 -19 492 -19 q 311 -3 351 -19 q 233 50 271 14 l 127 -18 l 104 -18 l 104 788 q 100 856 104 843 q 78 884 93 875 q 29 895 64 893 l 29 920 l 292 920 m 292 510 l 292 228 q 296 118 292 142 q 329 53 303 78 q 395 28 355 28 q 454 48 429 28 q 495 126 479 68 q 512 336 512 184 q 475 536 512 482 q 404 576 449 576 q 292 510 346 576 z "},"c":{"ha":616,"x_min":53,"x_max":585,"o":"m 564 163 l 585 147 q 474 22 541 63 q 332 -19 407 -19 q 129 77 205 -19 q 53 307 53 172 q 122 534 53 436 q 352 653 205 653 q 508 604 450 653 q 566 493 566 554 q 543 431 566 454 q 481 408 519 408 q 415 435 441 408 q 383 529 389 461 q 363 589 379 572 q 327 606 348 606 q 271 571 294 606 q 236 411 236 519 q 264 240 236 321 q 342 118 293 158 q 431 89 380 89 q 494 104 464 89 q 564 163 524 120 z "},"d":{"ha":772,"x_min":54,"x_max":741,"o":"m 663 920 l 663 190 q 667 102 663 116 q 688 69 673 80 q 741 56 703 58 l 741 33 l 473 -19 l 473 81 q 388 2 425 23 q 302 -19 350 -19 q 111 90 181 -19 q 54 306 54 178 q 89 489 54 408 q 185 612 124 570 q 317 653 247 653 q 398 635 363 653 q 473 574 433 618 l 473 765 q 467 852 473 838 q 443 882 459 872 q 382 891 427 891 l 382 920 l 663 920 m 473 490 q 351 586 423 586 q 309 572 326 586 q 268 498 284 551 q 252 336 252 446 q 270 159 252 216 q 318 75 288 101 q 361 62 334 62 q 473 156 420 62 l 473 490 z "},"e":{"ha":616,"x_min":54,"x_max":584,"o":"m 584 340 l 236 340 q 303 140 242 214 q 416 84 350 84 q 490 107 456 84 q 561 189 523 130 l 584 174 q 470 25 532 68 q 326 -19 408 -19 q 112 90 184 -19 q 54 307 54 177 q 139 559 54 465 q 340 653 225 653 q 508 574 437 653 q 584 340 578 495 m 417 385 q 405 535 417 494 q 368 597 393 576 q 330 609 354 609 q 273 574 295 609 q 233 409 233 514 l 233 385 l 417 385 z "},"f":{"ha":463,"x_min":45,"x_max":566,"o":"m 325 568 l 325 127 q 338 47 325 64 q 418 24 360 22 l 418 0 l 45 0 l 45 24 q 105 34 87 25 q 130 60 123 43 q 137 127 137 76 l 137 568 l 45 568 l 45 634 l 137 634 l 137 681 l 136 713 q 208 876 136 810 q 401 941 279 941 q 525 909 485 941 q 566 840 566 878 q 541 787 566 810 q 474 765 515 765 q 418 783 439 765 q 397 824 397 802 q 401 849 397 830 q 404 871 404 861 q 396 892 404 885 q 370 902 385 902 q 337 886 350 902 q 323 833 323 869 l 325 715 l 325 634 l 418 634 l 418 568 l 325 568 z "},"g":{"ha":694,"x_min":52,"x_max":669,"o":"m 454 627 l 667 627 l 667 552 l 546 552 q 592 492 579 519 q 608 415 608 455 q 571 297 608 347 q 468 219 533 248 q 353 191 404 191 q 272 195 349 191 q 221 175 241 195 q 200 127 200 155 q 219 87 200 102 q 279 71 237 71 l 397 73 q 593 41 539 73 q 669 -92 669 -2 q 634 -197 669 -150 q 541 -267 599 -244 q 340 -300 454 -300 q 184 -283 254 -300 q 83 -237 113 -267 q 52 -175 52 -208 q 76 -119 52 -144 q 163 -77 99 -94 q 75 43 75 -34 q 111 134 75 90 q 224 211 146 178 q 93 298 134 244 q 52 424 52 353 q 128 585 52 517 q 323 653 204 653 q 454 627 387 653 m 336 611 q 270 571 297 611 q 243 407 243 532 q 270 268 243 306 q 333 231 296 231 q 401 268 374 231 q 428 413 428 305 q 397 578 428 534 q 336 611 376 611 m 296 -94 q 205 -105 227 -94 q 166 -162 166 -126 q 206 -225 166 -197 q 357 -253 246 -253 q 505 -228 451 -253 q 559 -157 559 -203 q 549 -129 559 -140 q 493 -101 530 -109 q 296 -94 456 -94 z "},"h":{"ha":772,"x_min":47,"x_max":732,"o":"m 306 920 l 306 553 q 401 630 358 608 q 492 653 445 653 q 594 619 551 653 q 650 539 636 585 q 664 385 664 494 l 664 138 q 677 47 664 65 q 732 24 691 29 l 732 0 l 411 0 l 411 24 q 462 52 445 29 q 474 138 474 69 l 474 420 q 468 519 474 499 q 447 550 462 539 q 414 562 433 562 q 361 543 387 562 q 306 477 336 524 l 306 138 q 316 53 306 70 q 369 24 329 30 l 369 0 l 47 0 l 47 24 q 104 50 87 28 q 116 138 116 65 l 116 782 q 103 871 116 854 q 47 895 90 889 l 47 920 l 306 920 z "},"i":{"ha":386,"x_min":28,"x_max":371,"o":"m 199 941 q 274 910 243 941 q 304 836 304 880 q 274 762 304 793 q 199 732 243 732 q 125 762 156 732 q 95 836 95 793 q 125 910 95 880 q 199 941 156 941 m 294 634 l 294 132 q 310 46 294 64 q 371 24 326 27 l 371 0 l 28 0 l 28 24 q 91 49 71 26 q 104 132 104 64 l 104 502 q 89 588 104 569 q 28 609 73 606 l 28 634 l 294 634 z "},"j":{"ha":463,"x_min":-39,"x_max":345,"o":"m 241 941 q 315 910 285 941 q 345 838 345 880 q 315 764 345 794 q 241 733 284 733 q 168 764 199 733 q 138 838 138 794 q 168 910 138 880 q 241 941 198 941 m 336 634 l 336 -22 q 325 -159 336 -115 q 257 -261 308 -222 q 124 -300 207 -300 q 1 -266 41 -300 q -39 -184 -39 -232 q -18 -132 -39 -154 q 31 -110 3 -110 q 71 -125 56 -110 q 86 -171 86 -140 q 85 -190 86 -179 q 84 -210 84 -204 q 95 -245 84 -233 q 123 -256 106 -256 q 150 -243 138 -256 q 161 -204 161 -229 q 157 -149 161 -191 q 149 -58 150 -74 l 147 102 l 147 494 l 148 530 q 133 588 148 572 q 72 609 119 604 l 72 634 l 336 634 z "},"k":{"ha":772,"x_min":46,"x_max":785,"o":"m 304 920 l 304 315 l 452 459 q 508 523 497 503 q 519 561 519 543 q 505 591 519 579 q 446 609 490 604 l 446 634 l 730 634 l 730 609 q 659 590 690 607 q 540 486 629 572 l 471 418 l 620 199 q 727 50 710 66 q 785 24 750 27 l 785 0 l 458 0 l 458 24 q 489 33 479 24 q 499 50 499 41 q 471 108 499 66 l 345 292 l 304 252 l 304 138 q 318 47 304 65 q 374 24 332 29 l 374 0 l 46 0 l 46 24 q 103 50 86 28 q 115 138 115 65 l 115 782 q 101 871 115 854 q 46 895 88 889 l 46 920 l 304 920 z "},"l":{"ha":386,"x_min":29,"x_max":372,"o":"m 295 920 l 295 132 q 311 46 295 64 q 372 24 326 27 l 372 0 l 29 0 l 29 24 q 92 49 71 26 q 105 132 105 64 l 105 788 q 90 873 105 854 q 29 895 74 892 l 29 920 l 295 920 z "},"m":{"ha":1157,"x_min":52,"x_max":1121,"o":"m 310 634 l 310 551 q 407 630 362 608 q 504 653 451 653 q 606 625 565 653 q 670 538 648 596 q 774 626 724 599 q 878 653 824 653 q 983 623 944 653 q 1037 546 1022 593 q 1053 398 1053 500 l 1053 138 q 1066 47 1053 65 q 1121 24 1079 30 l 1121 0 l 793 0 l 793 24 q 850 54 832 28 q 863 138 863 73 l 863 411 q 856 519 863 496 q 834 553 849 542 q 800 564 820 564 q 741 543 771 564 q 681 479 711 522 l 681 138 q 692 52 681 70 q 752 24 708 27 l 752 0 l 424 0 l 424 24 q 466 38 450 26 q 486 66 481 50 q 491 138 491 83 l 491 411 q 484 519 491 497 q 461 553 477 541 q 427 565 446 565 q 378 551 400 565 q 310 479 346 530 l 310 138 q 323 50 310 71 q 378 24 336 28 l 378 0 l 52 0 l 52 24 q 109 50 92 28 q 120 138 120 65 l 120 496 q 107 586 120 568 q 52 609 94 604 l 52 634 l 310 634 z "},"n":{"ha":772,"x_min":47,"x_max":732,"o":"m 306 634 l 306 552 q 399 629 355 605 q 496 653 444 653 q 598 619 557 653 q 652 534 639 585 q 663 385 663 495 l 663 138 q 676 47 663 65 q 732 24 690 29 l 732 0 l 411 0 l 411 24 q 463 54 447 29 q 473 138 473 71 l 473 420 q 467 519 473 498 q 447 550 461 539 q 414 562 432 562 q 306 478 356 562 l 306 138 q 319 48 306 67 q 368 24 332 29 l 368 0 l 47 0 l 47 24 q 104 50 87 28 q 116 138 116 65 l 116 496 q 103 586 116 568 q 47 609 90 604 l 47 634 l 306 634 z "},"o":{"ha":694,"x_min":50,"x_max":645,"o":"m 346 653 q 500 610 429 653 q 608 489 571 568 q 645 317 645 410 q 576 91 645 182 q 348 -19 494 -19 q 127 81 205 -19 q 50 314 50 182 q 129 552 50 450 q 346 653 208 653 m 349 605 q 289 579 314 605 q 257 476 264 553 q 249 262 249 399 q 258 126 249 189 q 290 53 266 78 q 346 28 315 28 q 397 45 376 28 q 432 109 423 68 q 446 370 446 174 q 433 528 446 485 q 395 591 420 571 q 349 605 377 605 z "},"p":{"ha":772,"x_min":26,"x_max":712,"o":"m 292 64 l 292 -172 q 300 -238 292 -220 q 324 -264 308 -256 q 388 -272 340 -272 l 388 -297 l 26 -297 l 26 -272 q 89 -248 68 -271 q 102 -168 102 -233 l 102 502 q 87 588 102 569 q 26 609 71 606 l 26 634 l 292 634 l 292 551 q 360 621 326 600 q 468 653 410 653 q 595 609 538 653 q 682 487 652 565 q 712 320 712 410 q 681 144 712 224 q 592 23 650 64 q 461 -19 533 -19 q 363 4 409 -19 q 292 64 330 22 m 292 133 q 417 50 351 50 q 477 89 454 50 q 513 306 513 146 q 474 530 513 470 q 405 570 448 570 q 292 471 336 570 l 292 133 z "},"q":{"ha":772,"x_min":53,"x_max":745,"o":"m 473 66 q 395 5 431 23 q 296 -19 348 -19 q 108 87 177 -19 q 53 290 53 172 q 95 475 53 389 q 209 607 136 562 q 363 653 282 653 q 460 635 418 653 q 533 579 503 616 l 640 653 l 663 653 l 663 -168 q 673 -246 663 -231 q 745 -272 691 -271 l 745 -297 l 378 -297 l 378 -272 q 439 -262 420 -272 q 466 -237 458 -253 q 473 -174 473 -222 l 473 66 m 473 128 l 473 389 q 461 534 473 498 q 417 595 449 569 q 376 608 401 608 q 296 562 324 608 q 251 302 251 492 q 290 98 251 157 q 358 58 316 58 q 413 75 382 58 q 473 128 444 92 z "},"r":{"ha":616,"x_min":51,"x_max":595,"o":"m 310 634 l 310 490 q 420 621 373 589 q 512 653 468 653 q 573 630 550 653 q 595 564 595 606 q 573 493 595 518 q 520 468 551 468 q 458 491 484 468 q 427 517 431 514 q 411 521 420 521 q 374 506 391 521 q 332 440 346 483 q 310 295 310 374 l 310 149 l 311 111 q 315 62 311 73 q 339 35 323 43 q 393 24 355 26 l 393 0 l 51 0 l 51 24 q 107 47 92 28 q 121 149 121 66 l 121 500 q 116 569 121 554 q 96 597 109 588 q 51 609 83 606 l 51 634 l 310 634 z "},"s":{"ha":541,"x_min":55,"x_max":491,"o":"m 448 652 l 458 435 l 435 435 q 349 567 393 532 q 260 602 304 602 q 213 584 233 602 q 193 541 193 565 q 207 505 193 522 q 328 410 229 477 q 459 295 428 342 q 491 190 491 248 q 465 86 491 137 q 390 8 438 35 q 283 -19 342 -19 q 162 9 238 -19 q 134 17 142 17 q 97 -17 112 17 l 75 -17 l 64 211 l 87 211 q 171 77 117 121 q 271 32 224 32 q 325 52 304 32 q 345 100 345 72 q 325 157 345 133 q 234 229 304 180 q 100 338 130 300 q 55 461 55 394 q 105 594 55 534 q 252 653 156 653 q 351 628 303 653 q 381 618 370 618 q 401 623 393 618 q 425 652 408 628 l 448 652 z "},"t":{"ha":463,"x_min":26,"x_max":449,"o":"m 298 866 l 298 634 l 449 634 l 449 567 l 298 567 l 298 176 q 303 105 298 121 q 321 79 309 89 q 345 69 334 69 q 429 136 389 69 l 449 121 q 271 -9 394 -9 q 169 25 210 -9 q 115 100 127 58 q 109 224 109 123 l 109 567 l 26 567 l 26 591 q 171 718 111 651 q 276 866 231 784 l 298 866 z "},"u":{"ha":772,"x_min":43,"x_max":728,"o":"m 659 634 l 659 138 q 673 47 659 65 q 728 24 686 29 l 728 0 l 469 0 l 469 85 q 378 6 424 31 q 277 -19 333 -19 q 181 14 223 -19 q 125 91 140 47 q 111 245 111 135 l 111 496 q 98 586 111 568 q 43 609 85 604 l 43 634 l 301 634 l 301 201 q 308 113 301 133 q 328 83 314 94 q 360 73 342 73 q 404 86 385 73 q 469 157 431 104 l 469 496 q 456 586 469 568 q 401 609 443 604 l 401 634 l 659 634 z "},"v":{"ha":694,"x_min":13,"x_max":682,"o":"m 333 -19 l 119 473 q 59 585 81 562 q 13 609 43 603 l 13 634 l 350 634 l 350 609 q 307 597 318 609 q 290 562 290 583 q 320 468 290 537 l 425 230 l 508 435 q 544 560 544 524 q 529 594 544 581 q 475 609 513 608 l 475 634 l 682 634 l 682 609 q 633 587 652 605 q 576 479 614 568 l 365 -19 l 333 -19 z "},"w":{"ha":1003,"x_min":12,"x_max":989,"o":"m 675 -19 l 502 446 l 332 -19 l 296 -19 l 127 441 q 63 578 90 546 q 12 609 46 600 l 12 634 l 332 634 l 332 609 q 287 600 299 609 q 275 578 275 590 q 296 509 275 566 l 389 261 l 479 509 l 472 525 q 436 590 452 576 q 389 609 421 604 l 389 634 l 714 634 l 714 609 q 666 598 676 607 q 656 574 656 590 q 675 509 656 559 l 765 261 l 846 489 q 864 555 864 538 q 851 594 864 582 q 801 609 838 606 l 801 634 l 989 634 l 989 609 q 939 587 958 605 q 892 485 921 569 l 714 -19 l 675 -19 z "},"x":{"ha":694,"x_min":32,"x_max":672,"o":"m 422 389 l 532 180 q 622 41 589 71 q 672 24 640 26 l 672 0 l 319 0 l 319 24 q 370 35 360 28 q 380 56 380 43 q 358 115 380 75 l 303 218 l 256 150 q 220 94 224 103 q 215 71 215 81 q 221 45 215 56 q 239 30 228 35 q 280 24 250 24 l 280 0 l 32 0 l 32 24 q 116 50 78 24 q 228 183 155 75 l 280 260 l 171 463 q 91 584 117 562 q 32 609 64 606 l 32 634 l 383 634 l 383 609 l 365 608 l 330 596 q 324 581 324 591 q 328 559 324 570 q 347 523 330 555 l 396 431 l 422 467 q 476 572 476 542 q 464 596 476 586 q 422 609 452 606 l 422 634 l 646 634 l 646 609 q 569 584 605 608 q 488 490 533 559 l 422 389 z "},"y":{"ha":694,"x_min":12,"x_max":682,"o":"m 338 -26 l 133 444 q 65 575 87 551 q 12 609 43 600 l 12 634 l 349 634 l 349 609 q 302 596 315 608 q 288 568 288 585 q 322 467 288 543 l 431 218 l 505 410 q 545 553 545 513 q 528 593 545 578 q 469 609 511 608 l 469 634 l 682 634 l 682 609 q 631 585 650 606 q 565 444 611 564 l 384 -26 q 282 -243 315 -202 q 165 -300 235 -300 q 74 -268 109 -300 q 39 -190 39 -235 q 63 -125 39 -151 q 122 -99 87 -99 q 177 -121 156 -99 q 198 -188 197 -142 q 204 -221 199 -214 q 220 -229 210 -229 q 254 -209 236 -229 q 318 -79 281 -180 l 338 -26 z "},"z":{"ha":616,"x_min":14,"x_max":594,"o":"m 566 0 l 14 0 l 14 15 l 363 593 l 261 593 q 167 581 195 593 q 121 543 138 569 q 84 450 103 517 l 60 450 l 60 634 l 594 634 l 594 616 l 248 43 l 292 43 q 479 81 422 43 q 566 217 537 118 l 585 217 l 566 0 z "},"{":{"ha":547,"x_min":112,"x_max":488,"o":"m 488 941 l 488 910 q 388 862 420 897 q 356 783 356 827 q 372 670 356 737 q 389 552 389 602 q 361 458 389 506 q 282 376 334 410 q 168 332 246 353 q 290 279 252 305 q 365 198 340 245 q 390 109 390 151 q 373 1 390 68 q 357 -117 357 -67 q 388 -200 357 -165 q 488 -249 418 -235 l 488 -281 l 465 -281 q 333 -249 395 -281 q 240 -165 271 -216 q 208 -66 208 -114 q 229 62 208 -19 q 245 170 245 123 q 211 261 245 224 q 112 310 177 299 l 112 351 q 211 401 177 362 q 245 497 245 441 q 230 601 245 543 q 209 724 209 682 q 235 813 209 768 q 302 887 262 859 q 389 928 342 916 q 488 941 426 939 z "},"|":{"ha":306,"x_min":108,"x_max":196,"o":"m 108 -300 l 108 941 l 196 941 l 196 -300 l 108 -300 z "},"}":{"ha":547,"x_min":62,"x_max":438,"o":"m 62 -281 l 62 -250 q 161 -202 129 -237 q 194 -122 194 -167 q 178 -10 194 -77 q 161 108 161 58 q 189 202 161 155 q 268 284 216 250 q 382 329 304 307 q 260 381 298 355 q 184 463 210 416 q 159 551 159 509 q 176 660 159 592 q 193 777 193 728 q 162 861 193 826 q 62 909 132 895 l 62 941 l 85 941 q 216 909 154 942 q 310 826 279 877 q 342 726 342 774 q 321 598 342 680 q 305 490 305 538 q 339 399 305 437 q 438 351 372 361 l 438 309 q 339 259 372 298 q 305 163 305 220 q 320 60 305 117 q 340 -63 340 -21 q 314 -153 340 -108 q 248 -227 288 -198 q 161 -268 208 -255 q 62 -281 124 -278 z "},"~":{"ha":722,"x_min":26,"x_max":765,"o":"m 726 481 l 765 481 q 709 317 761 373 q 583 262 657 262 q 506 273 547 262 q 328 342 466 285 q 185 384 229 384 q 108 356 139 384 q 66 262 77 328 l 26 262 q 82 428 32 374 q 203 481 132 481 q 273 472 239 481 q 463 401 342 452 q 562 363 528 372 q 606 357 583 357 q 687 389 654 357 q 726 481 720 421 z "},"Ä":{"ha":1003,"x_min":11,"x_max":987,"o":"m 578 262 l 253 262 l 214 172 q 195 98 195 127 q 227 41 195 60 q 317 25 245 31 l 317 0 l 11 0 l 11 25 q 92 66 60 33 q 171 205 124 100 l 500 939 l 513 939 l 844 184 q 922 50 892 77 q 987 25 945 28 l 987 0 l 543 0 l 543 25 l 561 25 q 636 40 614 25 q 651 71 651 51 q 647 96 651 83 q 627 147 646 102 l 578 262 m 555 312 l 418 629 l 277 312 l 555 312 m 627 1191 q 691 1164 665 1191 q 718 1101 718 1138 q 691 1037 718 1063 q 627 1010 665 1010 q 564 1037 590 1010 q 537 1101 537 1063 q 564 1164 537 1138 q 627 1191 590 1191 m 374 1191 q 438 1164 412 1191 q 464 1101 464 1138 q 437 1037 464 1063 q 374 1010 411 1010 q 310 1037 336 1010 q 283 1101 283 1063 q 310 1164 283 1138 q 374 1191 336 1191 z "},"Å":{"ha":1003,"x_min":11,"x_max":987,"o":"m 578 262 l 253 262 l 214 172 q 195 98 195 127 q 227 41 195 60 q 317 25 245 31 l 317 0 l 11 0 l 11 25 q 92 66 60 33 q 171 205 124 100 l 500 939 l 513 939 l 844 184 q 922 50 892 77 q 987 25 945 28 l 987 0 l 543 0 l 543 25 l 561 25 q 636 40 614 25 q 651 71 651 51 q 647 96 651 83 q 627 147 646 102 l 578 262 m 555 312 l 418 629 l 277 312 l 555 312 m 509 1168 q 610 1126 569 1168 q 652 1026 652 1085 q 610 925 652 967 q 509 884 568 884 q 409 925 451 884 q 368 1026 368 967 q 409 1126 368 1085 q 509 1168 450 1168 m 510 1116 q 446 1089 472 1116 q 420 1026 420 1063 q 446 963 420 989 q 510 937 473 937 q 573 963 547 937 q 600 1026 600 989 q 573 1089 600 1063 q 510 1116 547 1116 z "},"Ç":{"ha":1003,"x_min":55,"x_max":927,"o":"m 927 941 l 927 622 l 901 622 q 789 813 871 747 q 605 880 708 880 q 447 830 519 880 q 342 701 375 781 q 299 473 299 598 q 330 248 299 349 q 428 95 361 146 q 600 43 494 43 q 759 81 687 43 q 911 212 831 119 l 911 132 q 750 15 834 52 q 555 -21 667 -21 q 293 38 408 -21 q 117 208 179 97 q 55 443 55 318 q 124 692 55 574 q 310 876 193 810 q 558 941 427 941 q 763 899 655 941 q 842 874 825 874 q 880 890 864 874 q 901 941 896 906 l 927 941 m 543 8 l 587 8 l 555 -41 q 617 -74 596 -48 q 639 -140 639 -100 q 618 -204 639 -175 q 564 -245 597 -233 q 408 -261 513 -262 l 408 -229 q 500 -207 476 -227 q 524 -154 524 -188 q 508 -120 524 -134 q 463 -106 492 -106 l 543 8 z "},"É":{"ha":926,"x_min":28,"x_max":864,"o":"m 378 867 l 378 492 l 397 492 q 524 547 484 492 q 574 709 563 602 l 600 709 l 600 228 l 574 228 q 539 357 566 307 q 479 424 513 407 q 378 441 444 441 l 378 182 q 385 90 378 106 q 409 62 391 73 q 466 51 427 51 l 521 51 q 727 111 650 51 q 839 292 805 170 l 864 292 l 823 0 l 28 0 l 28 25 l 58 25 q 123 39 98 25 q 150 72 140 49 q 157 157 157 88 l 157 762 q 154 839 157 825 q 129 876 147 863 q 58 895 103 895 l 28 895 l 28 920 l 798 920 l 798 648 l 772 648 q 716 791 752 747 q 616 854 681 834 q 473 867 578 867 l 378 867 m 669 1234 l 444 998 l 386 998 l 465 1234 l 669 1234 z "},"Ñ":{"ha":1003,"x_min":20,"x_max":970,"o":"m 346 920 l 800 349 l 800 745 q 776 857 800 827 q 667 895 743 896 l 667 920 l 970 920 l 970 895 q 892 875 912 887 q 861 837 872 863 q 850 745 850 810 l 850 -21 l 827 -21 l 205 745 l 205 160 q 241 53 205 81 q 324 25 277 25 l 346 25 l 346 0 l 20 0 l 20 25 q 125 56 96 26 q 155 160 155 87 l 155 809 l 136 833 q 84 882 106 870 q 20 895 62 893 l 20 920 l 346 920 m 680 1190 l 715 1190 q 716 1166 716 1176 q 674 1046 716 1092 q 572 1001 632 1001 q 461 1033 528 1001 q 372 1065 395 1065 q 338 1051 352 1065 q 319 1002 325 1038 l 280 1002 q 320 1141 277 1090 q 427 1191 363 1191 q 460 1187 447 1191 q 526 1160 479 1181 q 625 1128 595 1128 q 654 1140 640 1128 q 680 1190 667 1152 z "},"Ö":{"ha":1080,"x_min":54,"x_max":1031,"o":"m 536 932 q 893 804 756 941 q 1031 463 1031 668 q 928 155 1031 288 q 545 -21 793 -21 q 161 147 297 -21 q 54 463 54 280 q 194 804 54 667 q 536 932 333 941 m 545 889 q 353 760 418 889 q 299 456 299 654 q 382 109 299 221 q 543 30 439 30 q 660 64 613 30 q 753 202 720 107 q 786 451 786 298 q 752 724 786 633 q 666 852 718 814 q 545 889 613 889 m 670 1191 q 734 1164 708 1191 q 760 1101 760 1138 q 734 1037 760 1063 q 670 1010 707 1010 q 606 1037 633 1010 q 580 1101 580 1063 q 606 1164 580 1138 q 670 1191 633 1191 m 416 1191 q 480 1164 454 1191 q 507 1101 507 1138 q 480 1037 507 1063 q 416 1010 454 1010 q 353 1037 379 1010 q 326 1101 326 1063 q 353 1164 326 1138 q 416 1191 379 1191 z "},"Ü":{"ha":1003,"x_min":33,"x_max":979,"o":"m 33 920 l 507 920 l 507 895 l 484 895 q 410 883 430 895 q 381 852 390 872 q 373 754 373 833 l 373 304 q 392 140 373 180 q 453 74 410 100 q 561 47 496 47 q 688 81 635 47 q 767 174 741 115 q 793 379 793 233 l 793 754 q 780 842 793 816 q 747 879 767 869 q 661 895 717 895 l 661 920 l 979 920 l 979 895 l 960 895 q 896 879 922 895 q 859 832 870 863 q 850 754 850 810 l 850 405 q 828 171 850 243 q 724 39 807 99 q 498 -22 642 -22 q 314 10 379 -22 q 189 121 225 54 q 152 304 152 189 l 152 754 q 143 853 152 833 q 113 884 134 872 q 33 895 91 895 l 33 920 m 627 1191 q 691 1164 665 1191 q 718 1101 718 1138 q 691 1037 718 1063 q 627 1010 665 1010 q 564 1037 590 1010 q 537 1101 537 1063 q 564 1164 537 1138 q 627 1191 590 1191 m 374 1191 q 438 1164 412 1191 q 464 1101 464 1138 q 437 1037 464 1063 q 374 1010 411 1010 q 310 1037 336 1010 q 283 1101 283 1063 q 310 1164 283 1138 q 374 1191 336 1191 z "},"á":{"ha":694,"x_min":62,"x_max":671,"o":"m 397 94 q 189 -9 281 -9 q 98 27 134 -9 q 62 116 62 62 q 125 247 62 189 q 397 401 187 304 l 397 465 q 389 555 397 536 q 359 588 381 574 q 311 602 338 602 q 238 582 267 602 q 220 553 220 570 q 239 518 220 539 q 265 462 265 489 q 240 405 265 429 q 176 382 216 382 q 104 408 133 382 q 75 468 75 433 q 114 561 75 517 q 222 629 153 606 q 366 653 291 653 q 508 615 456 653 q 576 532 561 576 q 586 401 586 503 l 586 155 q 589 100 586 111 q 600 83 593 89 q 615 78 606 78 q 651 103 633 78 l 671 87 q 601 14 637 37 q 519 -9 565 -9 q 434 17 465 -9 q 397 94 404 42 m 397 143 l 397 355 q 275 252 315 307 q 248 178 248 216 q 271 123 248 147 q 318 105 288 105 q 397 143 352 105 m 553 951 l 328 715 l 270 715 l 349 951 l 553 951 z "},"à":{"ha":694,"x_min":62,"x_max":671,"o":"m 397 94 q 189 -9 281 -9 q 98 27 134 -9 q 62 116 62 62 q 125 247 62 189 q 397 401 187 304 l 397 465 q 389 555 397 536 q 359 588 381 574 q 311 602 338 602 q 238 582 267 602 q 220 553 220 570 q 239 518 220 539 q 265 462 265 489 q 240 405 265 429 q 176 382 216 382 q 104 408 133 382 q 75 468 75 433 q 114 561 75 517 q 222 629 153 606 q 366 653 291 653 q 508 615 456 653 q 576 532 561 576 q 586 401 586 503 l 586 155 q 589 100 586 111 q 600 83 593 89 q 615 78 606 78 q 651 103 633 78 l 671 87 q 601 14 637 37 q 519 -9 565 -9 q 434 17 465 -9 q 397 94 404 42 m 397 143 l 397 355 q 275 252 315 307 q 248 178 248 216 q 271 123 248 147 q 318 105 288 105 q 397 143 352 105 m 141 951 l 345 951 l 424 715 l 366 715 l 141 951 z "},"â":{"ha":694,"x_min":62,"x_max":671,"o":"m 397 94 q 189 -9 281 -9 q 98 27 134 -9 q 62 116 62 62 q 125 247 62 189 q 397 401 187 304 l 397 465 q 389 555 397 536 q 359 588 381 574 q 311 602 338 602 q 238 582 267 602 q 220 553 220 570 q 239 518 220 539 q 265 462 265 489 q 240 405 265 429 q 176 382 216 382 q 104 408 133 382 q 75 468 75 433 q 114 561 75 517 q 222 629 153 606 q 366 653 291 653 q 508 615 456 653 q 576 532 561 576 q 586 401 586 503 l 586 155 q 589 100 586 111 q 600 83 593 89 q 615 78 606 78 q 651 103 633 78 l 671 87 q 601 14 637 37 q 519 -9 565 -9 q 434 17 465 -9 q 397 94 404 42 m 397 143 l 397 355 q 275 252 315 307 q 248 178 248 216 q 271 123 248 147 q 318 105 288 105 q 397 143 352 105 m 426 968 l 564 709 l 511 709 l 350 848 l 184 713 l 128 713 l 273 968 l 426 968 z "},"ä":{"ha":694,"x_min":62,"x_max":671,"o":"m 397 94 q 189 -9 281 -9 q 98 27 134 -9 q 62 116 62 62 q 125 247 62 189 q 397 401 187 304 l 397 465 q 389 555 397 536 q 359 588 381 574 q 311 602 338 602 q 238 582 267 602 q 220 553 220 570 q 239 518 220 539 q 265 462 265 489 q 240 405 265 429 q 176 382 216 382 q 104 408 133 382 q 75 468 75 433 q 114 561 75 517 q 222 629 153 606 q 366 653 291 653 q 508 615 456 653 q 576 532 561 576 q 586 401 586 503 l 586 155 q 589 100 586 111 q 600 83 593 89 q 615 78 606 78 q 651 103 633 78 l 671 87 q 601 14 637 37 q 519 -9 565 -9 q 434 17 465 -9 q 397 94 404 42 m 397 143 l 397 355 q 275 252 315 307 q 248 178 248 216 q 271 123 248 147 q 318 105 288 105 q 397 143 352 105 m 475 928 q 539 902 513 928 q 566 838 566 876 q 539 774 566 801 q 475 748 513 748 q 412 774 438 748 q 385 838 385 801 q 412 902 385 876 q 475 928 438 928 m 222 928 q 286 902 260 928 q 312 838 312 876 q 286 774 312 801 q 222 748 259 748 q 158 774 184 748 q 132 838 132 801 q 158 902 132 876 q 222 928 184 928 z "},"ã":{"ha":694,"x_min":62,"x_max":671,"o":"m 397 94 q 189 -9 281 -9 q 98 27 134 -9 q 62 116 62 62 q 125 247 62 189 q 397 401 187 304 l 397 465 q 389 555 397 536 q 359 588 381 574 q 311 602 338 602 q 238 582 267 602 q 220 553 220 570 q 239 518 220 539 q 265 462 265 489 q 240 405 265 429 q 176 382 216 382 q 104 408 133 382 q 75 468 75 433 q 114 561 75 517 q 222 629 153 606 q 366 653 291 653 q 508 615 456 653 q 576 532 561 576 q 586 401 586 503 l 586 155 q 589 100 586 111 q 600 83 593 89 q 615 78 606 78 q 651 103 633 78 l 671 87 q 601 14 637 37 q 519 -9 565 -9 q 434 17 465 -9 q 397 94 404 42 m 397 143 l 397 355 q 275 252 315 307 q 248 178 248 216 q 271 123 248 147 q 318 105 288 105 q 397 143 352 105 m 528 929 l 564 929 q 564 906 564 916 q 522 786 564 831 q 420 741 480 741 q 310 772 376 741 q 220 804 243 804 q 186 791 200 804 q 168 742 173 777 l 128 742 q 169 880 125 830 q 275 930 212 930 q 309 926 295 930 q 374 899 328 921 q 473 867 444 867 q 502 880 488 867 q 528 929 515 892 z "},"å":{"ha":694,"x_min":62,"x_max":671,"o":"m 397 94 q 189 -9 281 -9 q 98 27 134 -9 q 62 116 62 62 q 125 247 62 189 q 397 401 187 304 l 397 465 q 389 555 397 536 q 359 588 381 574 q 311 602 338 602 q 238 582 267 602 q 220 553 220 570 q 239 518 220 539 q 265 462 265 489 q 240 405 265 429 q 176 382 216 382 q 104 408 133 382 q 75 468 75 433 q 114 561 75 517 q 222 629 153 606 q 366 653 291 653 q 508 615 456 653 q 576 532 561 576 q 586 401 586 503 l 586 155 q 589 100 586 111 q 600 83 593 89 q 615 78 606 78 q 651 103 633 78 l 671 87 q 601 14 637 37 q 519 -9 565 -9 q 434 17 465 -9 q 397 94 404 42 m 397 143 l 397 355 q 275 252 315 307 q 248 178 248 216 q 271 123 248 147 q 318 105 288 105 q 397 143 352 105 m 347 975 q 448 933 406 975 q 489 833 489 892 q 447 732 489 774 q 347 690 406 690 q 247 732 288 690 q 205 833 205 774 q 246 933 205 892 q 347 975 288 975 m 347 922 q 283 896 309 922 q 257 833 257 870 q 283 769 257 795 q 347 743 310 743 q 410 769 384 743 q 437 833 437 795 q 411 896 437 870 q 347 922 385 922 z "},"ç":{"ha":616,"x_min":53,"x_max":585,"o":"m 564 163 l 585 147 q 474 22 541 63 q 332 -19 407 -19 q 129 77 205 -19 q 53 307 53 172 q 122 534 53 436 q 352 653 205 653 q 508 604 450 653 q 566 493 566 554 q 543 431 566 454 q 481 408 519 408 q 415 435 441 408 q 383 529 389 461 q 363 589 379 572 q 327 606 348 606 q 271 571 294 606 q 236 411 236 519 q 264 240 236 321 q 342 118 293 158 q 431 89 380 89 q 494 104 464 89 q 564 163 524 120 m 326 8 l 370 8 l 338 -41 q 400 -74 379 -48 q 422 -140 422 -100 q 401 -204 422 -175 q 347 -245 380 -233 q 191 -261 296 -262 l 191 -229 q 283 -207 259 -227 q 307 -154 307 -188 q 291 -120 307 -134 q 245 -106 275 -106 l 326 8 z "},"é":{"ha":616,"x_min":54,"x_max":584,"o":"m 584 340 l 236 340 q 303 140 242 214 q 416 84 350 84 q 490 107 456 84 q 561 189 523 130 l 584 174 q 470 25 532 68 q 326 -19 408 -19 q 112 90 184 -19 q 54 307 54 177 q 139 559 54 465 q 340 653 225 653 q 508 574 437 653 q 584 340 578 495 m 417 385 q 405 535 417 494 q 368 597 393 576 q 330 609 354 609 q 273 574 295 609 q 233 409 233 514 l 233 385 l 417 385 m 517 951 l 292 715 l 234 715 l 313 951 l 517 951 z "},"è":{"ha":616,"x_min":54,"x_max":584,"o":"m 584 340 l 236 340 q 303 140 242 214 q 416 84 350 84 q 490 107 456 84 q 561 189 523 130 l 584 174 q 470 25 532 68 q 326 -19 408 -19 q 112 90 184 -19 q 54 307 54 177 q 139 559 54 465 q 340 653 225 653 q 508 574 437 653 q 584 340 578 495 m 417 385 q 405 535 417 494 q 368 597 393 576 q 330 609 354 609 q 273 574 295 609 q 233 409 233 514 l 233 385 l 417 385 m 132 951 l 336 951 l 415 715 l 357 715 l 132 951 z "},"ê":{"ha":616,"x_min":54,"x_max":584,"o":"m 584 340 l 236 340 q 303 140 242 214 q 416 84 350 84 q 490 107 456 84 q 561 189 523 130 l 584 174 q 470 25 532 68 q 326 -19 408 -19 q 112 90 184 -19 q 54 307 54 177 q 139 559 54 465 q 340 653 225 653 q 508 574 437 653 q 584 340 578 495 m 417 385 q 405 535 417 494 q 368 597 393 576 q 330 609 354 609 q 273 574 295 609 q 233 409 233 514 l 233 385 l 417 385 m 390 968 l 528 709 l 475 709 l 314 848 l 148 713 l 92 713 l 237 968 l 390 968 z "},"ë":{"ha":616,"x_min":54,"x_max":584,"o":"m 584 340 l 236 340 q 303 140 242 214 q 416 84 350 84 q 490 107 456 84 q 561 189 523 130 l 584 174 q 470 25 532 68 q 326 -19 408 -19 q 112 90 184 -19 q 54 307 54 177 q 139 559 54 465 q 340 653 225 653 q 508 574 437 653 q 584 340 578 495 m 417 385 q 405 535 417 494 q 368 597 393 576 q 330 609 354 609 q 273 574 295 609 q 233 409 233 514 l 233 385 l 417 385 m 456 928 q 520 902 494 928 q 546 838 546 876 q 519 774 546 801 q 456 748 493 748 q 392 774 418 748 q 366 838 366 801 q 392 902 366 876 q 456 928 418 928 m 202 928 q 266 902 240 928 q 292 838 292 876 q 266 774 292 801 q 202 748 239 748 q 138 774 165 748 q 112 838 112 801 q 138 902 112 876 q 202 928 165 928 z "},"í":{"ha":386,"x_min":28,"x_max":401,"o":"m 294 634 l 294 132 q 310 46 294 64 q 371 24 326 27 l 371 0 l 28 0 l 28 24 q 91 49 71 26 q 104 132 104 64 l 104 502 q 89 588 104 569 q 28 609 73 606 l 28 634 l 294 634 m 401 951 l 177 715 l 119 715 l 197 951 l 401 951 z "},"ì":{"ha":386,"x_min":-10,"x_max":371,"o":"m 294 634 l 294 132 q 310 46 294 64 q 371 24 326 27 l 371 0 l 28 0 l 28 24 q 91 49 71 26 q 104 132 104 64 l 104 502 q 89 588 104 569 q 28 609 73 606 l 28 634 l 294 634 m -10 951 l 194 951 l 273 715 l 215 715 l -10 951 z "},"î":{"ha":386,"x_min":-24,"x_max":412,"o":"m 294 634 l 294 132 q 310 46 294 64 q 371 24 326 27 l 371 0 l 28 0 l 28 24 q 91 49 71 26 q 104 132 104 64 l 104 502 q 89 588 104 569 q 28 609 73 606 l 28 634 l 294 634 m 274 968 l 412 709 l 359 709 l 198 848 l 32 713 l -24 713 l 121 968 l 274 968 z "},"ï":{"ha":386,"x_min":-20,"x_max":414,"o":"m 294 634 l 294 132 q 310 46 294 64 q 371 24 326 27 l 371 0 l 28 0 l 28 24 q 91 49 71 26 q 104 132 104 64 l 104 502 q 89 588 104 569 q 28 609 73 606 l 28 634 l 294 634 m 323 928 q 388 902 361 928 q 414 838 414 876 q 387 774 414 801 q 323 748 361 748 q 260 774 286 748 q 233 838 233 801 q 260 902 233 876 q 323 928 286 928 m 70 928 q 134 902 108 928 q 160 838 160 876 q 134 774 160 801 q 70 748 107 748 q 6 774 33 748 q -20 838 -20 801 q 6 902 -20 876 q 70 928 33 928 z "},"ñ":{"ha":772,"x_min":47,"x_max":732,"o":"m 306 634 l 306 552 q 399 629 355 605 q 496 653 444 653 q 598 619 557 653 q 652 534 639 585 q 663 385 663 495 l 663 138 q 676 47 663 65 q 732 24 690 29 l 732 0 l 411 0 l 411 24 q 463 54 447 29 q 473 138 473 71 l 473 420 q 467 519 473 498 q 447 550 461 539 q 414 562 432 562 q 306 478 356 562 l 306 138 q 319 48 306 67 q 368 24 332 29 l 368 0 l 47 0 l 47 24 q 104 50 87 28 q 116 138 116 65 l 116 496 q 103 586 116 568 q 47 609 90 604 l 47 634 l 306 634 m 564 929 l 600 929 q 600 906 600 916 q 558 786 600 831 q 456 741 516 741 q 346 772 412 741 q 256 804 279 804 q 222 791 236 804 q 203 742 209 777 l 164 742 q 204 880 161 830 q 311 930 248 930 q 345 926 331 930 q 410 899 363 921 q 509 867 479 867 q 538 880 524 867 q 564 929 551 892 z "},"ó":{"ha":694,"x_min":50,"x_max":645,"o":"m 346 653 q 500 610 429 653 q 608 489 571 568 q 645 317 645 410 q 576 91 645 182 q 348 -19 494 -19 q 127 81 205 -19 q 50 314 50 182 q 129 552 50 450 q 346 653 208 653 m 349 605 q 289 579 314 605 q 257 476 264 553 q 249 262 249 399 q 258 126 249 189 q 290 53 266 78 q 346 28 315 28 q 397 45 376 28 q 432 109 423 68 q 446 370 446 174 q 433 528 446 485 q 395 591 420 571 q 349 605 377 605 m 553 951 l 328 715 l 270 715 l 349 951 l 553 951 z "},"ò":{"ha":694,"x_min":50,"x_max":645,"o":"m 346 653 q 500 610 429 653 q 608 489 571 568 q 645 317 645 410 q 576 91 645 182 q 348 -19 494 -19 q 127 81 205 -19 q 50 314 50 182 q 129 552 50 450 q 346 653 208 653 m 349 605 q 289 579 314 605 q 257 476 264 553 q 249 262 249 399 q 258 126 249 189 q 290 53 266 78 q 346 28 315 28 q 397 45 376 28 q 432 109 423 68 q 446 370 446 174 q 433 528 446 485 q 395 591 420 571 q 349 605 377 605 m 140 951 l 345 951 l 423 715 l 366 715 l 140 951 z "},"ô":{"ha":694,"x_min":50,"x_max":645,"o":"m 346 653 q 500 610 429 653 q 608 489 571 568 q 645 317 645 410 q 576 91 645 182 q 348 -19 494 -19 q 127 81 205 -19 q 50 314 50 182 q 129 552 50 450 q 346 653 208 653 m 349 605 q 289 579 314 605 q 257 476 264 553 q 249 262 249 399 q 258 126 249 189 q 290 53 266 78 q 346 28 315 28 q 397 45 376 28 q 432 109 423 68 q 446 370 446 174 q 433 528 446 485 q 395 591 420 571 q 349 605 377 605 m 425 968 l 563 709 l 511 709 l 349 848 l 183 713 l 127 713 l 272 968 l 425 968 z "},"ö":{"ha":694,"x_min":50,"x_max":645,"o":"m 346 653 q 500 610 429 653 q 608 489 571 568 q 645 317 645 410 q 576 91 645 182 q 348 -19 494 -19 q 127 81 205 -19 q 50 314 50 182 q 129 552 50 450 q 346 653 208 653 m 349 605 q 289 579 314 605 q 257 476 264 553 q 249 262 249 399 q 258 126 249 189 q 290 53 266 78 q 346 28 315 28 q 397 45 376 28 q 432 109 423 68 q 446 370 446 174 q 433 528 446 485 q 395 591 420 571 q 349 605 377 605 m 475 928 q 539 902 513 928 q 565 838 565 876 q 538 774 565 801 q 475 748 512 748 q 411 774 437 748 q 385 838 385 801 q 411 902 385 876 q 475 928 437 928 m 221 928 q 285 902 259 928 q 311 838 311 876 q 285 774 311 801 q 221 748 258 748 q 157 774 184 748 q 131 838 131 801 q 157 902 131 876 q 221 928 184 928 z "},"õ":{"ha":694,"x_min":50,"x_max":645,"o":"m 346 653 q 500 610 429 653 q 608 489 571 568 q 645 317 645 410 q 576 91 645 182 q 348 -19 494 -19 q 127 81 205 -19 q 50 314 50 182 q 129 552 50 450 q 346 653 208 653 m 349 605 q 289 579 314 605 q 257 476 264 553 q 249 262 249 399 q 258 126 249 189 q 290 53 266 78 q 346 28 315 28 q 397 45 376 28 q 432 109 423 68 q 446 370 446 174 q 433 528 446 485 q 395 591 420 571 q 349 605 377 605 m 527 929 l 563 929 q 564 906 564 916 q 522 786 564 831 q 420 741 479 741 q 309 772 376 741 q 220 804 242 804 q 186 791 199 804 q 167 742 172 777 l 127 742 q 168 880 125 830 q 274 930 211 930 q 308 926 294 930 q 373 899 327 921 q 473 867 443 867 q 501 880 488 867 q 527 929 515 892 z "},"ú":{"ha":772,"x_min":43,"x_max":728,"o":"m 659 634 l 659 138 q 673 47 659 65 q 728 24 686 29 l 728 0 l 469 0 l 469 85 q 378 6 424 31 q 277 -19 333 -19 q 181 14 223 -19 q 125 91 140 47 q 111 245 111 135 l 111 496 q 98 586 111 568 q 43 609 85 604 l 43 634 l 301 634 l 301 201 q 308 113 301 133 q 328 83 314 94 q 360 73 342 73 q 404 86 385 73 q 469 157 431 104 l 469 496 q 456 586 469 568 q 401 609 443 604 l 401 634 l 659 634 m 589 951 l 365 715 l 307 715 l 385 951 l 589 951 z "},"ù":{"ha":772,"x_min":43,"x_max":728,"o":"m 659 634 l 659 138 q 673 47 659 65 q 728 24 686 29 l 728 0 l 469 0 l 469 85 q 378 6 424 31 q 277 -19 333 -19 q 181 14 223 -19 q 125 91 140 47 q 111 245 111 135 l 111 496 q 98 586 111 568 q 43 609 85 604 l 43 634 l 301 634 l 301 201 q 308 113 301 133 q 328 83 314 94 q 360 73 342 73 q 404 86 385 73 q 469 157 431 104 l 469 496 q 456 586 469 568 q 401 609 443 604 l 401 634 l 659 634 m 176 951 l 380 951 l 458 715 l 401 715 l 176 951 z "},"û":{"ha":772,"x_min":43,"x_max":728,"o":"m 659 634 l 659 138 q 673 47 659 65 q 728 24 686 29 l 728 0 l 469 0 l 469 85 q 378 6 424 31 q 277 -19 333 -19 q 181 14 223 -19 q 125 91 140 47 q 111 245 111 135 l 111 496 q 98 586 111 568 q 43 609 85 604 l 43 634 l 301 634 l 301 201 q 308 113 301 133 q 328 83 314 94 q 360 73 342 73 q 404 86 385 73 q 469 157 431 104 l 469 496 q 456 586 469 568 q 401 609 443 604 l 401 634 l 659 634 m 463 968 l 600 709 l 548 709 l 387 848 l 220 713 l 165 713 l 309 968 l 463 968 z "},"ü":{"ha":772,"x_min":43,"x_max":728,"o":"m 659 634 l 659 138 q 673 47 659 65 q 728 24 686 29 l 728 0 l 469 0 l 469 85 q 378 6 424 31 q 277 -19 333 -19 q 181 14 223 -19 q 125 91 140 47 q 111 245 111 135 l 111 496 q 98 586 111 568 q 43 609 85 604 l 43 634 l 301 634 l 301 201 q 308 113 301 133 q 328 83 314 94 q 360 73 342 73 q 404 86 385 73 q 469 157 431 104 l 469 496 q 456 586 469 568 q 401 609 443 604 l 401 634 l 659 634 m 512 928 q 576 902 550 928 q 602 838 602 876 q 576 774 602 801 q 512 748 549 748 q 448 774 475 748 q 422 838 422 801 q 448 902 422 876 q 512 928 475 928 m 258 928 q 322 902 296 928 q 349 838 349 876 q 322 774 349 801 q 258 748 296 748 q 195 774 221 748 q 168 838 168 801 q 195 902 168 876 q 258 928 221 928 z "},"†":{"ha":694,"x_min":67,"x_max":627,"o":"m 361 -272 l 328 -272 l 328 -211 q 304 210 328 47 q 256 406 290 311 q 306 470 290 435 q 328 562 323 506 q 282 553 298 559 q 217 522 259 546 q 149 498 176 498 q 91 522 115 498 q 67 578 67 545 q 91 633 67 611 q 146 656 114 656 q 227 627 173 656 q 328 592 280 599 q 292 720 323 652 q 266 784 271 765 q 260 823 260 803 q 286 893 260 866 q 345 920 311 920 q 406 894 380 920 q 431 823 431 868 q 426 781 431 800 q 400 721 420 762 q 371 650 380 681 q 361 592 365 629 q 412 601 393 595 q 474 633 431 608 q 511 652 504 650 q 543 656 526 656 q 603 633 579 656 q 627 576 627 610 q 603 522 627 544 q 547 499 580 499 q 512 505 529 499 q 456 533 502 508 q 361 562 411 558 q 435 406 372 459 q 380 178 394 286 q 361 -211 361 40 l 361 -272 z "},"°":{"ha":555,"x_min":40,"x_max":509,"o":"m 275 939 q 390 908 334 939 q 478 822 446 878 q 509 704 509 765 q 440 538 509 607 q 275 469 372 469 q 109 538 178 469 q 40 704 40 607 q 72 822 40 765 q 159 908 103 878 q 275 939 216 939 m 275 850 q 171 808 214 850 q 129 705 129 765 q 172 602 129 644 q 275 559 214 559 q 378 602 335 559 q 420 705 420 644 q 378 808 420 765 q 275 850 335 850 z "},"¢":{"ha":694,"x_min":87,"x_max":618,"o":"m 597 165 l 618 149 q 359 -19 528 -19 q 245 10 300 -19 l 141 -256 l 94 -256 l 205 37 q 117 156 146 85 q 87 309 87 227 q 168 550 87 449 q 375 650 249 650 q 439 648 401 650 l 541 914 l 589 914 l 482 634 q 571 573 543 611 q 599 493 599 536 q 576 432 599 455 q 516 408 553 408 q 459 425 482 408 q 423 479 437 441 l 315 196 q 381 115 346 141 q 461 90 416 90 q 597 165 536 90 m 408 569 q 359 606 387 606 q 304 571 328 606 q 269 423 269 520 q 291 260 269 353 l 408 569 z "},"£":{"ha":694,"x_min":24,"x_max":666,"o":"m 362 531 l 511 531 l 511 428 l 371 428 q 372 376 372 393 q 339 176 372 277 q 412 164 375 168 q 487 160 449 160 q 597 182 559 160 q 638 234 625 198 l 666 234 q 606 47 666 114 q 457 -19 546 -19 q 378 -3 415 -19 q 286 60 342 13 q 229 3 256 20 q 147 -19 191 -19 q 58 15 93 -19 q 24 94 24 49 q 62 179 24 142 q 167 215 100 215 q 199 212 182 215 q 235 203 216 210 q 224 275 231 245 l 176 428 l 28 428 l 28 531 l 154 531 q 144 647 144 606 q 207 842 144 757 q 404 944 283 944 q 551 891 492 944 q 610 777 610 839 q 586 709 610 734 q 522 683 561 683 q 455 709 480 683 q 431 777 431 734 q 432 811 431 783 q 433 834 433 824 q 418 883 433 867 q 378 899 404 899 q 338 879 354 899 q 321 817 321 859 q 339 677 321 768 q 362 531 357 586 m 226 111 q 182 137 199 130 q 145 143 165 143 q 96 127 113 143 q 78 89 78 111 q 95 52 78 68 q 136 37 112 37 q 186 54 162 37 q 226 111 210 71 z "},"§":{"ha":694,"x_min":62,"x_max":632,"o":"m 208 547 q 128 640 152 597 q 104 731 104 683 q 174 877 104 814 q 353 941 243 941 q 518 889 456 941 q 581 777 581 837 q 559 717 581 740 q 503 694 537 694 q 449 715 470 694 q 428 765 428 736 q 432 798 428 778 q 436 831 436 818 q 415 877 436 858 q 352 895 393 895 q 267 863 301 895 q 232 794 232 831 q 260 715 232 751 q 388 614 287 678 q 632 311 632 463 q 600 200 632 251 q 486 94 567 150 q 567 -5 546 37 q 589 -96 589 -47 q 559 -199 589 -153 q 473 -273 530 -245 q 340 -300 415 -300 q 175 -250 233 -300 q 117 -136 117 -201 q 140 -78 117 -102 q 197 -54 163 -54 q 252 -75 230 -54 q 274 -123 274 -97 q 266 -163 274 -139 q 257 -203 257 -187 q 277 -237 257 -221 q 340 -252 298 -252 q 433 -223 400 -252 q 466 -155 466 -194 q 444 -79 466 -109 q 315 20 413 -39 q 120 181 192 96 q 62 315 62 250 q 95 428 62 374 q 208 547 127 483 m 244 517 q 180 400 180 462 q 199 333 180 367 q 266 260 219 298 l 452 122 q 503 183 488 155 q 517 240 517 212 q 502 300 517 272 q 427 382 477 343 q 244 517 404 401 z "},"•":{"ha":486,"x_min":52,"x_max":439,"o":"m 246 652 q 383 596 327 652 q 439 458 439 539 q 383 321 439 378 q 246 264 326 264 q 109 321 165 264 q 52 458 52 378 q 109 596 52 539 q 246 652 165 652 z "},"¶":{"ha":750,"x_min":1,"x_max":752,"o":"m 433 868 l 433 -300 l 366 -300 l 366 291 q 161 333 239 296 q 42 445 83 370 q 1 612 1 519 q 18 727 1 682 q 72 813 35 772 q 147 876 109 854 q 236 907 186 899 q 454 920 301 920 l 752 920 l 752 890 l 722 890 q 662 878 682 890 q 631 842 642 865 q 624 752 624 825 l 624 -300 l 557 -300 l 557 868 l 433 868 z "},"ß":{"ha":772,"x_min":39,"x_max":703,"o":"m 294 0 l 39 0 l 39 24 q 92 50 77 29 q 107 138 107 70 l 107 679 q 140 828 107 774 q 240 911 172 882 q 389 941 308 941 q 597 884 530 941 q 664 739 664 827 q 617 612 664 657 q 503 567 583 581 q 612 522 573 553 q 677 429 652 492 q 703 291 703 366 q 675 130 703 199 q 595 27 647 62 q 483 -7 544 -7 q 384 24 419 -7 q 349 98 349 56 q 367 148 349 130 q 414 166 385 166 q 446 160 434 166 q 468 138 457 154 q 479 119 479 123 l 475 58 q 485 46 475 54 q 508 38 495 38 q 533 52 521 38 q 545 83 545 65 q 520 172 545 100 q 507 218 508 210 q 503 279 503 239 l 503 376 q 495 478 503 453 q 463 519 486 504 q 391 537 440 534 l 391 578 q 448 593 431 578 q 473 640 466 608 q 475 727 475 656 q 460 851 475 821 q 385 895 438 895 q 338 882 357 895 q 304 840 313 864 q 294 732 294 815 l 294 0 z "},"®":{"ha":1038,"x_min":40,"x_max":1002,"o":"m 521 941 q 758 879 642 941 q 938 701 873 817 q 1002 460 1002 585 q 939 220 1002 335 q 760 42 875 106 q 521 -21 646 -21 q 282 42 396 -21 q 104 220 168 106 q 40 460 40 335 q 105 701 40 585 q 285 879 170 817 q 521 941 400 941 m 521 880 q 314 826 415 880 q 157 670 214 772 q 100 460 100 569 q 156 251 100 351 q 312 95 212 151 q 521 39 412 39 q 730 95 630 39 q 886 251 830 151 q 941 460 941 351 q 885 670 941 569 q 728 826 829 772 q 521 880 627 880 m 264 739 l 509 739 q 682 709 633 739 q 750 591 750 667 q 720 505 750 543 q 629 450 690 467 l 722 281 q 764 226 742 244 q 793 214 774 217 l 793 191 l 629 191 l 490 440 l 458 440 l 458 306 q 474 232 458 248 q 540 214 489 216 l 540 191 l 253 191 l 253 214 q 307 228 295 214 q 324 306 324 248 l 324 626 q 312 697 324 682 q 264 716 300 712 l 264 739 m 458 475 q 497 471 481 471 q 573 505 541 471 q 604 593 604 538 q 575 680 604 650 q 484 709 545 709 l 458 709 l 458 475 z "},"©":{"ha":1038,"x_min":40,"x_max":1002,"o":"m 521 941 q 758 879 642 941 q 938 701 873 817 q 1002 460 1002 585 q 939 220 1002 335 q 760 42 875 106 q 521 -21 646 -21 q 282 42 396 -21 q 104 220 168 106 q 40 460 40 335 q 105 701 40 585 q 285 879 170 817 q 521 941 400 941 m 521 880 q 314 826 415 880 q 157 670 214 772 q 100 460 100 569 q 156 251 100 351 q 312 95 212 151 q 521 39 412 39 q 730 95 630 39 q 886 251 830 151 q 941 460 941 351 q 885 670 941 569 q 728 826 829 772 q 521 880 627 880 m 748 750 l 748 571 l 722 571 q 663 679 709 640 q 555 718 617 718 q 431 658 481 718 q 380 471 380 599 q 430 275 380 334 q 552 217 479 217 q 729 311 652 217 l 729 263 q 513 177 647 177 q 307 254 386 177 q 228 453 228 331 q 313 667 228 583 q 526 751 397 751 q 660 724 585 751 q 691 715 682 715 q 712 724 703 715 q 722 750 720 732 l 748 750 z "},"™":{"ha":1389,"x_min":-2,"x_max":1396,"o":"m -2 920 l 525 920 l 525 766 l 501 766 q 468 855 498 826 q 370 884 437 884 l 344 884 l 344 486 q 356 414 344 429 q 414 395 371 395 l 414 372 l 106 372 l 106 395 q 156 404 146 398 q 171 423 165 409 q 176 488 176 437 l 176 884 l 152 884 q 56 857 87 884 q 20 766 25 829 l -2 766 l -2 920 m 600 920 l 849 920 l 1006 584 l 1161 920 l 1396 920 l 1396 894 q 1352 887 1364 894 q 1334 867 1339 880 q 1328 803 1328 853 l 1328 483 q 1338 418 1328 431 q 1396 395 1354 398 l 1396 372 l 1084 372 l 1084 395 q 1147 412 1133 397 q 1161 483 1161 427 l 1161 826 l 944 372 l 928 372 l 712 826 l 712 486 q 716 429 712 439 q 737 405 722 414 q 790 395 753 396 l 790 372 l 600 372 l 600 395 q 650 404 638 397 q 668 425 663 410 q 674 487 674 439 l 674 804 q 668 866 674 852 q 649 887 661 880 q 600 894 637 894 l 600 920 z "},"´":{"ha":463,"x_min":155,"x_max":437,"o":"m 437 951 l 213 715 l 155 715 l 233 951 l 437 951 z "},"¨":{"ha":463,"x_min":15,"x_max":449,"o":"m 359 928 q 423 901 397 928 q 449 838 449 875 q 422 774 449 800 q 359 747 396 747 q 295 774 321 747 q 269 838 269 800 q 295 901 269 875 q 359 928 321 928 m 105 928 q 169 901 143 928 q 195 838 195 875 q 169 774 195 800 q 105 747 142 747 q 41 774 68 747 q 15 838 15 800 q 41 901 15 875 q 105 928 68 928 z "},"≠":{"ha":762,"x_min":10,"x_max":752,"o":"m 10 585 l 417 585 l 558 943 l 649 943 l 510 585 l 752 585 l 752 479 l 469 479 l 385 265 l 752 265 l 752 159 l 344 159 l 203 -198 l 111 -198 l 252 159 l 10 159 l 10 265 l 293 265 l 376 479 l 10 479 l 10 585 z "},"Æ":{"ha":1389,"x_min":-16,"x_max":1326,"o":"m 1261 920 l 1261 647 l 1235 647 q 1183 783 1217 736 q 1099 848 1149 829 q 936 866 1048 866 l 864 866 l 864 494 l 888 494 q 994 539 952 494 q 1053 709 1036 584 l 1076 709 l 1076 228 l 1053 228 q 1016 364 1043 309 q 964 424 998 401 q 888 446 930 446 l 864 446 l 864 165 q 867 93 864 106 q 891 61 873 72 q 966 50 909 50 l 1020 50 q 1146 81 1086 50 q 1241 159 1207 112 q 1301 290 1275 205 l 1326 290 l 1284 0 l 477 0 l 477 25 l 529 25 q 611 41 589 25 q 640 83 633 57 q 643 161 643 94 l 643 395 l 345 395 l 216 189 q 180 127 185 140 q 173 90 173 108 q 197 45 173 64 q 283 25 221 26 l 283 0 l -16 0 l -16 25 q 52 52 21 29 q 132 153 83 75 l 504 745 q 550 837 550 819 q 539 868 550 853 q 510 888 529 882 q 427 895 491 895 l 427 920 l 1261 920 m 643 446 l 643 866 l 376 446 l 643 446 z "},"Ø":{"ha":1080,"x_min":55,"x_max":1030,"o":"m 990 930 l 886 809 q 1030 461 1030 668 q 965 209 1030 322 q 783 37 899 96 q 547 -21 667 -21 q 392 2 475 -21 q 243 69 309 25 l 137 -52 l 100 -19 l 205 102 q 93 267 132 171 q 55 463 55 362 q 118 706 55 593 q 296 880 182 819 q 545 941 411 941 q 847 842 721 941 l 951 963 l 990 930 m 747 727 q 670 845 711 813 q 543 888 616 888 q 378 803 441 888 q 300 452 300 698 q 323 237 300 345 l 747 727 m 342 182 q 428 63 382 97 q 543 29 474 29 q 670 72 616 29 q 758 227 723 115 q 785 446 785 309 q 780 571 785 521 q 765 669 777 607 l 342 182 z "},"∞":{"ha":990,"x_min":36,"x_max":954,"o":"m 443 452 q 544 600 489 559 q 694 640 599 640 q 878 562 803 640 q 954 357 954 483 q 880 153 954 233 q 717 73 807 73 q 592 122 650 73 q 488 267 554 155 q 393 145 445 182 q 269 109 342 109 q 103 178 171 109 q 36 359 36 248 q 98 539 36 471 q 244 608 161 608 q 347 577 302 608 q 443 452 392 547 m 508 315 q 608 173 559 209 q 720 136 658 136 q 859 196 803 136 q 915 357 915 256 q 856 522 915 457 q 724 587 797 587 q 642 564 677 587 q 578 488 607 540 q 508 315 562 457 m 423 400 q 347 510 390 475 q 242 545 304 545 q 122 495 170 545 q 73 359 73 444 q 121 215 73 269 q 229 161 169 161 q 343 219 294 161 q 423 400 375 257 z "},"±":{"ha":762,"x_min":10,"x_max":752,"o":"m 11 505 l 337 505 l 337 830 l 426 830 l 426 505 l 752 505 l 752 415 l 426 415 l 427 182 l 752 182 l 752 92 l 11 92 l 10 181 l 337 181 l 337 415 l 11 415 l 11 505 z "},"≤":{"ha":762,"x_min":9,"x_max":753,"o":"m 752 149 l 10 461 l 10 557 l 752 869 l 752 753 l 154 509 l 752 265 l 752 149 m 9 -20 l 753 -20 l 753 -125 l 9 -125 l 9 -20 z "},"≥":{"ha":762,"x_min":9,"x_max":753,"o":"m 10 869 l 752 557 l 752 461 l 10 149 l 10 264 l 608 509 l 10 753 l 10 869 m 9 -20 l 753 -20 l 753 -125 l 9 -125 l 9 -20 z "},"¥":{"ha":694,"x_min":0,"x_max":693,"o":"m 475 418 l 693 418 l 693 367 l 457 367 l 448 340 l 448 248 l 693 248 l 693 196 l 448 196 l 448 166 q 454 86 448 104 q 485 41 463 56 q 558 25 507 25 l 583 25 l 583 0 l 101 0 l 101 25 l 124 25 q 206 39 180 25 q 240 74 231 52 q 250 169 250 96 l 250 196 l 0 196 l 0 248 l 250 248 l 250 340 l 240 367 l 0 367 l 0 418 l 222 418 l 98 764 q 43 871 68 846 q 0 890 28 887 l 0 920 l 334 920 l 334 890 q 280 880 293 889 q 267 859 267 870 q 287 790 267 844 l 422 418 l 533 741 q 559 850 559 819 q 548 879 559 870 q 494 890 536 888 l 494 920 l 693 920 l 693 890 q 641 857 662 881 q 592 755 619 833 l 475 418 z "},"µ":{"ha":800,"x_min":54,"x_max":777,"o":"m 103 634 l 292 634 l 292 163 q 307 92 292 110 q 349 74 321 74 q 461 156 410 74 l 461 634 l 649 634 l 649 210 l 650 174 q 663 101 650 119 q 696 83 676 83 q 724 100 711 83 q 747 181 742 124 l 777 181 q 724 33 774 85 q 602 -19 674 -19 q 518 7 553 -19 q 466 87 483 33 q 368 6 415 31 q 269 -19 321 -19 q 221 -12 241 -19 q 168 19 201 -5 q 171 -46 168 -22 q 191 -129 175 -71 q 208 -210 208 -186 q 185 -275 208 -252 q 127 -299 163 -299 q 73 -278 93 -299 q 54 -220 54 -258 q 70 -126 54 -190 q 97 8 92 -41 q 103 176 103 57 l 103 634 z "},"∂":{"ha":686,"x_min":50,"x_max":655,"o":"m 248 780 l 220 780 q 316 926 255 879 q 456 972 378 972 q 607 903 559 972 q 655 706 655 834 q 583 285 655 462 q 422 37 511 109 q 264 -16 356 -16 q 150 11 199 -16 q 76 91 101 38 q 50 199 50 143 q 92 370 50 287 q 195 513 134 453 q 320 603 256 573 q 448 633 385 633 q 608 532 559 633 q 614 618 614 587 q 535 798 614 734 q 401 837 487 837 q 312 823 347 837 q 248 780 278 810 m 597 469 q 537 569 574 538 q 452 599 499 599 q 360 557 405 599 q 263 380 302 503 q 224 144 224 256 q 244 54 224 78 q 304 30 264 30 q 440 109 372 30 q 597 469 553 241 z "},"∑":{"ha":990,"x_min":29,"x_max":963,"o":"m 920 -300 l 29 -300 l 29 -275 l 483 336 l 29 938 l 29 963 l 896 963 l 914 734 l 887 734 q 834 868 876 828 q 718 908 793 908 l 216 908 l 597 395 l 171 -180 l 726 -180 q 829 -161 773 -180 q 893 -116 868 -149 q 936 -13 919 -83 l 963 -18 l 920 -300 z "},"∏":{"ha":1143,"x_min":31,"x_max":1112,"o":"m 841 910 l 302 910 l 302 -169 q 327 -250 302 -225 q 412 -274 352 -274 l 436 -274 l 436 -300 l 31 -300 l 31 -274 l 55 -274 q 140 -250 115 -274 q 165 -169 165 -226 l 165 833 q 140 913 165 889 q 55 938 115 938 l 31 938 l 31 963 l 1112 963 l 1112 938 l 1088 938 q 1004 913 1029 938 q 979 833 979 889 l 979 -169 q 1004 -250 979 -225 q 1088 -274 1029 -274 l 1112 -274 l 1112 -300 l 707 -300 l 707 -274 l 731 -274 q 816 -250 791 -274 q 841 -169 841 -226 l 841 910 z "},"∫":{"ha":380,"x_min":-2,"x_max":378,"o":"m 134 607 l 146 1001 q 180 1174 151 1105 q 230 1241 198 1219 q 293 1263 262 1263 q 352 1241 327 1263 q 378 1191 378 1218 q 360 1140 378 1159 q 315 1120 342 1120 q 264 1145 292 1120 q 237 1158 248 1158 q 217 1148 225 1158 q 210 1115 210 1139 q 216 1017 210 1087 q 241 567 241 738 q 230 167 241 519 q 169 -104 224 -33 q 78 -149 132 -149 q 20 -126 43 -149 q -2 -67 -2 -103 q 15 -18 -2 -37 q 59 0 33 0 q 106 -22 86 0 q 139 -43 125 -43 q 158 -34 151 -43 q 165 -2 165 -24 q 159 79 165 26 q 142 309 148 176 q 134 607 134 477 z "},"ª":{"ha":416,"x_min":31,"x_max":427,"o":"m 248 603 q 114 541 174 541 q 54 563 77 541 q 31 618 31 585 q 60 684 31 653 q 248 787 98 724 l 248 825 q 243 879 248 868 q 225 899 239 890 q 191 908 211 908 q 144 895 163 908 q 134 879 134 888 q 146 858 134 871 q 163 825 163 840 q 147 790 163 804 q 105 776 132 776 q 58 792 76 776 q 40 829 40 808 q 80 897 40 867 q 222 939 136 939 q 315 919 278 939 q 361 876 351 900 q 372 787 372 852 l 372 640 q 374 607 372 613 q 380 597 376 600 q 391 593 385 593 q 414 608 402 593 l 427 599 q 328 541 385 541 q 272 556 292 541 q 248 603 253 572 m 248 633 l 248 760 q 169 697 195 731 q 152 655 152 676 q 164 623 152 636 q 197 610 177 610 q 248 633 220 610 z "},"º":{"ha":458,"x_min":38,"x_max":425,"o":"m 230 939 q 370 883 315 939 q 425 737 425 827 q 371 591 425 646 q 232 535 317 535 q 92 591 146 535 q 38 735 38 647 q 93 882 38 825 q 230 939 147 939 m 233 909 q 196 897 212 909 q 176 860 181 885 q 167 701 167 819 q 185 589 167 616 q 231 563 203 563 q 266 576 251 563 q 286 612 281 589 q 295 766 295 651 q 278 884 295 859 q 233 909 261 909 z "},"Ω":{"ha":1067,"x_min":6,"x_max":1064,"o":"m 484 139 l 485 0 l 58 0 l 6 244 l 91 244 q 115 169 105 181 q 195 143 136 143 l 246 143 q 359 135 299 143 l 350 153 q 229 189 275 164 q 145 258 182 213 q 83 380 109 302 q 58 547 58 458 q 120 806 58 694 q 290 974 181 918 q 527 1029 398 1029 q 792 967 681 1029 q 958 792 904 905 q 1012 552 1012 680 q 986 378 1012 460 q 914 245 960 296 q 837 185 880 206 q 720 153 794 164 l 712 135 q 824 143 776 143 l 876 143 q 946 159 927 143 q 979 244 965 176 l 1064 244 l 1013 0 l 586 0 l 586 139 q 671 186 643 162 q 723 258 699 211 q 765 390 747 304 q 783 576 783 475 q 710 888 783 794 q 538 982 638 982 q 369 899 433 982 q 288 583 288 795 q 315 351 288 452 q 383 203 342 250 q 484 139 414 168 z "},"æ":{"ha":1003,"x_min":61,"x_max":963,"o":"m 963 338 l 597 338 q 664 141 611 200 q 781 82 716 82 q 941 186 877 82 l 963 170 q 841 21 903 62 q 682 -19 779 -19 q 553 14 610 -19 q 473 90 510 39 q 335 8 401 36 q 206 -19 268 -19 q 100 18 140 -19 q 61 103 61 54 q 117 226 61 163 q 415 398 173 289 l 415 450 q 406 542 415 517 q 369 583 397 566 q 305 600 341 600 q 237 578 265 600 q 217 546 217 563 q 220 536 217 541 q 239 514 222 532 q 264 458 264 489 q 241 407 264 427 q 170 379 209 379 q 104 406 132 379 q 76 470 76 433 q 163 599 76 545 q 348 653 250 653 q 472 627 416 653 q 538 575 505 612 q 616 635 577 616 q 709 653 655 653 q 887 577 819 653 q 963 338 956 501 m 797 383 q 798 416 798 406 q 763 573 798 524 q 702 606 740 606 q 661 593 679 606 q 616 524 632 569 q 595 383 595 465 l 797 383 m 415 356 q 280 251 312 288 q 248 166 248 214 q 274 110 248 134 q 334 85 299 85 q 387 96 357 85 q 454 126 417 106 q 424 218 433 170 q 415 356 415 267 z "},"ø":{"ha":694,"x_min":46,"x_max":649,"o":"m 649 641 l 572 552 q 631 450 616 492 q 649 321 649 395 q 613 143 649 224 q 507 22 576 63 q 355 -19 437 -19 q 250 0 296 -19 q 151 64 204 18 l 78 -19 l 46 11 l 121 99 q 74 196 87 154 q 58 315 58 251 q 136 552 58 450 q 355 653 214 653 q 454 637 412 653 q 541 584 496 621 l 616 671 l 649 641 m 446 475 q 416 577 439 549 q 360 605 392 605 q 316 595 332 605 q 280 548 294 580 q 262 429 267 515 q 260 254 261 406 l 446 475 m 260 189 q 290 63 263 97 q 352 29 316 29 q 399 43 382 29 q 435 103 423 62 q 452 274 452 158 q 450 410 452 281 l 260 189 z "},"¿":{"ha":694,"x_min":78,"x_max":610,"o":"m 372 659 q 450 627 418 659 q 481 550 481 595 q 449 473 481 505 q 372 441 417 441 q 295 473 327 441 q 262 550 262 505 q 294 627 262 595 q 372 659 326 659 m 365 341 l 393 341 q 385 229 394 267 q 341 126 376 192 q 295 21 306 61 q 283 -77 283 -18 q 319 -210 283 -167 q 402 -252 354 -252 q 464 -233 439 -252 q 483 -201 483 -218 q 470 -168 483 -191 q 441 -78 441 -115 q 464 -22 441 -45 q 520 0 486 0 q 584 -27 557 0 q 610 -98 610 -54 q 541 -239 610 -178 q 347 -300 471 -300 q 147 -237 216 -300 q 78 -85 78 -174 q 113 34 78 -20 q 250 155 148 88 q 338 235 317 200 q 365 341 359 270 z "},"¡":{"ha":463,"x_min":119,"x_max":345,"o":"m 231 660 q 309 628 277 660 q 340 549 340 595 q 308 472 340 504 q 231 439 276 439 q 153 472 185 439 q 121 549 121 504 q 153 628 121 595 q 231 660 185 660 m 216 342 l 247 342 q 277 155 251 265 l 313 7 q 345 -183 345 -125 q 313 -268 345 -235 q 232 -300 282 -300 q 151 -267 183 -300 q 119 -185 119 -235 q 153 7 119 -134 l 189 155 q 216 342 208 234 z "},"¬":{"ha":791,"x_min":28,"x_max":770,"o":"m 28 612 l 770 612 l 770 303 l 682 303 l 682 526 l 28 525 l 28 612 z "},"√":{"ha":762,"x_min":59,"x_max":764,"o":"m 714 1267 l 764 1267 l 553 -53 l 216 640 l 82 578 l 59 621 l 263 724 l 538 165 l 714 1267 z "},"ƒ":{"ha":694,"x_min":-1,"x_max":695,"o":"m 482 532 l 414 193 q 331 -119 367 -37 q 233 -250 295 -201 q 105 -300 171 -300 q 27 -276 55 -300 q -1 -221 -1 -252 q 20 -174 -1 -195 q 69 -154 40 -154 q 117 -171 98 -154 q 132 -207 132 -184 q 130 -223 132 -216 q 123 -243 123 -239 q 129 -254 123 -249 q 143 -258 134 -258 q 179 -237 162 -258 q 195 -175 195 -216 q 191 -106 195 -157 q 189 -50 189 -76 q 194 40 189 3 q 216 168 198 77 l 290 532 l 194 532 l 211 614 q 311 642 277 614 q 381 766 345 669 q 467 903 418 864 q 586 941 516 941 q 667 917 639 941 q 695 854 695 892 q 674 799 695 821 q 622 777 653 777 q 579 794 596 777 q 562 833 562 811 q 581 884 562 848 q 584 895 584 891 q 578 905 584 901 q 566 909 573 909 q 521 885 541 909 q 501 815 501 861 q 504 752 501 789 q 507 699 507 716 q 498 614 507 667 l 602 614 l 586 532 l 482 532 z "},"≈":{"ha":762,"x_min":9,"x_max":754,"o":"m 711 743 l 754 743 q 698 572 753 633 q 564 511 644 511 q 485 523 526 511 q 309 591 443 534 q 168 632 212 632 q 94 605 123 632 q 52 511 64 577 l 9 511 q 63 684 14 625 q 193 744 112 744 q 268 734 232 744 q 453 664 336 715 q 551 627 518 636 q 595 622 571 622 q 673 653 641 622 q 711 743 705 684 m 711 398 l 754 398 q 698 227 753 288 q 565 165 644 165 q 485 177 527 165 q 309 245 443 189 q 168 286 213 286 q 94 259 123 286 q 52 166 64 231 l 9 166 q 63 339 14 279 q 193 399 112 399 q 267 389 232 399 q 453 319 335 370 q 551 281 519 290 q 595 276 571 276 q 673 307 641 276 q 711 398 705 338 z "},"∆":{"ha":850,"x_min":20,"x_max":833,"o":"m 833 0 l 20 0 l 446 941 l 833 0 m 673 56 l 403 711 l 104 56 l 673 56 z "},"«":{"ha":694,"x_min":24,"x_max":669,"o":"m 617 5 l 333 318 l 621 629 l 669 629 l 510 318 l 669 5 l 617 5 m 311 5 l 24 318 l 311 629 l 365 629 l 203 321 l 365 5 l 311 5 z "},"»":{"ha":694,"x_min":26,"x_max":671,"o":"m 78 629 l 361 316 l 75 5 l 26 5 l 184 316 l 26 629 l 78 629 m 384 629 l 671 316 l 384 5 l 330 5 l 492 313 l 330 629 l 384 629 z "},"…":{"ha":1389,"x_min":119,"x_max":1270,"o":"m 231 209 q 312 176 279 209 q 345 96 345 142 q 311 16 345 49 q 231 -17 278 -17 q 152 16 184 -17 q 119 96 119 49 q 152 176 119 142 q 231 209 184 209 m 694 208 q 774 175 741 208 q 807 96 807 142 q 774 16 807 49 q 694 -17 741 -17 q 615 16 648 -17 q 582 96 582 49 q 615 175 582 142 q 694 208 648 208 m 1158 207 q 1238 174 1205 207 q 1270 94 1270 141 q 1237 15 1270 47 q 1158 -18 1204 -18 q 1078 15 1111 -18 q 1045 94 1045 47 q 1078 174 1045 141 q 1158 207 1111 207 z "},"À":{"ha":1003,"x_min":11,"x_max":987,"o":"m 578 262 l 253 262 l 214 172 q 195 98 195 127 q 227 41 195 60 q 317 25 245 31 l 317 0 l 11 0 l 11 25 q 92 66 60 33 q 171 205 124 100 l 500 939 l 513 939 l 844 184 q 922 50 892 77 q 987 25 945 28 l 987 0 l 543 0 l 543 25 l 561 25 q 636 40 614 25 q 651 71 651 51 q 647 96 651 83 q 627 147 646 102 l 578 262 m 555 312 l 418 629 l 277 312 l 555 312 m 293 1234 l 497 1234 l 576 998 l 518 998 l 293 1234 z "},"Ã":{"ha":1003,"x_min":11,"x_max":987,"o":"m 578 262 l 253 262 l 214 172 q 195 98 195 127 q 227 41 195 60 q 317 25 245 31 l 317 0 l 11 0 l 11 25 q 92 66 60 33 q 171 205 124 100 l 500 939 l 513 939 l 844 184 q 922 50 892 77 q 987 25 945 28 l 987 0 l 543 0 l 543 25 l 561 25 q 636 40 614 25 q 651 71 651 51 q 647 96 651 83 q 627 147 646 102 l 578 262 m 555 312 l 418 629 l 277 312 l 555 312 m 680 1188 l 716 1188 q 717 1165 717 1175 q 675 1045 717 1090 q 573 1000 633 1000 q 462 1031 529 1000 q 373 1063 395 1063 q 339 1050 353 1063 q 320 1001 326 1036 l 281 1001 q 321 1139 278 1089 q 427 1190 364 1190 q 461 1185 448 1190 q 526 1158 480 1180 q 626 1126 596 1126 q 654 1139 641 1126 q 680 1188 668 1151 z "},"Õ":{"ha":1080,"x_min":54,"x_max":1031,"o":"m 536 932 q 893 804 756 941 q 1031 463 1031 668 q 928 155 1031 288 q 545 -21 793 -21 q 161 147 297 -21 q 54 463 54 280 q 194 804 54 667 q 536 932 333 941 m 545 889 q 353 760 418 889 q 299 456 299 654 q 382 109 299 221 q 543 30 439 30 q 660 64 613 30 q 753 202 720 107 q 786 451 786 298 q 752 724 786 633 q 666 852 718 814 q 545 889 613 889 m 722 1190 l 758 1190 q 759 1166 759 1176 q 717 1046 759 1092 q 615 1001 675 1001 q 504 1033 571 1001 q 415 1065 437 1065 q 381 1051 395 1065 q 362 1002 368 1038 l 323 1002 q 363 1141 320 1090 q 469 1191 406 1191 q 503 1187 490 1191 q 568 1160 522 1181 q 668 1128 638 1128 q 696 1140 683 1128 q 722 1190 710 1152 z "},"Œ":{"ha":1389,"x_min":50,"x_max":1322,"o":"m 1256 920 l 1256 646 l 1229 646 q 1183 774 1216 726 q 1099 843 1149 822 q 979 865 1048 865 l 870 865 l 870 491 l 892 491 q 956 508 923 491 q 999 544 981 521 q 1030 608 1016 566 q 1048 708 1044 649 l 1074 708 l 1074 227 l 1048 227 q 987 397 1027 354 q 892 440 947 440 l 870 440 l 870 208 q 876 87 870 105 q 895 62 882 69 q 962 51 913 51 l 1003 51 q 1191 113 1114 51 q 1297 291 1268 174 l 1322 291 l 1280 0 l 770 0 q 699 -4 749 0 q 520 -12 606 -12 q 295 37 389 -12 q 113 215 175 100 q 50 460 50 331 q 159 773 50 639 q 502 932 288 932 q 671 923 584 932 q 763 920 707 920 l 1256 920 m 649 696 q 646 789 649 770 q 613 847 638 827 q 526 876 578 876 q 370 793 429 876 q 294 429 294 688 q 368 119 294 216 q 522 41 427 41 q 620 74 591 41 q 649 204 649 106 l 649 696 z "},"œ":{"ha":1003,"x_min":47,"x_max":964,"o":"m 964 336 l 631 336 q 692 140 643 199 q 799 81 742 81 q 873 105 839 81 q 943 186 907 130 l 964 171 q 850 23 910 66 q 712 -19 790 -19 q 621 -1 659 -19 q 539 64 583 18 q 450 -1 490 16 q 351 -19 410 -19 q 111 98 194 -19 q 47 311 47 185 q 86 486 47 406 q 197 609 124 565 q 351 653 269 653 q 459 630 413 653 q 548 559 505 608 q 630 630 588 608 q 725 653 671 653 q 893 572 823 653 q 964 336 964 490 m 353 606 q 302 589 322 606 q 261 510 276 567 q 246 295 246 453 q 260 113 246 162 q 298 43 274 63 q 347 29 316 29 q 404 47 382 29 q 438 120 425 65 q 452 347 452 174 q 438 524 452 477 q 400 590 425 570 q 353 606 381 606 m 798 382 q 799 434 799 420 q 774 570 799 534 q 720 605 750 605 q 681 590 699 605 q 646 533 656 570 q 628 382 628 477 l 798 382 z "},"–":{"ha":694,"x_min":-12,"x_max":705,"o":"m 705 280 l -12 280 l -12 362 l 705 362 l 705 280 z "},"—":{"ha":1389,"x_min":-14,"x_max":1402,"o":"m 1402 279 l -14 279 l -14 362 l 1402 362 l 1402 279 z "},"“":{"ha":694,"x_min":55,"x_max":638,"o":"m 615 941 l 615 907 q 505 826 545 882 q 465 711 465 771 q 469 692 465 699 q 475 688 471 688 q 485 693 478 688 q 540 709 507 709 q 608 677 578 709 q 638 602 638 646 q 604 522 638 557 q 521 488 570 488 q 422 534 464 488 q 381 660 381 581 q 437 824 381 751 q 615 941 494 897 m 289 941 l 289 907 q 178 826 218 882 q 138 711 138 771 q 142 692 138 699 q 149 688 145 688 q 159 693 152 688 q 214 709 180 709 q 282 677 252 709 q 312 602 312 646 q 278 522 312 557 q 195 488 243 488 q 96 534 138 488 q 55 660 55 581 q 111 824 55 751 q 289 941 168 897 z "},"”":{"ha":694,"x_min":56,"x_max":640,"o":"m 79 488 l 79 522 q 189 603 149 547 q 229 718 229 658 q 225 736 229 730 q 220 741 223 741 q 209 735 216 741 q 155 720 187 720 q 86 751 115 720 q 56 826 56 783 q 90 906 56 872 q 174 941 124 941 q 272 894 230 941 q 313 769 313 848 q 257 605 313 677 q 79 488 201 532 m 406 488 l 406 522 q 515 603 475 547 q 555 718 555 658 q 551 736 555 730 q 546 741 549 741 q 535 735 543 741 q 481 720 513 720 q 412 751 441 720 q 382 826 382 783 q 416 906 382 872 q 500 941 450 941 q 598 894 556 941 q 640 769 640 848 q 583 605 640 677 q 406 488 527 532 z "},"‘":{"ha":463,"x_min":103,"x_max":360,"o":"m 336 941 l 336 911 q 221 823 257 877 q 186 713 186 769 q 191 696 186 701 q 200 690 195 690 q 212 694 204 690 q 261 706 232 706 q 331 675 301 706 q 360 602 360 644 q 326 523 360 557 q 244 489 292 489 q 144 534 186 489 q 103 658 103 579 q 162 830 103 755 q 336 941 220 905 z "},"’":{"ha":463,"x_min":103,"x_max":360,"o":"m 127 489 l 127 519 q 242 607 206 553 q 277 718 277 661 q 273 734 277 728 q 263 740 268 740 q 251 735 259 740 q 202 724 231 724 q 133 755 162 724 q 103 828 103 786 q 137 907 103 873 q 219 941 171 941 q 319 896 277 941 q 360 772 360 850 q 301 600 360 675 q 127 489 243 524 z "},"÷":{"ha":762,"x_min":11,"x_max":752,"o":"m 382 757 q 432 736 412 757 q 452 688 452 716 q 432 639 452 659 q 382 618 412 618 q 334 639 354 618 q 313 688 313 659 q 334 736 313 716 q 382 757 354 757 m 11 505 l 752 505 l 752 415 l 11 415 l 11 505 m 382 308 q 431 287 411 308 q 452 238 452 267 q 431 189 452 209 q 382 168 411 168 q 333 189 353 168 q 312 238 312 209 q 332 287 312 267 q 382 308 353 308 z "},"◊":{"ha":686,"x_min":32,"x_max":656,"o":"m 372 964 l 656 481 l 372 0 l 297 0 l 32 481 l 297 964 l 372 964 m 336 899 l 105 481 l 336 64 l 579 481 l 336 899 z "},"ÿ":{"ha":694,"x_min":12,"x_max":682,"o":"m 338 -26 l 133 444 q 65 575 87 551 q 12 609 43 600 l 12 634 l 349 634 l 349 609 q 302 596 315 608 q 288 568 288 585 q 322 467 288 543 l 431 218 l 505 410 q 545 553 545 513 q 528 593 545 578 q 469 609 511 608 l 469 634 l 682 634 l 682 609 q 631 585 650 606 q 565 444 611 564 l 384 -26 q 282 -243 315 -202 q 165 -300 235 -300 q 74 -268 109 -300 q 39 -190 39 -235 q 63 -125 39 -151 q 122 -99 87 -99 q 177 -121 156 -99 q 198 -188 197 -142 q 204 -221 199 -214 q 220 -229 210 -229 q 254 -209 236 -229 q 318 -79 281 -180 l 338 -26 m 492 928 q 556 902 530 928 q 583 838 583 876 q 556 774 583 801 q 492 748 530 748 q 429 774 455 748 q 402 838 402 801 q 429 902 402 876 q 492 928 455 928 m 239 928 q 303 902 277 928 q 329 838 329 876 q 302 774 329 801 q 239 748 276 748 q 175 774 201 748 q 149 838 149 801 q 175 902 149 876 q 239 928 201 928 z "},"Ÿ":{"ha":1003,"x_min":12,"x_max":987,"o":"m 987 920 l 987 895 q 918 868 942 888 q 810 713 884 840 l 611 380 l 611 157 q 618 69 611 86 q 648 38 626 52 q 707 25 670 25 l 758 25 l 758 0 l 242 0 l 242 25 l 290 25 q 355 39 331 25 q 382 72 372 49 q 390 157 390 88 l 390 342 l 174 736 q 83 873 109 852 q 12 895 56 894 l 12 920 l 453 920 l 453 895 l 433 895 q 377 883 393 895 q 361 859 361 871 q 416 736 361 834 l 582 431 l 747 709 q 809 844 809 810 q 791 874 809 862 q 707 895 768 891 l 707 920 l 987 920 m 659 1191 q 723 1164 697 1191 q 749 1101 749 1138 q 723 1037 749 1063 q 659 1010 696 1010 q 595 1037 622 1010 q 569 1101 569 1063 q 595 1164 569 1138 q 659 1191 622 1191 m 406 1191 q 470 1164 444 1191 q 496 1101 496 1138 q 469 1037 496 1063 q 406 1010 443 1010 q 342 1037 368 1010 q 315 1101 315 1063 q 342 1164 315 1138 q 406 1191 368 1191 z "},"⁄":{"ha":232,"x_min":-256,"x_max":487,"o":"m 487 939 l -166 -40 l -256 -40 l 397 939 l 487 939 z "},"∕":{"ha":232,"x_min":-256,"x_max":487,"o":"m 487 939 l -166 -40 l -256 -40 l 397 939 l 487 939 z "},"€":{"ha":694,"x_min":-16,"x_max":672,"o":"m 576 500 l 261 500 q 259 444 259 471 l 562 444 l 546 391 l 260 391 q 433 45 273 45 q 562 94 511 45 q 641 203 589 119 l 672 180 q 577 47 618 83 q 393 -19 505 -19 q 141 112 232 -19 q 53 391 66 220 l -16 391 l 0 444 l 50 444 l 50 454 q 52 500 50 475 l -16 500 l 0 553 l 57 553 q 178 818 80 709 q 444 939 288 939 q 574 918 518 939 q 654 879 590 912 l 654 676 l 628 676 q 576 827 621 771 q 458 883 531 883 q 321 775 373 883 q 265 553 279 689 l 592 553 l 576 500 z "},"‹":{"ha":463,"x_min":63,"x_max":399,"o":"m 347 5 l 63 317 l 351 628 l 399 628 l 240 317 l 399 5 l 347 5 z "},"›":{"ha":463,"x_min":64,"x_max":400,"o":"m 116 628 l 400 316 l 113 5 l 64 5 l 223 316 l 64 628 l 116 628 z "},"ﬁ":{"ha":772,"x_min":40,"x_max":742,"o":"m 303 631 l 671 631 l 671 134 q 685 48 671 70 q 742 24 699 27 l 742 0 l 412 0 l 412 24 q 472 56 455 29 q 482 134 482 71 l 482 564 l 303 564 l 303 134 q 313 57 303 73 q 372 24 328 33 l 372 0 l 40 0 l 40 24 q 106 53 87 26 q 116 134 116 67 l 116 564 l 40 564 l 40 631 l 116 631 q 149 801 116 736 q 257 903 182 865 q 431 941 332 941 q 548 923 498 941 q 620 875 597 905 q 643 816 643 845 q 617 757 643 782 q 547 732 591 732 q 487 748 504 732 q 463 796 463 770 q 477 834 463 816 q 490 863 490 853 q 479 885 490 878 q 418 897 461 897 q 353 882 375 897 q 312 827 323 860 q 303 722 303 801 l 303 631 z "},"ﬂ":{"ha":772,"x_min":37,"x_max":739,"o":"m 303 564 l 303 136 q 313 53 303 71 q 369 24 327 30 l 369 0 l 37 0 l 37 24 q 104 56 87 29 q 114 136 114 71 l 114 564 l 41 564 l 41 634 l 114 634 q 145 804 113 744 q 244 902 176 863 q 394 941 311 941 q 452 936 420 941 q 524 920 485 930 l 671 920 l 671 136 q 676 63 671 79 q 695 36 681 47 q 739 24 709 26 l 739 0 l 410 0 l 410 24 q 454 38 439 27 q 475 68 469 50 q 479 136 479 81 l 479 564 l 303 564 m 303 634 l 479 634 l 479 758 q 460 795 460 777 q 476 838 460 810 q 486 864 486 852 q 473 884 486 876 q 414 897 453 897 q 323 850 352 897 q 303 723 303 818 l 303 634 z "},"‡":{"ha":694,"x_min":75,"x_max":619,"o":"m 439 503 q 382 429 398 465 q 367 332 367 393 q 386 199 367 243 q 439 138 399 167 q 384 78 397 100 q 364 21 370 55 q 456 47 413 27 q 514 72 500 68 q 544 76 528 76 q 598 57 578 76 q 619 8 619 37 q 599 -41 619 -22 q 545 -60 578 -60 q 460 -36 513 -60 q 404 -13 424 -19 q 364 -7 390 -9 q 373 -52 368 -37 q 400 -117 380 -75 q 426 -201 426 -171 q 405 -255 426 -235 q 351 -275 385 -275 q 295 -255 316 -275 q 274 -202 274 -234 q 301 -114 274 -172 q 335 -7 328 -56 q 298 -13 310 -9 q 243 -35 279 -18 q 150 -60 186 -60 q 96 -41 117 -60 q 76 7 76 -22 q 97 56 76 35 q 146 77 118 77 q 178 73 162 77 q 243 46 194 68 q 335 21 292 24 q 313 84 328 61 q 260 138 298 107 q 314 199 299 168 q 334 309 334 241 q 318 429 334 391 q 260 503 302 467 q 313 556 296 530 q 335 619 330 583 q 235 590 293 616 q 146 563 178 563 q 95 584 115 563 q 75 633 75 604 q 96 681 75 660 q 146 701 117 701 q 180 696 163 701 q 244 670 197 692 q 335 646 292 649 q 299 747 328 687 q 271 839 271 806 q 293 896 271 873 q 347 920 315 920 q 401 898 379 920 q 423 843 423 876 q 418 808 423 825 q 392 742 414 791 q 364 646 370 693 q 410 654 392 648 q 474 681 427 659 q 543 703 522 703 q 599 679 572 703 q 618 631 618 661 q 598 584 618 603 q 545 565 578 565 q 511 569 526 565 q 473 585 504 570 q 413 609 431 604 q 364 619 395 614 q 383 557 368 582 q 439 503 399 532 z "},"∙":{"ha":347,"x_min":60,"x_max":288,"o":"m 174 573 q 254 540 221 573 q 288 459 288 507 q 254 379 288 412 q 174 346 221 346 q 94 379 127 346 q 60 459 60 412 q 94 540 60 507 q 174 573 127 573 z "},"‚":{"ha":463,"x_min":103,"x_max":360,"o":"m 127 -243 l 127 -214 q 242 -126 206 -180 q 277 -16 277 -72 q 273 2 277 -4 q 263 7 268 7 q 251 3 259 7 q 202 -9 231 -9 q 133 22 162 -9 q 103 96 103 54 q 137 174 103 140 q 219 208 171 208 q 319 163 277 208 q 360 39 360 118 q 301 -133 360 -58 q 127 -243 243 -208 z "},"„":{"ha":694,"x_min":56,"x_max":640,"o":"m 79 -243 l 79 -210 q 189 -129 149 -184 q 229 -14 229 -74 q 225 5 229 -1 q 220 9 223 9 q 209 4 216 9 q 155 -12 187 -12 q 86 20 115 -12 q 56 95 56 52 q 90 175 56 140 q 174 210 124 210 q 272 163 230 210 q 313 37 313 116 q 257 -126 313 -54 q 79 -243 201 -199 m 406 -243 l 406 -210 q 515 -129 475 -184 q 555 -14 555 -74 q 551 5 555 -1 q 546 9 549 9 q 535 4 543 9 q 481 -12 513 -12 q 412 20 441 -12 q 382 95 382 52 q 416 175 382 140 q 500 210 450 210 q 598 163 556 210 q 640 37 640 116 q 583 -126 640 -54 q 406 -243 527 -199 z "},"‰":{"ha":1389,"x_min":40,"x_max":1348,"o":"m 831 941 l 193 -39 l 101 -39 l 742 941 l 831 941 m 249 941 q 351 910 302 941 q 427 823 401 880 q 452 699 452 766 q 393 513 452 578 q 246 448 333 448 q 101 515 161 448 q 40 695 40 582 q 68 824 40 766 q 148 911 97 882 q 249 941 199 941 m 248 907 q 227 898 237 907 q 208 855 212 883 q 198 648 198 786 q 208 523 198 566 q 229 485 214 499 q 250 478 237 478 q 267 485 260 478 q 286 525 282 498 q 294 687 294 573 q 286 857 294 809 q 267 899 281 886 q 248 907 260 907 m 680 455 q 784 424 735 455 q 860 336 833 393 q 887 212 887 279 q 823 26 887 90 q 682 -38 759 -38 q 541 24 608 -38 q 475 210 475 85 q 502 340 475 283 q 579 427 528 398 q 680 455 629 455 m 681 422 q 661 416 668 422 q 644 378 647 404 q 632 198 632 301 q 641 41 632 92 q 659 3 646 14 q 680 -5 667 -5 q 701 3 693 -5 q 719 42 715 16 q 728 229 728 102 q 718 380 728 323 q 701 416 713 404 q 681 422 693 422 m 1142 454 q 1246 424 1197 454 q 1322 338 1296 393 q 1348 214 1348 282 q 1282 22 1348 81 q 1143 -38 1216 -38 q 1001 26 1065 -38 q 937 208 937 90 q 964 337 937 279 q 1040 425 991 395 q 1142 454 1088 454 m 1143 422 q 1122 414 1131 422 q 1105 376 1108 401 q 1095 196 1095 309 q 1105 38 1095 98 q 1122 1 1109 13 q 1143 -6 1130 -6 q 1164 1 1157 -6 q 1180 39 1177 12 q 1190 229 1190 116 q 1181 378 1190 324 q 1162 415 1176 403 q 1143 422 1156 422 z "},"Â":{"ha":1003,"x_min":11,"x_max":987,"o":"m 578 262 l 253 262 l 214 172 q 195 98 195 127 q 227 41 195 60 q 317 25 245 31 l 317 0 l 11 0 l 11 25 q 92 66 60 33 q 171 205 124 100 l 500 939 l 513 939 l 844 184 q 922 50 892 77 q 987 25 945 28 l 987 0 l 543 0 l 543 25 l 561 25 q 636 40 614 25 q 651 71 651 51 q 647 96 651 83 q 627 147 646 102 l 578 262 m 555 312 l 418 629 l 277 312 l 555 312 m 578 1234 l 715 975 l 663 975 l 502 1114 l 336 979 l 280 979 l 425 1234 l 578 1234 z "},"Ê":{"ha":926,"x_min":28,"x_max":864,"o":"m 378 867 l 378 492 l 397 492 q 524 547 484 492 q 574 709 563 602 l 600 709 l 600 228 l 574 228 q 539 357 566 307 q 479 424 513 407 q 378 441 444 441 l 378 182 q 385 90 378 106 q 409 62 391 73 q 466 51 427 51 l 521 51 q 727 111 650 51 q 839 292 805 170 l 864 292 l 823 0 l 28 0 l 28 25 l 58 25 q 123 39 98 25 q 150 72 140 49 q 157 157 157 88 l 157 762 q 154 839 157 825 q 129 876 147 863 q 58 895 103 895 l 28 895 l 28 920 l 798 920 l 798 648 l 772 648 q 716 791 752 747 q 616 854 681 834 q 473 867 578 867 l 378 867 m 542 1234 l 680 975 l 627 975 l 466 1114 l 300 979 l 244 979 l 389 1234 l 542 1234 z "},"Á":{"ha":1003,"x_min":11,"x_max":987,"o":"m 578 262 l 253 262 l 214 172 q 195 98 195 127 q 227 41 195 60 q 317 25 245 31 l 317 0 l 11 0 l 11 25 q 92 66 60 33 q 171 205 124 100 l 500 939 l 513 939 l 844 184 q 922 50 892 77 q 987 25 945 28 l 987 0 l 543 0 l 543 25 l 561 25 q 636 40 614 25 q 651 71 651 51 q 647 96 651 83 q 627 147 646 102 l 578 262 m 555 312 l 418 629 l 277 312 l 555 312 m 705 1234 l 480 998 l 422 998 l 500 1234 l 705 1234 z "},"Ë":{"ha":926,"x_min":28,"x_max":864,"o":"m 378 867 l 378 492 l 397 492 q 524 547 484 492 q 574 709 563 602 l 600 709 l 600 228 l 574 228 q 539 357 566 307 q 479 424 513 407 q 378 441 444 441 l 378 182 q 385 90 378 106 q 409 62 391 73 q 466 51 427 51 l 521 51 q 727 111 650 51 q 839 292 805 170 l 864 292 l 823 0 l 28 0 l 28 25 l 58 25 q 123 39 98 25 q 150 72 140 49 q 157 157 157 88 l 157 762 q 154 839 157 825 q 129 876 147 863 q 58 895 103 895 l 28 895 l 28 920 l 798 920 l 798 648 l 772 648 q 716 791 752 747 q 616 854 681 834 q 473 867 578 867 l 378 867 m 591 1191 q 655 1164 629 1191 q 682 1101 682 1138 q 655 1037 682 1063 q 591 1010 629 1010 q 528 1037 554 1010 q 501 1101 501 1063 q 528 1164 501 1138 q 591 1191 554 1191 m 338 1191 q 402 1164 376 1191 q 428 1101 428 1138 q 401 1037 428 1063 q 338 1010 375 1010 q 274 1037 300 1010 q 248 1101 248 1063 q 274 1164 248 1138 q 338 1191 300 1191 z "},"È":{"ha":926,"x_min":28,"x_max":864,"o":"m 378 867 l 378 492 l 397 492 q 524 547 484 492 q 574 709 563 602 l 600 709 l 600 228 l 574 228 q 539 357 566 307 q 479 424 513 407 q 378 441 444 441 l 378 182 q 385 90 378 106 q 409 62 391 73 q 466 51 427 51 l 521 51 q 727 111 650 51 q 839 292 805 170 l 864 292 l 823 0 l 28 0 l 28 25 l 58 25 q 123 39 98 25 q 150 72 140 49 q 157 157 157 88 l 157 762 q 154 839 157 825 q 129 876 147 863 q 58 895 103 895 l 28 895 l 28 920 l 798 920 l 798 648 l 772 648 q 716 791 752 747 q 616 854 681 834 q 473 867 578 867 l 378 867 m 257 1234 l 461 1234 l 540 998 l 482 998 l 257 1234 z "},"Í":{"ha":541,"x_min":28,"x_max":509,"o":"m 509 25 l 509 0 l 28 0 l 28 25 l 58 25 q 123 39 98 25 q 150 72 140 49 q 157 157 157 88 l 157 762 q 150 850 157 833 q 120 881 142 868 q 58 895 97 895 l 28 895 l 28 920 l 509 920 l 509 895 l 478 895 q 414 880 438 895 q 386 848 396 871 q 378 762 378 831 l 378 157 q 386 69 378 87 q 417 38 394 52 q 478 25 439 25 l 509 25 m 473 1234 l 249 998 l 191 998 l 269 1234 l 473 1234 z "},"Î":{"ha":541,"x_min":28,"x_max":509,"o":"m 509 25 l 509 0 l 28 0 l 28 25 l 58 25 q 123 39 98 25 q 150 72 140 49 q 157 157 157 88 l 157 762 q 150 850 157 833 q 120 881 142 868 q 58 895 97 895 l 28 895 l 28 920 l 509 920 l 509 895 l 478 895 q 414 880 438 895 q 386 848 396 871 q 378 762 378 831 l 378 157 q 386 69 378 87 q 417 38 394 52 q 478 25 439 25 l 509 25 m 347 1234 l 484 975 l 432 975 l 271 1114 l 104 979 l 49 979 l 193 1234 l 347 1234 z "},"Ï":{"ha":541,"x_min":28,"x_max":509,"o":"m 509 25 l 509 0 l 28 0 l 28 25 l 58 25 q 123 39 98 25 q 150 72 140 49 q 157 157 157 88 l 157 762 q 150 850 157 833 q 120 881 142 868 q 58 895 97 895 l 28 895 l 28 920 l 509 920 l 509 895 l 478 895 q 414 880 438 895 q 386 848 396 871 q 378 762 378 831 l 378 157 q 386 69 378 87 q 417 38 394 52 q 478 25 439 25 l 509 25 m 396 1191 q 460 1164 434 1191 q 486 1101 486 1138 q 460 1037 486 1063 q 396 1010 433 1010 q 332 1037 359 1010 q 306 1101 306 1063 q 332 1164 306 1138 q 396 1191 359 1191 m 142 1191 q 207 1164 180 1191 q 233 1101 233 1138 q 206 1037 233 1063 q 142 1010 180 1010 q 79 1037 105 1010 q 52 1101 52 1063 q 79 1164 52 1138 q 142 1191 105 1191 z "},"Ì":{"ha":541,"x_min":28,"x_max":509,"o":"m 509 25 l 509 0 l 28 0 l 28 25 l 58 25 q 123 39 98 25 q 150 72 140 49 q 157 157 157 88 l 157 762 q 150 850 157 833 q 120 881 142 868 q 58 895 97 895 l 28 895 l 28 920 l 509 920 l 509 895 l 478 895 q 414 880 438 895 q 386 848 396 871 q 378 762 378 831 l 378 157 q 386 69 378 87 q 417 38 394 52 q 478 25 439 25 l 509 25 m 61 1234 l 265 1234 l 344 998 l 286 998 l 61 1234 z "},"Ó":{"ha":1080,"x_min":54,"x_max":1031,"o":"m 536 932 q 893 804 756 941 q 1031 463 1031 668 q 928 155 1031 288 q 545 -21 793 -21 q 161 147 297 -21 q 54 463 54 280 q 194 804 54 667 q 536 932 333 941 m 545 889 q 353 760 418 889 q 299 456 299 654 q 382 109 299 221 q 543 30 439 30 q 660 64 613 30 q 753 202 720 107 q 786 451 786 298 q 752 724 786 633 q 666 852 718 814 q 545 889 613 889 m 747 1234 l 523 998 l 465 998 l 543 1234 l 747 1234 z "},"Ô":{"ha":1080,"x_min":54,"x_max":1031,"o":"m 536 932 q 893 804 756 941 q 1031 463 1031 668 q 928 155 1031 288 q 545 -21 793 -21 q 161 147 297 -21 q 54 463 54 280 q 194 804 54 667 q 536 932 333 941 m 545 889 q 353 760 418 889 q 299 456 299 654 q 382 109 299 221 q 543 30 439 30 q 660 64 613 30 q 753 202 720 107 q 786 451 786 298 q 752 724 786 633 q 666 852 718 814 q 545 889 613 889 m 621 1234 l 758 975 l 706 975 l 545 1114 l 378 979 l 323 979 l 467 1234 l 621 1234 z "},"Ò":{"ha":1080,"x_min":54,"x_max":1031,"o":"m 536 932 q 893 804 756 941 q 1031 463 1031 668 q 928 155 1031 288 q 545 -21 793 -21 q 161 147 297 -21 q 54 463 54 280 q 194 804 54 667 q 536 932 333 941 m 545 889 q 353 760 418 889 q 299 456 299 654 q 382 109 299 221 q 543 30 439 30 q 660 64 613 30 q 753 202 720 107 q 786 451 786 298 q 752 724 786 633 q 666 852 718 814 q 545 889 613 889 m 336 1234 l 540 1234 l 618 998 l 561 998 l 336 1234 z "},"Ú":{"ha":1003,"x_min":33,"x_max":979,"o":"m 33 920 l 507 920 l 507 895 l 484 895 q 410 883 430 895 q 381 852 390 872 q 373 754 373 833 l 373 304 q 392 140 373 180 q 453 74 410 100 q 561 47 496 47 q 688 81 635 47 q 767 174 741 115 q 793 379 793 233 l 793 754 q 780 842 793 816 q 747 879 767 869 q 661 895 717 895 l 661 920 l 979 920 l 979 895 l 960 895 q 896 879 922 895 q 859 832 870 863 q 850 754 850 810 l 850 405 q 828 171 850 243 q 724 39 807 99 q 498 -22 642 -22 q 314 10 379 -22 q 189 121 225 54 q 152 304 152 189 l 152 754 q 143 853 152 833 q 113 884 134 872 q 33 895 91 895 l 33 920 m 689 1234 l 465 998 l 406 998 l 485 1234 l 689 1234 z "},"Û":{"ha":1003,"x_min":33,"x_max":979,"o":"m 33 920 l 507 920 l 507 895 l 484 895 q 410 883 430 895 q 381 852 390 872 q 373 754 373 833 l 373 304 q 392 140 373 180 q 453 74 410 100 q 561 47 496 47 q 688 81 635 47 q 767 174 741 115 q 793 379 793 233 l 793 754 q 780 842 793 816 q 747 879 767 869 q 661 895 717 895 l 661 920 l 979 920 l 979 895 l 960 895 q 896 879 922 895 q 859 832 870 863 q 850 754 850 810 l 850 405 q 828 171 850 243 q 724 39 807 99 q 498 -22 642 -22 q 314 10 379 -22 q 189 121 225 54 q 152 304 152 189 l 152 754 q 143 853 152 833 q 113 884 134 872 q 33 895 91 895 l 33 920 m 600 1234 l 738 975 l 686 975 l 524 1114 l 358 979 l 302 979 l 447 1234 l 600 1234 z "},"Ù":{"ha":1003,"x_min":33,"x_max":979,"o":"m 33 920 l 507 920 l 507 895 l 484 895 q 410 883 430 895 q 381 852 390 872 q 373 754 373 833 l 373 304 q 392 140 373 180 q 453 74 410 100 q 561 47 496 47 q 688 81 635 47 q 767 174 741 115 q 793 379 793 233 l 793 754 q 780 842 793 816 q 747 879 767 869 q 661 895 717 895 l 661 920 l 979 920 l 979 895 l 960 895 q 896 879 922 895 q 859 832 870 863 q 850 754 850 810 l 850 405 q 828 171 850 243 q 724 39 807 99 q 498 -22 642 -22 q 314 10 379 -22 q 189 121 225 54 q 152 304 152 189 l 152 754 q 143 853 152 833 q 113 884 134 872 q 33 895 91 895 l 33 920 m 311 1234 l 515 1234 l 594 998 l 536 998 l 311 1234 z "},"ı":{"ha":386,"x_min":28,"x_max":371,"o":"m 294 634 l 294 132 q 310 46 294 64 q 371 24 326 27 l 371 0 l 28 0 l 28 24 q 91 49 71 26 q 104 132 104 64 l 104 502 q 89 588 104 569 q 28 609 73 606 l 28 634 l 294 634 z "},"ˆ":{"ha":463,"x_min":14,"x_max":450,"o":"m 312 968 l 450 709 l 397 709 l 236 848 l 70 713 l 14 713 l 159 968 l 312 968 z "},"˜":{"ha":463,"x_min":14,"x_max":452,"o":"m 416 928 l 452 928 q 452 905 452 914 q 410 785 452 830 q 309 739 368 739 q 198 771 264 739 q 109 803 131 803 q 75 789 88 803 q 56 741 61 776 l 16 741 q 57 879 14 829 q 163 929 100 929 q 197 925 183 929 q 262 898 216 920 q 361 866 332 866 q 390 878 376 866 q 416 928 404 890 z "},"ˉ":{"ha":463,"x_min":14,"x_max":449,"o":"m 14 850 l 449 850 l 449 740 l 14 740 l 14 850 z "},"˘":{"ha":463,"x_min":26,"x_max":437,"o":"m 393 941 l 437 941 q 372 784 432 844 q 233 724 311 724 q 94 784 155 724 q 26 941 33 844 l 71 941 q 124 876 88 898 q 227 854 161 854 q 338 876 302 854 q 393 941 374 897 z "},"˙":{"ha":463,"x_min":132,"x_max":332,"o":"m 232 928 q 302 899 273 928 q 332 828 332 869 q 302 758 332 787 q 232 728 273 728 q 161 758 191 728 q 132 828 132 787 q 161 899 132 869 q 232 928 191 928 z "},"˚":{"ha":463,"x_min":90,"x_max":374,"o":"m 231 975 q 332 933 291 975 q 374 833 374 892 q 332 732 374 774 q 231 690 290 690 q 131 732 173 690 q 90 833 90 774 q 131 933 90 892 q 231 975 172 975 m 232 922 q 168 896 194 922 q 142 833 142 870 q 168 769 142 795 q 232 743 195 743 q 295 769 269 743 q 321 833 321 795 q 295 896 321 870 q 232 922 269 922 z "},"¸":{"ha":463,"x_min":98,"x_max":329,"o":"m 233 8 l 277 8 l 245 -41 q 308 -74 286 -48 q 329 -140 329 -100 q 308 -204 329 -175 q 254 -245 287 -233 q 98 -261 203 -262 l 98 -229 q 190 -207 166 -227 q 214 -154 214 -188 q 198 -120 214 -134 q 153 -106 182 -106 l 233 8 z "},"˝":{"ha":463,"x_min":76,"x_max":511,"o":"m 296 951 l 130 717 l 76 717 l 155 951 l 296 951 m 511 951 l 348 717 l 294 717 l 372 951 l 511 951 z "},"˛":{"ha":463,"x_min":60,"x_max":326,"o":"m 299 41 q 252 8 275 28 q 210 -37 229 -12 q 181 -90 192 -62 q 170 -144 170 -117 q 177 -178 170 -163 q 195 -201 184 -192 q 221 -216 206 -211 q 250 -220 235 -220 q 283 -214 267 -220 q 312 -197 299 -208 l 326 -214 q 253 -279 290 -258 q 184 -300 217 -300 q 132 -291 155 -300 q 93 -268 109 -282 q 68 -233 77 -253 q 60 -191 60 -213 q 79 -118 60 -154 q 129 -51 99 -82 q 196 4 159 -20 q 266 41 232 28 l 299 41 z "},"ˇ":{"ha":463,"x_min":14,"x_max":450,"o":"m 151 709 l 14 968 l 66 968 l 228 828 l 394 964 l 450 964 l 304 709 l 151 709 z "},"Ł":{"ha":926,"x_min":28,"x_max":876,"o":"m 876 322 l 841 0 l 28 0 l 28 25 l 59 25 q 123 39 100 25 q 149 71 140 49 q 156 164 156 87 l 156 336 l 28 233 l 28 297 l 156 401 l 156 752 q 148 846 156 827 q 120 877 140 865 q 59 890 99 890 l 28 890 l 28 920 l 517 920 l 517 890 l 473 890 q 405 873 426 890 q 378 832 385 857 q 376 752 376 822 l 376 574 l 534 696 l 534 634 l 376 510 l 376 176 q 385 83 376 103 q 418 55 394 64 q 500 51 428 51 l 574 51 q 744 112 675 51 q 851 322 812 172 l 876 322 z "},"ł":{"ha":386,"x_min":26,"x_max":368,"o":"m 292 920 l 292 567 l 368 628 l 368 571 l 292 510 l 292 136 q 308 46 292 64 q 368 24 323 27 l 368 0 l 30 0 l 30 24 q 90 46 72 24 q 104 136 104 62 l 104 359 l 26 296 l 26 353 l 104 416 l 104 781 q 88 868 104 850 q 30 888 73 887 l 30 920 l 292 920 z "},"Š":{"ha":772,"x_min":72,"x_max":717,"o":"m 652 941 l 660 634 l 632 634 q 535 820 612 749 q 369 890 458 890 q 259 853 300 890 q 219 768 219 816 q 233 713 219 737 q 296 650 253 682 q 444 571 328 628 q 661 421 605 492 q 717 260 717 351 q 627 61 717 144 q 399 -22 537 -22 q 317 -13 355 -22 q 220 20 278 -4 q 166 34 187 34 q 129 20 149 34 q 97 -21 109 7 l 72 -21 l 72 326 l 97 326 q 212 103 127 180 q 395 26 297 26 q 516 67 471 26 q 562 163 562 109 q 544 227 562 196 q 492 284 527 257 q 367 356 456 312 q 186 461 241 418 q 102 558 132 505 q 73 676 73 612 q 153 863 73 786 q 357 941 234 941 q 444 930 401 941 q 521 900 475 922 q 585 878 567 878 q 613 888 603 878 q 632 941 623 899 l 652 941 m 302 979 l 165 1238 l 216 1238 l 378 1098 l 545 1234 l 600 1234 l 455 979 l 302 979 z "},"š":{"ha":541,"x_min":47,"x_max":491,"o":"m 448 652 l 458 435 l 435 435 q 349 567 393 532 q 260 602 304 602 q 213 584 233 602 q 193 541 193 565 q 207 505 193 522 q 328 410 229 477 q 459 295 428 342 q 491 190 491 248 q 465 86 491 137 q 390 8 438 35 q 283 -19 342 -19 q 162 9 238 -19 q 134 17 142 17 q 97 -17 112 17 l 75 -17 l 64 211 l 87 211 q 171 77 117 121 q 271 32 224 32 q 325 52 304 32 q 345 100 345 72 q 325 157 345 133 q 234 229 304 180 q 100 338 130 300 q 55 461 55 394 q 105 594 55 534 q 252 653 156 653 q 351 628 303 653 q 381 618 370 618 q 401 623 393 618 q 425 652 408 628 l 448 652 m 184 709 l 47 968 l 98 968 l 260 828 l 427 964 l 482 964 l 337 709 l 184 709 z "},"Ž":{"ha":926,"x_min":22,"x_max":902,"o":"m 848 920 l 307 52 l 482 52 q 656 67 606 52 q 795 157 736 92 q 876 332 853 222 l 902 332 l 865 0 l 22 0 l 564 869 l 427 869 q 323 865 348 869 q 234 830 275 856 q 164 760 192 804 q 121 650 137 717 l 96 650 l 121 920 l 848 920 m 382 979 l 245 1238 l 296 1238 l 458 1098 l 625 1234 l 680 1234 l 535 979 l 382 979 z "},"ž":{"ha":616,"x_min":14,"x_max":594,"o":"m 566 0 l 14 0 l 14 15 l 363 593 l 261 593 q 167 581 195 593 q 121 543 138 569 q 84 450 103 517 l 60 450 l 60 634 l 594 634 l 594 616 l 248 43 l 292 43 q 479 81 422 43 q 566 217 537 118 l 585 217 l 566 0 m 254 709 l 117 968 l 168 968 l 330 828 l 496 964 l 552 964 l 407 709 l 254 709 z "},"¦":{"ha":306,"x_min":108,"x_max":196,"o":"m 108 446 l 108 941 l 196 941 l 196 446 l 108 446 m 108 -300 l 108 196 l 196 196 l 196 -300 l 108 -300 z "},"Ð":{"ha":1003,"x_min":24,"x_max":950,"o":"m 24 0 l 24 25 l 54 25 q 116 38 94 25 q 147 72 137 50 q 154 157 154 87 l 154 460 l 24 460 l 24 510 l 154 510 l 154 762 q 146 850 154 833 q 116 881 138 868 q 54 895 93 895 l 24 895 l 24 920 l 436 920 q 701 875 601 920 q 887 709 824 820 q 950 457 950 597 q 919 278 950 360 q 839 143 888 197 q 724 58 789 90 q 566 8 659 26 q 436 0 525 0 l 24 0 m 375 867 l 374 510 l 578 510 l 578 460 l 374 460 l 375 150 q 380 80 375 93 q 398 60 386 67 q 451 50 417 50 q 625 127 564 50 q 705 452 705 232 q 650 734 705 629 q 537 847 606 817 q 375 867 488 868 z "},"ð":{"ha":694,"x_min":50,"x_max":645,"o":"m 319 774 l 149 680 l 127 718 l 290 810 q 163 917 241 862 l 179 941 q 268 901 233 920 q 357 846 304 882 l 517 936 l 538 897 l 396 818 q 583 603 522 716 q 645 355 645 490 q 610 156 645 243 q 505 25 574 69 q 348 -19 435 -19 q 193 24 262 -19 q 86 144 123 68 q 50 313 50 220 q 106 522 50 433 q 309 631 177 631 q 408 612 350 631 q 369 701 386 669 q 319 774 351 732 m 348 585 q 296 569 317 585 q 261 510 274 552 q 249 350 249 469 q 262 106 249 162 q 293 47 270 66 q 346 28 316 28 q 398 46 376 28 q 430 106 420 65 q 443 336 443 162 q 431 510 443 467 q 399 569 420 553 q 348 585 378 585 z "},"Ý":{"ha":1003,"x_min":12,"x_max":987,"o":"m 987 920 l 987 895 q 918 868 942 888 q 810 713 884 840 l 611 380 l 611 157 q 618 69 611 86 q 648 38 626 52 q 707 25 670 25 l 758 25 l 758 0 l 242 0 l 242 25 l 290 25 q 355 39 331 25 q 382 72 372 49 q 390 157 390 88 l 390 342 l 174 736 q 83 873 109 852 q 12 895 56 894 l 12 920 l 453 920 l 453 895 l 433 895 q 377 883 393 895 q 361 859 361 871 q 416 736 361 834 l 582 431 l 747 709 q 809 844 809 810 q 791 874 809 862 q 707 895 768 891 l 707 920 l 987 920 m 735 1234 l 511 998 l 452 998 l 531 1234 l 735 1234 z "},"ý":{"ha":694,"x_min":12,"x_max":682,"o":"m 338 -26 l 133 444 q 65 575 87 551 q 12 609 43 600 l 12 634 l 349 634 l 349 609 q 302 596 315 608 q 288 568 288 585 q 322 467 288 543 l 431 218 l 505 410 q 545 553 545 513 q 528 593 545 578 q 469 609 511 608 l 469 634 l 682 634 l 682 609 q 631 585 650 606 q 565 444 611 564 l 384 -26 q 282 -243 315 -202 q 165 -300 235 -300 q 74 -268 109 -300 q 39 -190 39 -235 q 63 -125 39 -151 q 122 -99 87 -99 q 177 -121 156 -99 q 198 -188 197 -142 q 204 -221 199 -214 q 220 -229 210 -229 q 254 -209 236 -229 q 318 -79 281 -180 l 338 -26 m 593 951 l 369 715 l 311 715 l 389 951 l 593 951 z "},"Þ":{"ha":848,"x_min":28,"x_max":801,"o":"m 368 715 l 416 715 q 609 698 542 715 q 748 613 696 675 q 801 464 801 551 q 763 330 801 391 q 652 239 725 269 q 416 208 580 208 l 368 208 l 368 166 q 374 68 368 85 q 400 41 381 52 q 463 25 425 25 l 492 25 l 492 0 l 28 0 l 28 25 l 61 25 q 128 43 104 25 q 152 81 145 56 q 155 153 155 93 l 155 754 q 148 853 155 835 q 123 881 141 871 q 58 896 98 896 l 28 896 l 28 920 l 492 920 l 492 896 l 462 896 q 395 879 418 896 q 371 842 378 867 q 368 756 368 828 l 368 715 m 368 662 l 368 261 q 497 278 463 261 q 551 331 532 296 q 575 464 575 380 q 551 583 575 536 q 487 648 527 630 q 384 662 457 662 l 368 662 z "},"þ":{"ha":772,"x_min":26,"x_max":712,"o":"m 292 64 l 292 -172 q 300 -240 292 -222 q 324 -266 308 -258 q 388 -274 340 -274 l 388 -300 l 26 -300 l 26 -274 q 89 -250 68 -273 q 102 -168 102 -235 l 102 809 q 87 895 102 876 q 26 916 71 913 l 26 941 l 292 941 l 292 551 q 360 621 326 600 q 468 653 410 653 q 595 609 538 653 q 682 487 652 565 q 712 320 712 410 q 681 144 712 224 q 592 23 650 64 q 461 -19 533 -19 q 363 4 409 -19 q 292 64 330 22 m 292 133 q 417 50 351 50 q 477 89 454 50 q 513 306 513 146 q 474 530 513 470 q 405 570 448 570 q 292 471 336 570 l 292 133 z "},"−":{"ha":791,"x_min":27,"x_max":768,"o":"m 27 505 l 768 505 l 768 415 l 27 415 l 27 505 z "},"×":{"ha":791,"x_min":104,"x_max":692,"o":"m 168 754 l 398 524 l 629 753 l 691 691 l 461 460 l 692 230 l 629 167 l 398 397 l 169 169 l 106 231 l 335 460 l 104 691 l 168 754 z "},"¹":{"ha":416,"x_min":50,"x_max":361,"o":"m 281 939 l 281 550 q 286 492 281 505 q 300 478 289 484 q 340 472 311 472 l 361 472 l 361 450 l 58 450 l 58 472 l 81 472 q 130 479 116 472 q 142 491 138 484 q 148 550 148 505 l 148 793 q 145 832 148 825 q 135 844 142 840 q 116 849 127 849 q 62 836 97 849 l 50 857 l 257 939 l 281 939 z "},"²":{"ha":416,"x_min":16,"x_max":383,"o":"m 352 450 l 16 450 l 16 463 q 198 673 170 622 q 226 767 226 724 q 203 825 226 802 q 144 848 180 848 q 54 793 87 848 l 25 802 q 92 904 47 870 q 200 939 138 939 q 314 900 271 939 q 357 814 357 861 q 322 716 357 773 q 157 550 288 660 l 260 550 q 322 556 310 550 q 347 585 334 562 q 352 595 350 592 l 383 595 l 352 450 z "},"³":{"ha":416,"x_min":10,"x_max":376,"o":"m 119 687 l 119 705 q 193 733 178 720 q 224 794 224 759 q 203 841 224 821 q 148 861 182 861 q 57 807 96 861 l 29 817 q 212 939 90 939 q 313 906 275 939 q 351 834 351 874 q 285 743 351 778 q 376 621 376 700 q 314 495 376 549 q 143 440 252 440 q 33 463 67 440 q 10 500 10 478 q 25 530 10 517 q 63 543 40 543 q 92 536 77 543 q 137 507 100 534 q 205 480 174 480 q 251 499 232 480 q 269 548 269 519 q 233 632 269 593 q 119 687 197 671 z "},"½":{"ha":1042,"x_min":49,"x_max":1007,"o":"m 279 939 l 279 550 q 284 492 279 505 q 299 478 288 484 q 339 472 310 472 l 359 472 l 359 450 l 57 450 l 57 472 l 79 472 q 128 479 115 472 q 140 491 137 484 q 146 550 146 505 l 146 793 q 144 832 146 825 q 134 844 141 840 q 115 849 126 849 q 61 836 96 849 l 49 857 l 256 939 l 279 939 m 892 939 l 239 -40 l 146 -40 l 800 939 l 892 939 m 976 -32 l 640 -32 l 640 -19 q 822 191 794 140 q 850 285 850 241 q 827 343 850 320 q 768 366 804 366 q 677 311 711 366 l 649 320 q 716 422 671 388 q 824 456 762 456 q 938 418 895 456 q 981 333 981 380 q 946 235 981 292 q 781 68 911 178 l 884 68 q 946 74 934 68 q 970 104 958 80 q 976 113 974 111 l 1007 113 l 976 -32 z "},"¼":{"ha":1042,"x_min":49,"x_max":1014,"o":"m 279 939 l 279 550 q 284 492 279 505 q 299 478 288 484 q 339 472 310 472 l 359 472 l 359 450 l 57 450 l 57 472 l 79 472 q 128 479 115 472 q 140 491 137 484 q 146 550 146 505 l 146 793 q 144 832 146 825 q 134 844 141 840 q 115 849 126 849 q 61 836 96 849 l 49 857 l 256 939 l 279 939 m 909 939 l 256 -40 l 166 -40 l 817 939 l 909 939 m 641 150 l 902 458 l 964 458 l 964 150 l 1014 150 l 1014 73 l 964 73 l 964 -32 l 842 -32 l 842 73 l 641 73 l 641 150 m 697 150 l 842 150 l 842 319 l 697 150 z "},"¾":{"ha":1042,"x_min":9,"x_max":1014,"o":"m 117 687 l 117 705 q 192 733 176 720 q 223 794 223 759 q 202 841 223 821 q 146 861 181 861 q 56 807 95 861 l 28 817 q 210 939 89 939 q 312 906 274 939 q 349 834 349 874 q 283 743 349 778 q 374 621 374 700 q 313 495 374 549 q 142 440 251 440 q 32 463 66 440 q 9 500 9 478 q 24 530 9 517 q 62 543 39 543 q 91 536 76 543 q 135 507 98 534 q 204 480 172 480 q 249 499 231 480 q 268 548 268 519 q 232 632 268 593 q 117 687 195 671 m 909 939 l 256 -40 l 166 -40 l 817 939 l 909 939 m 641 150 l 902 458 l 964 458 l 964 150 l 1014 150 l 1014 73 l 964 73 l 964 -32 l 842 -32 l 842 73 l 641 73 l 641 150 m 697 150 l 842 150 l 842 319 l 697 150 z "},"₣":{"ha":694,"x_min":14,"x_max":664,"o":"m 365 196 l 504 196 l 504 144 l 365 144 q 373 68 365 85 q 404 38 381 51 q 465 25 427 25 l 495 25 l 495 0 l 14 0 l 14 25 l 45 25 q 113 42 89 25 q 139 77 132 55 q 144 138 144 92 l 144 144 l 14 144 l 14 196 l 144 196 l 144 762 q 137 850 144 833 q 106 881 129 868 q 45 895 83 895 l 14 895 l 14 920 l 664 920 l 664 656 l 636 656 q 609 760 629 719 q 553 824 588 801 q 469 859 519 848 q 365 867 435 866 l 365 489 q 492 538 445 492 q 551 686 539 585 l 574 686 l 574 224 l 551 224 q 496 382 540 334 q 365 439 452 429 l 365 196 z "},"Ğ":{"ha":1080,"x_min":56,"x_max":1066,"o":"m 958 941 l 958 616 l 933 616 q 797 819 888 749 q 598 888 706 888 q 427 830 495 888 q 330 668 358 772 q 301 455 301 564 q 332 223 301 323 q 433 77 363 123 q 598 30 503 30 q 666 37 631 30 q 738 58 701 44 l 738 249 q 730 319 738 303 q 700 348 723 335 q 643 361 676 361 l 619 361 l 619 386 l 1066 386 l 1066 361 q 995 347 1015 357 q 964 312 975 336 q 958 249 958 299 l 958 58 q 775 -2 870 18 q 577 -22 680 -22 q 360 14 446 -22 q 207 107 273 50 q 104 238 141 165 q 56 448 56 332 q 202 798 56 655 q 569 941 348 941 q 692 930 637 941 q 789 900 722 925 q 868 874 856 874 q 903 888 887 874 q 933 941 920 902 l 958 941 m 722 1215 l 766 1215 q 701 1059 762 1119 q 562 998 641 998 q 423 1059 484 998 q 356 1215 362 1119 l 401 1215 q 454 1151 418 1173 q 557 1129 490 1129 q 668 1150 632 1129 q 722 1215 704 1171 z "},"ğ":{"ha":694,"x_min":52,"x_max":669,"o":"m 454 627 l 667 627 l 667 552 l 546 552 q 592 492 579 519 q 608 415 608 455 q 571 297 608 347 q 468 219 533 248 q 353 191 404 191 q 272 195 349 191 q 221 175 241 195 q 200 127 200 155 q 219 87 200 102 q 279 71 237 71 l 397 73 q 593 41 539 73 q 669 -92 669 -2 q 634 -197 669 -150 q 541 -267 599 -244 q 340 -300 454 -300 q 184 -283 254 -300 q 83 -237 113 -267 q 52 -175 52 -208 q 76 -119 52 -144 q 163 -77 99 -94 q 75 43 75 -34 q 111 134 75 90 q 224 211 146 178 q 93 298 134 244 q 52 424 52 353 q 128 585 52 517 q 323 653 204 653 q 454 627 387 653 m 336 611 q 270 571 297 611 q 243 407 243 532 q 270 268 243 306 q 333 231 296 231 q 401 268 374 231 q 428 413 428 305 q 397 578 428 534 q 336 611 376 611 m 296 -94 q 205 -105 227 -94 q 166 -162 166 -126 q 206 -225 166 -197 q 357 -253 246 -253 q 505 -228 451 -253 q 559 -157 559 -203 q 549 -129 559 -140 q 493 -101 530 -109 q 296 -94 456 -94 m 522 941 l 566 941 q 500 784 561 844 q 361 724 440 724 q 222 784 283 724 q 155 941 161 844 l 200 941 q 253 876 217 898 q 356 854 290 854 q 467 876 431 854 q 522 941 503 897 z "},"İ":{"ha":541,"x_min":28,"x_max":509,"o":"m 509 25 l 509 0 l 28 0 l 28 25 l 58 25 q 123 39 98 25 q 150 72 140 49 q 157 157 157 88 l 157 762 q 150 850 157 833 q 120 881 142 868 q 58 895 97 895 l 28 895 l 28 920 l 509 920 l 509 895 l 478 895 q 414 880 438 895 q 386 848 396 871 q 378 762 378 831 l 378 157 q 386 69 378 87 q 417 38 394 52 q 478 25 439 25 l 509 25 m 268 1190 q 338 1161 309 1190 q 368 1090 368 1132 q 338 1020 368 1049 q 268 991 309 991 q 197 1020 227 991 q 168 1090 168 1049 q 197 1161 168 1132 q 268 1190 227 1190 z "},"Ş":{"ha":772,"x_min":72,"x_max":717,"o":"m 652 941 l 660 634 l 632 634 q 535 820 612 749 q 369 890 458 890 q 259 853 300 890 q 219 768 219 816 q 233 713 219 737 q 296 650 253 682 q 444 571 328 628 q 661 421 605 492 q 717 260 717 351 q 627 61 717 144 q 399 -22 537 -22 q 317 -13 355 -22 q 220 20 278 -4 q 166 34 187 34 q 129 20 149 34 q 97 -21 109 7 l 72 -21 l 72 326 l 97 326 q 212 103 127 180 q 395 26 297 26 q 516 67 471 26 q 562 163 562 109 q 544 227 562 196 q 492 284 527 257 q 367 356 456 312 q 186 461 241 418 q 102 558 132 505 q 73 676 73 612 q 153 863 73 786 q 357 941 234 941 q 444 930 401 941 q 521 900 475 922 q 585 878 567 878 q 613 888 603 878 q 632 941 623 899 l 652 941 m 393 8 l 437 8 l 406 -41 q 468 -74 446 -48 q 489 -140 489 -100 q 468 -204 489 -175 q 414 -245 447 -233 q 258 -261 363 -262 l 258 -229 q 350 -207 326 -227 q 374 -154 374 -188 q 358 -120 374 -134 q 313 -106 342 -106 l 393 8 z "},"ş":{"ha":541,"x_min":55,"x_max":491,"o":"m 448 652 l 458 435 l 435 435 q 349 567 393 532 q 260 602 304 602 q 213 584 233 602 q 193 541 193 565 q 207 505 193 522 q 328 410 229 477 q 459 295 428 342 q 491 190 491 248 q 465 86 491 137 q 390 8 438 35 q 283 -19 342 -19 q 162 9 238 -19 q 134 17 142 17 q 97 -17 112 17 l 75 -17 l 64 211 l 87 211 q 171 77 117 121 q 271 32 224 32 q 325 52 304 32 q 345 100 345 72 q 325 157 345 133 q 234 229 304 180 q 100 338 130 300 q 55 461 55 394 q 105 594 55 534 q 252 653 156 653 q 351 628 303 653 q 381 618 370 618 q 401 623 393 618 q 425 652 408 628 l 448 652 m 267 9 l 312 9 l 280 -41 q 342 -74 321 -47 q 363 -139 363 -100 q 342 -203 363 -174 q 289 -244 321 -233 q 133 -260 237 -261 l 133 -229 q 225 -207 201 -226 q 249 -153 249 -187 q 233 -119 249 -133 q 187 -106 217 -106 l 267 9 z "},"Ć":{"ha":1003,"x_min":55,"x_max":927,"o":"m 927 941 l 927 622 l 901 622 q 789 813 871 747 q 605 880 708 880 q 447 830 519 880 q 342 701 375 781 q 299 473 299 598 q 330 248 299 349 q 428 95 361 146 q 600 43 494 43 q 759 81 687 43 q 911 212 831 119 l 911 132 q 750 15 834 52 q 555 -21 667 -21 q 293 38 408 -21 q 117 208 179 97 q 55 443 55 318 q 124 692 55 574 q 310 876 193 810 q 558 941 427 941 q 763 899 655 941 q 842 874 825 874 q 880 890 864 874 q 901 941 896 906 l 927 941 m 753 1234 l 529 998 l 471 998 l 549 1234 l 753 1234 z "},"ć":{"ha":616,"x_min":53,"x_max":585,"o":"m 564 163 l 585 147 q 474 22 541 63 q 332 -19 407 -19 q 129 77 205 -19 q 53 307 53 172 q 122 534 53 436 q 352 653 205 653 q 508 604 450 653 q 566 493 566 554 q 543 431 566 454 q 481 408 519 408 q 415 435 441 408 q 383 529 389 461 q 363 589 379 572 q 327 606 348 606 q 271 571 294 606 q 236 411 236 519 q 264 240 236 321 q 342 118 293 158 q 431 89 380 89 q 494 104 464 89 q 564 163 524 120 m 541 951 l 316 715 l 258 715 l 336 951 l 541 951 z "},"Č":{"ha":1003,"x_min":55,"x_max":927,"o":"m 927 941 l 927 622 l 901 622 q 789 813 871 747 q 605 880 708 880 q 447 830 519 880 q 342 701 375 781 q 299 473 299 598 q 330 248 299 349 q 428 95 361 146 q 600 43 494 43 q 759 81 687 43 q 911 212 831 119 l 911 132 q 750 15 834 52 q 555 -21 667 -21 q 293 38 408 -21 q 117 208 179 97 q 55 443 55 318 q 124 692 55 574 q 310 876 193 810 q 558 941 427 941 q 763 899 655 941 q 842 874 825 874 q 880 890 864 874 q 901 941 896 906 l 927 941 m 476 979 l 339 1238 l 391 1238 l 553 1098 l 719 1234 l 774 1234 l 629 979 l 476 979 z "},"č":{"ha":616,"x_min":53,"x_max":585,"o":"m 564 163 l 585 147 q 474 22 541 63 q 332 -19 407 -19 q 129 77 205 -19 q 53 307 53 172 q 122 534 53 436 q 352 653 205 653 q 508 604 450 653 q 566 493 566 554 q 543 431 566 454 q 481 408 519 408 q 415 435 441 408 q 383 529 389 461 q 363 589 379 572 q 327 606 348 606 q 271 571 294 606 q 236 411 236 519 q 264 240 236 321 q 342 118 293 158 q 431 89 380 89 q 494 104 464 89 q 564 163 524 120 m 271 709 l 134 968 l 186 968 l 348 828 l 514 964 l 570 964 l 425 709 l 271 709 z "},"đ":{"ha":772,"x_min":54,"x_max":741,"o":"m 663 800 l 741 800 l 741 743 l 663 743 l 663 190 q 667 102 663 116 q 688 69 673 80 q 741 56 703 58 l 741 33 l 473 -19 l 473 81 q 388 2 425 23 q 302 -19 350 -19 q 111 90 181 -19 q 54 306 54 178 q 89 489 54 408 q 185 612 124 570 q 317 653 247 653 q 398 635 363 653 q 473 574 433 618 l 473 743 l 246 743 l 246 800 l 473 800 q 468 850 472 840 q 443 882 459 872 q 382 891 426 891 l 382 920 l 663 920 l 663 800 m 473 490 q 351 586 423 586 q 309 572 326 586 q 268 498 284 551 q 252 336 252 446 q 270 159 252 216 q 318 75 288 101 q 361 62 334 62 q 473 156 420 62 l 473 490 z "},"¯":{"ha":694,"x_min":-13,"x_max":707,"o":"m -13 1080 l 707 1080 l 707 991 l -13 991 l -13 1080 z "},"·":{"ha":463,"x_min":142,"x_max":321,"o":"m 231 568 q 295 542 269 568 q 321 479 321 516 q 294 416 321 442 q 231 390 268 390 q 168 416 194 390 q 142 479 142 442 q 168 542 142 516 q 231 568 194 568 z "},"Ă":{"ha":1003,"x_min":11,"x_max":987,"o":"m 578 262 l 253 262 l 214 172 q 195 98 195 127 q 227 41 195 60 q 317 25 245 31 l 317 0 l 11 0 l 11 25 q 92 66 60 33 q 171 205 124 100 l 500 939 l 513 939 l 844 184 q 922 50 892 77 q 987 25 945 28 l 987 0 l 543 0 l 543 25 l 561 25 q 636 40 614 25 q 651 71 651 51 q 647 96 651 83 q 627 147 646 102 l 578 262 m 555 312 l 418 629 l 277 312 l 555 312 m 661 1215 l 705 1215 q 640 1059 700 1119 q 500 998 579 998 q 361 1059 422 998 q 294 1215 300 1119 l 339 1215 q 392 1151 356 1173 q 495 1129 429 1129 q 606 1150 570 1129 q 661 1215 642 1171 z "},"ă":{"ha":694,"x_min":62,"x_max":671,"o":"m 397 94 q 189 -9 281 -9 q 98 27 134 -9 q 62 116 62 62 q 125 247 62 189 q 397 401 187 304 l 397 465 q 389 555 397 536 q 359 588 381 574 q 311 602 338 602 q 238 582 267 602 q 220 553 220 570 q 239 518 220 539 q 265 462 265 489 q 240 405 265 429 q 176 382 216 382 q 104 408 133 382 q 75 468 75 433 q 114 561 75 517 q 222 629 153 606 q 366 653 291 653 q 508 615 456 653 q 576 532 561 576 q 586 401 586 503 l 586 155 q 589 100 586 111 q 600 83 593 89 q 615 78 606 78 q 651 103 633 78 l 671 87 q 601 14 637 37 q 519 -9 565 -9 q 434 17 465 -9 q 397 94 404 42 m 397 143 l 397 355 q 275 252 315 307 q 248 178 248 216 q 271 123 248 147 q 318 105 288 105 q 397 143 352 105 m 514 941 l 558 941 q 493 784 553 844 q 354 724 433 724 q 215 784 276 724 q 148 941 154 844 l 193 941 q 246 876 210 898 q 349 854 282 854 q 460 876 424 854 q 514 941 496 897 z "},"Ą":{"ha":1003,"x_min":11,"x_max":987,"o":"m 578 262 l 253 262 l 214 172 q 195 98 195 127 q 227 41 195 60 q 317 25 245 31 l 317 0 l 11 0 l 11 25 q 92 66 60 33 q 171 205 124 100 l 500 939 l 513 939 l 844 184 q 922 50 892 77 q 987 25 945 28 l 987 0 l 543 0 l 543 25 l 561 25 q 636 40 614 25 q 651 71 651 51 q 647 96 651 83 q 627 147 646 102 l 578 262 m 555 312 l 418 629 l 277 312 l 555 312 m 877 41 q 829 8 852 28 q 788 -37 806 -12 q 759 -90 770 -62 q 747 -144 747 -117 q 754 -178 747 -163 q 773 -201 762 -192 q 799 -216 784 -211 q 827 -220 813 -220 q 861 -214 845 -220 q 890 -197 877 -208 l 903 -214 q 831 -279 867 -258 q 762 -300 795 -300 q 710 -291 733 -300 q 671 -268 687 -282 q 646 -233 654 -253 q 637 -191 637 -213 q 657 -118 637 -154 q 707 -51 677 -82 q 773 4 737 -20 q 844 41 810 28 l 877 41 z "},"ą":{"ha":694,"x_min":62,"x_max":671,"o":"m 397 94 q 189 -9 281 -9 q 98 27 134 -9 q 62 116 62 62 q 125 247 62 189 q 397 401 187 304 l 397 465 q 389 555 397 536 q 359 588 381 574 q 311 602 338 602 q 238 582 267 602 q 220 553 220 570 q 239 518 220 539 q 265 462 265 489 q 240 405 265 429 q 176 382 216 382 q 104 408 133 382 q 75 468 75 433 q 114 561 75 517 q 222 629 153 606 q 366 653 291 653 q 508 615 456 653 q 576 532 561 576 q 586 401 586 503 l 586 155 q 589 100 586 111 q 600 83 593 89 q 615 78 606 78 q 651 103 633 78 l 671 87 q 601 14 637 37 q 519 -9 565 -9 q 434 17 465 -9 q 397 94 404 42 m 397 143 l 397 355 q 275 252 315 307 q 248 178 248 216 q 271 123 248 147 q 318 105 288 105 q 397 143 352 105 m 631 41 q 584 8 607 28 q 543 -37 561 -12 q 513 -90 524 -62 q 502 -144 502 -117 q 509 -178 502 -163 q 527 -201 516 -192 q 553 -216 538 -211 q 582 -220 568 -220 q 615 -214 600 -220 q 644 -197 631 -208 l 658 -214 q 586 -279 622 -258 q 517 -300 549 -300 q 465 -291 488 -300 q 425 -268 441 -282 q 400 -233 409 -253 q 392 -191 392 -213 q 412 -118 392 -154 q 461 -51 431 -82 q 528 4 492 -20 q 598 41 564 28 l 631 41 z "},"Ď":{"ha":1003,"x_min":18,"x_max":945,"o":"m 18 0 l 18 25 l 49 25 q 110 38 89 25 q 142 72 132 50 q 148 157 148 86 l 148 762 q 140 850 148 833 q 110 881 133 868 q 49 895 87 895 l 18 895 l 18 920 l 430 920 q 695 875 595 920 q 881 709 818 820 q 945 457 945 597 q 913 278 945 360 q 833 143 882 197 q 719 58 783 90 q 560 8 654 26 q 430 0 519 0 l 18 0 m 369 867 l 369 150 q 374 80 369 93 q 393 60 380 67 q 446 50 411 50 q 618 127 559 50 q 700 452 700 232 q 644 734 700 629 q 531 847 600 817 q 369 867 482 868 m 401 979 l 264 1238 l 315 1238 l 477 1098 l 644 1234 l 699 1234 l 554 979 l 401 979 z "},"ď":{"ha":1019,"x_min":56,"x_max":1003,"o":"m 770 489 l 770 519 q 884 607 848 553 q 920 718 920 661 q 916 734 920 729 q 906 740 911 740 q 893 735 902 740 q 844 724 873 724 q 775 755 804 724 q 746 828 746 786 q 780 907 746 873 q 862 941 813 941 q 961 896 920 941 q 1003 772 1003 850 q 944 600 1003 675 q 770 489 886 524 m 666 920 l 666 190 q 670 102 666 116 q 691 69 675 80 q 744 56 706 58 l 744 33 l 476 -19 l 476 81 q 390 2 428 23 q 305 -19 353 -19 q 113 90 184 -19 q 56 306 56 178 q 92 489 56 408 q 188 612 127 570 q 320 653 250 653 q 401 635 366 653 q 476 574 436 618 l 476 765 q 470 852 476 838 q 446 882 462 872 q 385 891 429 891 l 385 920 l 666 920 m 476 490 q 353 586 426 586 q 312 572 328 586 q 271 498 287 551 q 255 336 255 446 q 273 159 255 216 q 321 75 290 101 q 363 62 336 62 q 476 156 423 62 l 476 490 z "},"Đ":{"ha":1003,"x_min":24,"x_max":950,"o":"m 24 0 l 24 25 l 54 25 q 116 38 94 25 q 147 72 137 50 q 154 157 154 87 l 154 460 l 24 460 l 24 510 l 154 510 l 154 762 q 146 850 154 833 q 116 881 138 868 q 54 895 93 895 l 24 895 l 24 920 l 436 920 q 701 875 601 920 q 887 709 824 820 q 950 457 950 597 q 919 278 950 360 q 839 143 888 197 q 724 58 789 90 q 566 8 659 26 q 436 0 525 0 l 24 0 m 375 867 l 374 510 l 578 510 l 578 460 l 374 460 l 375 150 q 380 80 375 93 q 398 60 386 67 q 451 50 417 50 q 625 127 564 50 q 705 452 705 232 q 650 734 705 629 q 537 847 606 817 q 375 867 488 868 z "},"Ę":{"ha":926,"x_min":28,"x_max":864,"o":"m 378 867 l 378 492 l 397 492 q 524 547 484 492 q 574 709 563 602 l 600 709 l 600 228 l 574 228 q 539 357 566 307 q 479 424 513 407 q 378 441 444 441 l 378 182 q 385 90 378 106 q 409 62 391 73 q 466 51 427 51 l 521 51 q 727 111 650 51 q 839 292 805 170 l 864 292 l 823 0 l 28 0 l 28 25 l 58 25 q 123 39 98 25 q 150 72 140 49 q 157 157 157 88 l 157 762 q 154 839 157 825 q 129 876 147 863 q 58 895 103 895 l 28 895 l 28 920 l 798 920 l 798 648 l 772 648 q 716 791 752 747 q 616 854 681 834 q 473 867 578 867 l 378 867 m 793 41 q 745 8 768 28 q 704 -37 722 -12 q 674 -90 686 -62 q 663 -144 663 -117 q 670 -178 663 -163 q 689 -201 677 -192 q 714 -216 700 -211 q 743 -220 729 -220 q 777 -214 761 -220 q 806 -197 793 -208 l 819 -214 q 747 -279 783 -258 q 678 -300 711 -300 q 626 -291 649 -300 q 587 -268 603 -282 q 562 -233 570 -253 q 553 -191 553 -213 q 573 -118 553 -154 q 623 -51 593 -82 q 689 4 653 -20 q 760 41 726 28 l 793 41 z "},"ę":{"ha":616,"x_min":54,"x_max":584,"o":"m 584 340 l 236 340 q 303 140 242 214 q 416 84 350 84 q 490 107 456 84 q 561 189 523 130 l 584 174 q 470 25 532 68 q 326 -19 408 -19 q 112 90 184 -19 q 54 307 54 177 q 139 559 54 465 q 340 653 225 653 q 508 574 437 653 q 584 340 578 495 m 417 385 q 405 535 417 494 q 368 597 393 576 q 330 609 354 609 q 273 574 295 609 q 233 409 233 514 l 233 385 l 417 385 m 489 41 q 441 8 465 28 q 400 -37 418 -12 q 371 -90 382 -62 q 359 -144 359 -117 q 367 -178 359 -163 q 385 -201 374 -192 q 411 -216 396 -211 q 439 -220 425 -220 q 473 -214 457 -220 q 502 -197 489 -208 l 515 -214 q 443 -279 479 -258 q 374 -300 407 -300 q 322 -291 345 -300 q 283 -268 299 -282 q 258 -233 267 -253 q 250 -191 250 -213 q 269 -118 250 -154 q 319 -51 289 -82 q 386 4 349 -20 q 456 41 422 28 l 489 41 z "},"Ě":{"ha":926,"x_min":28,"x_max":864,"o":"m 378 867 l 378 492 l 397 492 q 524 547 484 492 q 574 709 563 602 l 600 709 l 600 228 l 574 228 q 539 357 566 307 q 479 424 513 407 q 378 441 444 441 l 378 182 q 385 90 378 106 q 409 62 391 73 q 466 51 427 51 l 521 51 q 727 111 650 51 q 839 292 805 170 l 864 292 l 823 0 l 28 0 l 28 25 l 58 25 q 123 39 98 25 q 150 72 140 49 q 157 157 157 88 l 157 762 q 154 839 157 825 q 129 876 147 863 q 58 895 103 895 l 28 895 l 28 920 l 798 920 l 798 648 l 772 648 q 716 791 752 747 q 616 854 681 834 q 473 867 578 867 l 378 867 m 366 979 l 229 1238 l 280 1238 l 442 1098 l 608 1234 l 664 1234 l 519 979 l 366 979 z "},"ě":{"ha":616,"x_min":54,"x_max":584,"o":"m 584 340 l 236 340 q 303 140 242 214 q 416 84 350 84 q 490 107 456 84 q 561 189 523 130 l 584 174 q 470 25 532 68 q 326 -19 408 -19 q 112 90 184 -19 q 54 307 54 177 q 139 559 54 465 q 340 653 225 653 q 508 574 437 653 q 584 340 578 495 m 417 385 q 405 535 417 494 q 368 597 393 576 q 330 609 354 609 q 273 574 295 609 q 233 409 233 514 l 233 385 l 417 385 m 254 709 l 117 968 l 169 968 l 331 828 l 497 964 l 553 964 l 408 709 l 254 709 z "},"Ĺ":{"ha":926,"x_min":26,"x_max":877,"o":"m 877 323 l 842 0 l 26 0 l 26 25 l 56 25 q 121 39 96 25 q 148 72 138 49 q 155 157 155 88 l 155 762 q 148 850 155 833 q 118 881 140 868 q 56 895 95 895 l 26 895 l 26 920 l 516 920 l 516 895 l 476 895 q 412 880 436 895 q 384 848 394 871 q 376 762 376 831 l 376 176 q 385 86 376 106 q 416 58 393 67 q 498 52 433 52 l 575 52 q 697 77 648 52 q 782 159 746 103 q 849 323 817 214 l 877 323 m 517 1234 l 292 998 l 234 998 l 313 1234 l 517 1234 z "},"ĺ":{"ha":386,"x_min":29,"x_max":389,"o":"m 295 920 l 295 132 q 311 46 295 64 q 372 24 326 27 l 372 0 l 29 0 l 29 24 q 92 49 71 26 q 105 132 105 64 l 105 788 q 90 873 105 854 q 29 895 74 892 l 29 920 l 295 920 m 389 1234 l 164 998 l 106 998 l 184 1234 l 389 1234 z "},"Ľ":{"ha":926,"x_min":26,"x_max":877,"o":"m 629 489 l 629 519 q 743 607 707 553 q 779 718 779 661 q 774 734 779 728 q 764 740 770 740 q 752 735 760 740 q 703 724 732 724 q 634 755 663 724 q 604 828 604 786 q 638 907 604 873 q 721 941 672 941 q 820 896 779 941 q 861 772 861 850 q 803 600 861 675 q 629 489 745 524 m 877 323 l 842 0 l 26 0 l 26 25 l 56 25 q 121 39 96 25 q 148 72 138 49 q 155 157 155 88 l 155 762 q 148 850 155 833 q 118 881 140 868 q 56 895 95 895 l 26 895 l 26 920 l 516 920 l 516 895 l 476 895 q 412 880 436 895 q 384 848 394 871 q 376 762 376 831 l 376 176 q 385 86 376 106 q 416 58 393 67 q 498 52 433 52 l 575 52 q 697 77 648 52 q 782 159 746 103 q 849 323 817 214 l 877 323 z "},"ľ":{"ha":651,"x_min":28,"x_max":633,"o":"m 399 489 l 399 519 q 514 607 478 553 q 549 718 549 661 q 545 734 549 728 q 535 740 541 740 q 523 735 532 740 q 474 724 503 724 q 405 755 434 724 q 376 828 376 786 q 409 907 376 873 q 492 941 443 941 q 591 896 549 941 q 633 772 633 850 q 574 600 633 675 q 399 489 515 524 m 294 920 l 294 132 q 310 46 294 64 q 371 24 326 27 l 371 0 l 28 0 l 28 24 q 91 49 71 26 q 104 132 104 64 l 104 788 q 89 873 104 854 q 28 895 73 892 l 28 920 l 294 920 z "},"Ŀ":{"ha":926,"x_min":26,"x_max":877,"o":"m 877 323 l 842 0 l 26 0 l 26 25 l 56 25 q 121 39 96 25 q 148 72 138 49 q 155 157 155 88 l 155 762 q 148 850 155 833 q 118 881 140 868 q 56 895 95 895 l 26 895 l 26 920 l 516 920 l 516 895 l 476 895 q 412 880 436 895 q 384 848 394 871 q 376 762 376 831 l 376 176 q 385 86 376 106 q 416 58 393 67 q 498 52 433 52 l 575 52 q 697 77 648 52 q 782 159 746 103 q 849 323 817 214 l 877 323 m 469 538 q 533 512 507 538 q 559 450 559 486 q 532 386 559 412 q 469 360 506 360 q 406 386 432 360 q 380 450 380 412 q 406 512 380 486 q 469 538 432 538 z "},"ŀ":{"ha":549,"x_min":29,"x_max":550,"o":"m 295 920 l 295 132 q 311 46 295 64 q 372 24 326 27 l 372 0 l 29 0 l 29 24 q 92 49 71 26 q 105 132 105 64 l 105 788 q 90 873 105 854 q 29 895 74 892 l 29 920 l 295 920 m 460 549 q 524 523 498 549 q 550 460 550 496 q 524 396 550 422 q 460 370 497 370 q 397 396 423 370 q 371 460 371 422 q 397 523 371 496 q 460 549 423 549 z "},"Ń":{"ha":1003,"x_min":20,"x_max":970,"o":"m 346 920 l 800 349 l 800 745 q 776 857 800 827 q 667 895 743 896 l 667 920 l 970 920 l 970 895 q 892 875 912 887 q 861 837 872 863 q 850 745 850 810 l 850 -21 l 827 -21 l 205 745 l 205 160 q 241 53 205 81 q 324 25 277 25 l 346 25 l 346 0 l 20 0 l 20 25 q 125 56 96 26 q 155 160 155 87 l 155 809 l 136 833 q 84 882 106 870 q 20 895 62 893 l 20 920 l 346 920 m 700 1234 l 475 998 l 417 998 l 496 1234 l 700 1234 z "},"ń":{"ha":772,"x_min":47,"x_max":732,"o":"m 306 634 l 306 552 q 399 629 355 605 q 496 653 444 653 q 598 619 557 653 q 652 534 639 585 q 663 385 663 495 l 663 138 q 676 47 663 65 q 732 24 690 29 l 732 0 l 411 0 l 411 24 q 463 54 447 29 q 473 138 473 71 l 473 420 q 467 519 473 498 q 447 550 461 539 q 414 562 432 562 q 306 478 356 562 l 306 138 q 319 48 306 67 q 368 24 332 29 l 368 0 l 47 0 l 47 24 q 104 50 87 28 q 116 138 116 65 l 116 496 q 103 586 116 568 q 47 609 90 604 l 47 634 l 306 634 m 578 951 l 354 715 l 296 715 l 374 951 l 578 951 z "},"Ň":{"ha":1003,"x_min":20,"x_max":970,"o":"m 346 920 l 800 349 l 800 745 q 776 857 800 827 q 667 895 743 896 l 667 920 l 970 920 l 970 895 q 892 875 912 887 q 861 837 872 863 q 850 745 850 810 l 850 -21 l 827 -21 l 205 745 l 205 160 q 241 53 205 81 q 324 25 277 25 l 346 25 l 346 0 l 20 0 l 20 25 q 125 56 96 26 q 155 160 155 87 l 155 809 l 136 833 q 84 882 106 870 q 20 895 62 893 l 20 920 l 346 920 m 431 979 l 294 1238 l 345 1238 l 507 1098 l 673 1234 l 729 1234 l 584 979 l 431 979 z "},"ň":{"ha":772,"x_min":47,"x_max":732,"o":"m 306 634 l 306 552 q 399 629 355 605 q 496 653 444 653 q 598 619 557 653 q 652 534 639 585 q 663 385 663 495 l 663 138 q 676 47 663 65 q 732 24 690 29 l 732 0 l 411 0 l 411 24 q 463 54 447 29 q 473 138 473 71 l 473 420 q 467 519 473 498 q 447 550 461 539 q 414 562 432 562 q 306 478 356 562 l 306 138 q 319 48 306 67 q 368 24 332 29 l 368 0 l 47 0 l 47 24 q 104 50 87 28 q 116 138 116 65 l 116 496 q 103 586 116 568 q 47 609 90 604 l 47 634 l 306 634 m 309 709 l 172 968 l 224 968 l 386 828 l 552 964 l 608 964 l 463 709 l 309 709 z "},"Ő":{"ha":1080,"x_min":54,"x_max":1031,"o":"m 536 932 q 893 804 756 941 q 1031 463 1031 668 q 928 155 1031 288 q 545 -21 793 -21 q 161 147 297 -21 q 54 463 54 280 q 194 804 54 667 q 536 932 333 941 m 545 889 q 353 760 418 889 q 299 456 299 654 q 382 109 299 221 q 543 30 439 30 q 660 64 613 30 q 753 202 720 107 q 786 451 786 298 q 752 724 786 633 q 666 852 718 814 q 545 889 613 889 m 607 1233 l 441 999 l 387 999 l 466 1233 l 607 1233 m 823 1233 l 659 999 l 606 999 l 683 1233 l 823 1233 z "},"ő":{"ha":694,"x_min":50,"x_max":645,"o":"m 346 653 q 500 610 429 653 q 608 489 571 568 q 645 317 645 410 q 576 91 645 182 q 348 -19 494 -19 q 127 81 205 -19 q 50 314 50 182 q 129 552 50 450 q 346 653 208 653 m 349 605 q 289 579 314 605 q 257 476 264 553 q 249 262 249 399 q 258 126 249 189 q 290 53 266 78 q 346 28 315 28 q 397 45 376 28 q 432 109 423 68 q 446 370 446 174 q 433 528 446 485 q 395 591 420 571 q 349 605 377 605 m 412 951 l 246 717 l 192 717 l 271 951 l 412 951 m 627 951 l 464 717 l 410 717 l 488 951 l 627 951 z "},"Ŕ":{"ha":1003,"x_min":26,"x_max":1015,"o":"m 369 419 l 369 161 q 378 67 369 87 q 410 37 387 48 q 496 25 433 25 l 496 0 l 26 0 l 26 25 q 112 37 90 25 q 144 68 135 49 q 153 161 153 87 l 153 758 q 144 852 153 833 q 112 883 135 871 q 26 895 89 895 l 26 920 l 453 920 q 697 897 620 920 q 823 811 774 873 q 872 666 872 749 q 799 498 872 564 q 668 435 752 456 l 889 123 q 951 48 932 63 q 1015 25 979 27 l 1015 0 l 726 0 l 429 419 l 369 419 m 369 870 l 369 467 l 408 467 q 549 485 502 467 q 622 547 595 502 q 649 665 649 592 q 600 820 649 770 q 441 870 551 870 l 369 870 m 701 1234 l 477 998 l 418 998 l 497 1234 l 701 1234 z "},"ŕ":{"ha":616,"x_min":51,"x_max":595,"o":"m 310 634 l 310 490 q 420 621 373 589 q 512 653 468 653 q 573 630 550 653 q 595 564 595 606 q 573 493 595 518 q 520 468 551 468 q 458 491 484 468 q 427 517 431 514 q 411 521 420 521 q 374 506 391 521 q 332 440 346 483 q 310 295 310 374 l 310 149 l 311 111 q 315 62 311 73 q 339 35 323 43 q 393 24 355 26 l 393 0 l 51 0 l 51 24 q 107 47 92 28 q 121 149 121 66 l 121 500 q 116 569 121 554 q 96 597 109 588 q 51 609 83 606 l 51 634 l 310 634 m 512 951 l 288 715 l 229 715 l 308 951 l 512 951 z "},"Ř":{"ha":1003,"x_min":26,"x_max":1015,"o":"m 369 419 l 369 161 q 378 67 369 87 q 410 37 387 48 q 496 25 433 25 l 496 0 l 26 0 l 26 25 q 112 37 90 25 q 144 68 135 49 q 153 161 153 87 l 153 758 q 144 852 153 833 q 112 883 135 871 q 26 895 89 895 l 26 920 l 453 920 q 697 897 620 920 q 823 811 774 873 q 872 666 872 749 q 799 498 872 564 q 668 435 752 456 l 889 123 q 951 48 932 63 q 1015 25 979 27 l 1015 0 l 726 0 l 429 419 l 369 419 m 369 870 l 369 467 l 408 467 q 549 485 502 467 q 622 547 595 502 q 649 665 649 592 q 600 820 649 770 q 441 870 551 870 l 369 870 m 424 979 l 287 1238 l 338 1238 l 500 1098 l 667 1234 l 722 1234 l 577 979 l 424 979 z "},"ř":{"ha":616,"x_min":51,"x_max":595,"o":"m 310 634 l 310 490 q 420 621 373 589 q 512 653 468 653 q 573 630 550 653 q 595 564 595 606 q 573 493 595 518 q 520 468 551 468 q 458 491 484 468 q 427 517 431 514 q 411 521 420 521 q 374 506 391 521 q 332 440 346 483 q 310 295 310 374 l 310 149 l 311 111 q 315 62 311 73 q 339 35 323 43 q 393 24 355 26 l 393 0 l 51 0 l 51 24 q 107 47 92 28 q 121 149 121 66 l 121 500 q 116 569 121 554 q 96 597 109 588 q 51 609 83 606 l 51 634 l 310 634 m 243 709 l 106 968 l 157 968 l 319 828 l 486 964 l 541 964 l 396 709 l 243 709 z "},"Ś":{"ha":772,"x_min":72,"x_max":717,"o":"m 652 941 l 660 634 l 632 634 q 535 820 612 749 q 369 890 458 890 q 259 853 300 890 q 219 768 219 816 q 233 713 219 737 q 296 650 253 682 q 444 571 328 628 q 661 421 605 492 q 717 260 717 351 q 627 61 717 144 q 399 -22 537 -22 q 317 -13 355 -22 q 220 20 278 -4 q 166 34 187 34 q 129 20 149 34 q 97 -21 109 7 l 72 -21 l 72 326 l 97 326 q 212 103 127 180 q 395 26 297 26 q 516 67 471 26 q 562 163 562 109 q 544 227 562 196 q 492 284 527 257 q 367 356 456 312 q 186 461 241 418 q 102 558 132 505 q 73 676 73 612 q 153 863 73 786 q 357 941 234 941 q 444 930 401 941 q 521 900 475 922 q 585 878 567 878 q 613 888 603 878 q 632 941 623 899 l 652 941 m 583 1234 l 358 998 l 300 998 l 378 1234 l 583 1234 z "},"ś":{"ha":541,"x_min":55,"x_max":491,"o":"m 448 652 l 458 435 l 435 435 q 349 567 393 532 q 260 602 304 602 q 213 584 233 602 q 193 541 193 565 q 207 505 193 522 q 328 410 229 477 q 459 295 428 342 q 491 190 491 248 q 465 86 491 137 q 390 8 438 35 q 283 -19 342 -19 q 162 9 238 -19 q 134 17 142 17 q 97 -17 112 17 l 75 -17 l 64 211 l 87 211 q 171 77 117 121 q 271 32 224 32 q 325 52 304 32 q 345 100 345 72 q 325 157 345 133 q 234 229 304 180 q 100 338 130 300 q 55 461 55 394 q 105 594 55 534 q 252 653 156 653 q 351 628 303 653 q 381 618 370 618 q 401 623 393 618 q 425 652 408 628 l 448 652 m 462 951 l 237 715 l 179 715 l 258 951 l 462 951 z "},"Ţ":{"ha":926,"x_min":50,"x_max":876,"o":"m 876 920 l 876 671 l 852 671 q 804 794 830 757 q 731 854 777 832 q 641 867 705 867 l 572 867 l 572 157 q 580 69 572 87 q 611 38 588 52 q 673 25 633 25 l 703 25 l 703 0 l 222 0 l 222 25 l 252 25 q 317 39 292 25 q 345 72 334 49 q 352 157 352 88 l 352 867 l 286 867 q 151 827 193 867 q 76 671 92 772 l 50 671 l 50 920 l 876 920 m 450 8 l 494 8 l 463 -41 q 525 -74 503 -48 q 546 -140 546 -100 q 525 -204 546 -175 q 471 -245 504 -233 q 315 -261 420 -262 l 315 -229 q 407 -207 383 -227 q 431 -154 431 -188 q 415 -120 431 -134 q 370 -106 399 -106 l 450 8 z "},"ţ":{"ha":463,"x_min":26,"x_max":449,"o":"m 298 866 l 298 634 l 449 634 l 449 567 l 298 567 l 298 176 q 303 105 298 121 q 321 79 309 89 q 345 69 334 69 q 429 136 389 69 l 449 121 q 271 -9 394 -9 q 169 25 210 -9 q 115 100 127 58 q 109 224 109 123 l 109 567 l 26 567 l 26 591 q 171 718 111 651 q 276 866 231 784 l 298 866 m 253 8 l 298 8 l 266 -41 q 328 -74 307 -48 q 349 -140 349 -100 q 328 -204 349 -175 q 275 -245 307 -233 q 119 -261 223 -262 l 119 -229 q 211 -207 186 -227 q 235 -154 235 -188 q 219 -120 235 -134 q 173 -106 203 -106 l 253 8 z "},"Ť":{"ha":926,"x_min":50,"x_max":876,"o":"m 876 920 l 876 671 l 852 671 q 804 794 830 757 q 731 854 777 832 q 641 867 705 867 l 572 867 l 572 157 q 580 69 572 87 q 611 38 588 52 q 673 25 633 25 l 703 25 l 703 0 l 222 0 l 222 25 l 252 25 q 317 39 292 25 q 345 72 334 49 q 352 157 352 88 l 352 867 l 286 867 q 151 827 193 867 q 76 671 92 772 l 50 671 l 50 920 l 876 920 m 382 979 l 245 1238 l 297 1238 l 459 1098 l 625 1234 l 681 1234 l 536 979 l 382 979 z "},"ť":{"ha":724,"x_min":25,"x_max":707,"o":"m 474 489 l 474 519 q 588 607 553 553 q 624 718 624 661 q 620 734 624 728 q 610 740 615 740 q 597 735 606 740 q 549 724 578 724 q 479 755 509 724 q 450 828 450 786 q 484 907 450 873 q 566 941 517 941 q 665 896 624 941 q 707 772 707 850 q 648 600 707 675 q 474 489 590 524 m 298 866 l 298 634 l 448 634 l 448 567 l 298 567 l 298 176 q 303 105 298 121 q 321 79 308 89 q 345 69 334 69 q 428 136 389 69 l 448 121 q 270 -9 393 -9 q 168 25 210 -9 q 115 100 126 58 q 108 224 108 123 l 108 567 l 25 567 l 25 591 q 171 718 111 651 q 275 866 231 784 l 298 866 z "},"Ů":{"ha":1003,"x_min":33,"x_max":979,"o":"m 33 920 l 507 920 l 507 895 l 484 895 q 410 883 430 895 q 381 852 390 872 q 373 754 373 833 l 373 304 q 392 140 373 180 q 453 74 410 100 q 561 47 496 47 q 688 81 635 47 q 767 174 741 115 q 793 379 793 233 l 793 754 q 780 842 793 816 q 747 879 767 869 q 661 895 717 895 l 661 920 l 979 920 l 979 895 l 960 895 q 896 879 922 895 q 859 832 870 863 q 850 754 850 810 l 850 405 q 828 171 850 243 q 724 39 807 99 q 498 -22 642 -22 q 314 10 379 -22 q 189 121 225 54 q 152 304 152 189 l 152 754 q 143 853 152 833 q 113 884 134 872 q 33 895 91 895 l 33 920 m 516 1260 q 617 1219 576 1260 q 659 1118 659 1177 q 617 1018 659 1059 q 516 976 575 976 q 416 1018 458 976 q 374 1118 374 1059 q 416 1219 374 1177 q 516 1260 457 1260 m 517 1208 q 453 1182 479 1208 q 427 1118 427 1156 q 453 1055 427 1081 q 517 1029 479 1029 q 580 1055 553 1029 q 606 1118 606 1081 q 580 1182 606 1156 q 517 1208 554 1208 z "},"ů":{"ha":772,"x_min":43,"x_max":728,"o":"m 659 634 l 659 138 q 673 47 659 65 q 728 24 686 29 l 728 0 l 469 0 l 469 85 q 378 6 424 31 q 277 -19 333 -19 q 181 14 223 -19 q 125 91 140 47 q 111 245 111 135 l 111 496 q 98 586 111 568 q 43 609 85 604 l 43 634 l 301 634 l 301 201 q 308 113 301 133 q 328 83 314 94 q 360 73 342 73 q 404 86 385 73 q 469 157 431 104 l 469 496 q 456 586 469 568 q 401 609 443 604 l 401 634 l 659 634 m 385 975 q 486 933 445 975 q 528 833 528 892 q 486 732 528 774 q 385 690 444 690 q 285 732 327 690 q 243 833 243 774 q 285 933 243 892 q 385 975 326 975 m 386 922 q 322 896 348 922 q 296 833 296 870 q 322 769 296 795 q 386 743 349 743 q 449 769 422 743 q 475 833 475 795 q 449 896 475 870 q 386 922 423 922 z "},"Ű":{"ha":1003,"x_min":33,"x_max":979,"o":"m 33 920 l 507 920 l 507 895 l 484 895 q 410 883 430 895 q 381 852 390 872 q 373 754 373 833 l 373 304 q 392 140 373 180 q 453 74 410 100 q 561 47 496 47 q 688 81 635 47 q 767 174 741 115 q 793 379 793 233 l 793 754 q 780 842 793 816 q 747 879 767 869 q 661 895 717 895 l 661 920 l 979 920 l 979 895 l 960 895 q 896 879 922 895 q 859 832 870 863 q 850 754 850 810 l 850 405 q 828 171 850 243 q 724 39 807 99 q 498 -22 642 -22 q 314 10 379 -22 q 189 121 225 54 q 152 304 152 189 l 152 754 q 143 853 152 833 q 113 884 134 872 q 33 895 91 895 l 33 920 m 555 1233 l 389 999 l 335 999 l 414 1233 l 555 1233 m 770 1233 l 607 999 l 553 999 l 631 1233 l 770 1233 z "},"ű":{"ha":772,"x_min":43,"x_max":728,"o":"m 659 634 l 659 138 q 673 47 659 65 q 728 24 686 29 l 728 0 l 469 0 l 469 85 q 378 6 424 31 q 277 -19 333 -19 q 181 14 223 -19 q 125 91 140 47 q 111 245 111 135 l 111 496 q 98 586 111 568 q 43 609 85 604 l 43 634 l 301 634 l 301 201 q 308 113 301 133 q 328 83 314 94 q 360 73 342 73 q 404 86 385 73 q 469 157 431 104 l 469 496 q 456 586 469 568 q 401 609 443 604 l 401 634 l 659 634 m 450 951 l 284 717 l 230 717 l 309 951 l 450 951 m 665 951 l 502 717 l 448 717 l 526 951 l 665 951 z "},"Ź":{"ha":926,"x_min":22,"x_max":902,"o":"m 848 920 l 307 52 l 482 52 q 656 67 606 52 q 795 157 736 92 q 876 332 853 222 l 902 332 l 865 0 l 22 0 l 564 869 l 427 869 q 323 865 348 869 q 234 830 275 856 q 164 760 192 804 q 121 650 137 717 l 96 650 l 121 920 l 848 920 m 684 1234 l 459 998 l 401 998 l 479 1234 l 684 1234 z "},"ź":{"ha":616,"x_min":14,"x_max":594,"o":"m 566 0 l 14 0 l 14 15 l 363 593 l 261 593 q 167 581 195 593 q 121 543 138 569 q 84 450 103 517 l 60 450 l 60 634 l 594 634 l 594 616 l 248 43 l 292 43 q 479 81 422 43 q 566 217 537 118 l 585 217 l 566 0 m 526 951 l 301 715 l 243 715 l 321 951 l 526 951 z "},"Ż":{"ha":926,"x_min":22,"x_max":902,"o":"m 848 920 l 307 52 l 482 52 q 656 67 606 52 q 795 157 736 92 q 876 332 853 222 l 902 332 l 865 0 l 22 0 l 564 869 l 427 869 q 323 865 348 869 q 234 830 275 856 q 164 760 192 804 q 121 650 137 717 l 96 650 l 121 920 l 848 920 m 479 1190 q 549 1161 520 1190 q 578 1090 578 1132 q 549 1020 578 1049 q 479 991 520 991 q 408 1020 437 991 q 379 1090 379 1049 q 408 1161 379 1132 q 479 1190 437 1190 z "},"ż":{"ha":616,"x_min":14,"x_max":594,"o":"m 566 0 l 14 0 l 14 15 l 363 593 l 261 593 q 167 581 195 593 q 121 543 138 569 q 84 450 103 517 l 60 450 l 60 634 l 594 634 l 594 616 l 248 43 l 292 43 q 479 81 422 43 q 566 217 537 118 l 585 217 l 566 0 m 337 928 q 408 899 378 928 q 437 828 437 869 q 408 758 437 787 q 337 728 378 728 q 267 758 296 728 q 237 828 237 787 q 267 899 237 869 q 337 928 296 928 z "},"Γ":{"ha":884,"x_min":28,"x_max":839,"o":"m 28 920 l 839 920 l 839 670 l 814 670 q 772 800 798 762 q 710 849 747 838 q 565 860 673 860 l 378 860 l 378 145 q 400 46 378 68 q 484 25 423 25 l 507 25 l 507 0 l 28 0 l 28 25 l 54 25 q 135 48 113 25 q 157 145 157 71 l 157 780 q 139 868 157 842 q 57 895 121 895 l 28 895 l 28 920 z "},"Θ":{"ha":1080,"x_min":52,"x_max":1029,"o":"m 543 941 q 893 802 758 941 q 1029 463 1029 663 q 897 121 1029 263 q 543 -21 764 -21 q 280 44 391 -21 q 111 220 170 109 q 52 463 52 332 q 118 713 52 605 q 296 881 184 821 q 543 941 408 941 m 543 889 q 362 782 427 889 q 297 456 297 675 q 359 141 297 252 q 541 30 421 30 q 720 135 656 30 q 784 451 784 240 q 543 889 784 889 m 423 285 l 397 285 l 397 623 l 423 623 q 447 554 423 574 q 541 534 471 534 q 634 554 609 534 q 659 623 659 574 l 684 623 l 684 285 l 659 285 q 553 374 659 374 q 469 367 491 374 q 435 339 447 360 q 423 285 423 317 z "},"Φ":{"ha":1152,"x_min":53,"x_max":1099,"o":"m 815 25 l 815 0 l 335 0 l 335 25 q 440 47 416 26 q 465 132 464 68 q 146 247 240 142 q 53 468 53 351 q 146 686 53 585 q 465 800 239 788 q 437 875 463 855 q 335 895 411 895 l 335 920 l 815 920 l 815 895 q 714 876 740 895 q 686 800 689 858 q 999 693 899 793 q 1099 468 1099 592 q 1004 245 1099 350 q 686 132 909 141 q 711 46 686 68 q 815 25 736 25 m 465 747 q 274 460 274 742 q 465 184 274 196 l 465 747 m 686 184 q 829 252 780 185 q 878 467 878 318 q 686 747 878 743 l 686 184 z "},"α":{"ha":775,"x_min":59,"x_max":745,"o":"m 520 634 l 706 634 l 642 334 q 597 168 618 226 q 622 109 603 132 q 662 85 642 85 q 720 185 717 85 l 745 185 q 719 23 744 65 q 659 -19 694 -19 q 570 117 596 -19 q 338 -19 495 -19 q 136 68 213 -19 q 59 295 59 156 q 135 547 59 440 q 320 653 212 653 q 414 617 376 653 q 491 498 453 582 l 520 634 m 473 414 q 405 563 434 526 q 338 599 376 599 q 280 552 302 599 q 258 277 258 505 q 272 87 258 146 q 326 28 286 28 q 379 60 353 28 q 435 235 404 91 l 473 414 z "},"δ":{"ha":721,"x_min":50,"x_max":664,"o":"m 336 589 l 234 669 q 170 739 186 707 q 153 804 153 770 q 199 900 153 860 q 344 941 244 941 q 513 909 446 941 q 580 823 580 878 q 559 777 580 793 q 511 760 539 760 q 408 825 464 760 q 295 889 354 889 q 232 870 260 889 q 203 814 203 852 q 236 750 203 779 q 355 684 269 721 q 532 595 479 631 q 625 482 585 559 q 664 309 664 405 q 570 75 664 168 q 347 -19 476 -19 q 138 66 226 -19 q 50 289 50 151 q 336 589 50 519 m 366 551 q 278 475 307 526 q 248 291 248 424 q 274 78 248 126 q 349 30 299 30 q 463 260 463 30 q 366 551 463 426 z "},"ε":{"ha":593,"x_min":44,"x_max":573,"o":"m 281 330 q 75 489 75 364 q 138 605 75 557 q 349 653 201 653 q 512 619 462 653 q 562 538 562 585 q 543 492 562 511 q 488 472 524 472 q 434 489 452 472 q 415 524 415 507 q 419 547 415 530 q 423 572 423 565 q 355 606 423 606 q 259 477 259 606 q 279 381 259 404 q 347 358 299 358 q 401 361 365 358 q 420 362 413 362 q 458 335 458 362 q 422 310 458 310 q 375 313 410 310 q 352 313 362 313 q 256 170 256 313 q 355 28 256 28 q 407 42 384 28 q 431 75 431 56 q 429 90 431 81 q 425 124 425 112 q 446 169 425 153 q 496 185 467 185 q 553 164 533 185 q 573 112 573 142 q 509 19 573 58 q 342 -19 446 -19 q 124 32 204 -19 q 44 160 44 82 q 96 263 44 216 q 281 330 147 310 z "},"σ":{"ha":755,"x_min":50,"x_max":725,"o":"m 725 634 l 725 474 l 492 474 q 669 237 669 386 q 589 56 669 132 q 379 -19 508 -19 q 138 90 226 -19 q 50 335 50 199 q 100 501 50 433 q 242 602 151 569 q 526 634 334 634 l 725 634 m 427 474 q 290 427 340 473 q 239 267 239 382 q 286 97 239 168 q 385 26 332 26 q 457 84 431 26 q 482 245 482 143 q 427 474 482 365 z "},"τ":{"ha":640,"x_min":1,"x_max":610,"o":"m 395 474 l 386 294 q 384 222 384 248 q 435 84 384 84 q 494 186 486 84 l 519 186 q 474 37 518 94 q 353 -19 431 -19 q 227 143 227 -19 q 241 302 227 207 l 265 474 l 173 474 q 78 459 111 474 q 24 404 46 445 l 1 414 q 70 561 29 509 q 148 624 111 613 q 288 634 184 634 l 610 634 l 610 474 l 395 474 z "},"φ":{"ha":867,"x_min":54,"x_max":812,"o":"m 488 -297 l 375 -297 l 375 -18 q 137 97 220 -5 q 54 325 54 198 q 138 552 54 454 q 359 653 221 650 l 359 627 q 268 538 296 608 q 240 321 240 467 q 375 25 240 49 l 375 429 q 389 553 375 507 q 445 626 404 598 q 538 653 486 653 q 724 565 635 653 q 812 336 812 477 q 773 167 812 249 q 658 35 734 85 q 488 -18 582 -16 l 488 -297 m 488 25 q 624 311 624 51 q 592 517 624 459 q 526 576 560 576 q 495 543 503 576 q 488 399 488 510 l 488 25 z "},"‗":{"ha":694,"x_min":-13,"x_max":707,"o":"m -13 -72 l 707 -72 l 707 -160 l -13 -160 l -13 -72 m -13 -211 l 707 -211 l 707 -300 l -13 -300 l -13 -211 z "},"‼":{"ha":839,"x_min":119,"x_max":720,"o":"m 247 299 l 217 299 q 186 486 212 376 l 151 634 q 119 825 119 767 q 150 909 119 877 q 231 941 181 941 q 312 908 280 941 q 345 827 345 876 q 311 634 345 775 l 275 486 q 247 299 256 408 m 233 202 q 310 170 278 202 q 342 92 342 138 q 310 14 342 46 q 233 -18 278 -18 q 155 14 187 -18 q 123 92 123 46 q 155 170 123 137 q 233 202 186 202 m 622 299 l 592 299 q 561 486 587 376 l 526 634 q 494 825 494 767 q 525 909 494 877 q 606 941 556 941 q 687 908 655 941 q 720 827 720 876 q 686 634 720 775 l 650 486 q 622 299 631 408 m 608 202 q 685 170 653 202 q 718 92 718 138 q 685 14 718 46 q 608 -18 653 -18 q 530 14 562 -18 q 498 92 498 46 q 530 170 498 137 q 608 202 562 202 z "},"ⁿ":{"ha":483,"x_min":29,"x_max":463,"o":"m 195 760 l 195 712 q 312 771 252 771 q 373 753 347 771 q 409 708 399 736 q 419 608 419 680 l 419 463 q 425 415 419 422 q 463 400 432 406 l 463 376 l 258 376 l 258 400 q 284 408 271 400 q 294 421 291 412 q 298 463 298 429 l 298 629 q 294 685 298 674 q 282 701 291 695 q 260 707 273 707 q 195 661 224 707 l 195 463 q 201 414 195 423 q 233 400 208 405 l 233 376 l 29 376 l 29 400 q 67 415 60 406 q 73 463 73 422 l 73 674 q 67 722 73 714 q 29 736 60 730 l 29 760 l 195 760 z "},"₧":{"ha":1345,"x_min":26,"x_max":1324,"o":"m 26 920 l 378 920 q 564 892 492 920 q 681 813 637 865 q 727 709 712 777 q 814 844 780 760 l 837 844 l 837 621 l 1014 621 q 1082 635 1050 635 q 1115 632 1102 635 q 1164 617 1128 629 q 1215 604 1200 604 q 1255 637 1239 604 l 1278 637 l 1288 427 l 1265 427 q 1196 544 1247 500 q 1097 588 1145 588 q 1044 570 1065 588 q 1023 530 1023 551 q 1040 490 1023 511 q 1138 418 1056 469 q 1251 338 1221 366 q 1303 269 1282 311 q 1324 178 1324 227 q 1268 39 1324 96 q 1131 -18 1212 -18 q 1007 13 1076 -18 q 980 21 988 21 q 940 -17 957 21 l 918 -17 l 914 47 q 867 0 890 13 q 799 -17 837 -17 q 723 5 758 -17 q 672 63 689 26 q 655 178 655 100 l 655 509 q 526 441 600 464 q 338 419 452 418 l 307 419 l 307 150 q 321 59 307 83 q 362 28 335 36 q 429 24 378 24 l 429 0 l 26 0 l 26 24 q 90 63 71 31 q 102 155 102 84 l 102 766 q 87 863 102 842 q 26 896 65 890 l 26 920 m 307 870 l 307 467 q 451 515 401 465 q 500 667 500 565 q 476 788 500 741 q 418 853 451 836 q 329 870 386 870 l 307 870 m 837 557 l 837 149 q 843 92 837 112 q 858 69 848 77 q 873 64 864 64 q 911 95 892 64 l 905 205 l 928 205 q 1018 66 973 103 q 1107 30 1063 30 q 1167 52 1144 30 q 1190 106 1190 74 q 1165 162 1190 132 q 1065 238 1141 192 q 961 310 989 285 q 916 370 933 334 q 899 450 899 405 q 934 557 899 507 l 837 557 z "},"←":{"ha":1389,"x_min":54,"x_max":1335,"o":"m 334 594 l 385 594 q 325 482 345 514 q 253 385 305 450 l 1335 385 l 1335 316 l 253 316 q 387 106 323 243 l 334 106 q 184 255 247 204 q 54 338 121 305 l 54 368 q 178 445 113 393 q 334 594 244 496 z "},"↑":{"ha":694,"x_min":104,"x_max":591,"o":"m 104 628 q 253 784 202 718 q 330 908 304 850 l 361 908 q 443 778 393 841 q 591 627 494 715 l 591 575 q 382 709 455 639 l 382 -291 l 313 -291 l 313 709 q 216 637 248 657 q 104 576 184 616 l 104 628 z "},"→":{"ha":1389,"x_min":54,"x_max":1335,"o":"m 1055 594 q 1211 445 1145 496 q 1335 368 1276 393 l 1335 338 q 1204 255 1267 305 q 1054 106 1141 204 l 1002 106 q 1135 316 1065 243 l 54 316 l 54 385 l 1135 385 q 1063 482 1084 450 q 1003 594 1043 514 l 1055 594 z "},"↓":{"ha":694,"x_min":104,"x_max":591,"o":"m 104 -11 l 104 41 q 216 -20 184 1 q 313 -92 248 -40 l 313 908 l 382 908 l 382 -92 q 591 42 455 -22 l 591 -10 q 443 -161 494 -98 q 361 -291 393 -224 l 330 -291 q 253 -167 304 -233 q 104 -11 202 -101 z "},"↔":{"ha":1389,"x_min":54,"x_max":1335,"o":"m 1335 366 l 1335 336 q 1209 257 1271 307 q 1059 107 1147 208 l 1005 107 q 1137 318 1052 224 l 252 318 q 383 107 336 224 l 329 107 q 179 257 241 208 q 54 336 117 307 l 54 366 q 179 445 117 396 q 329 595 241 494 l 383 595 q 252 385 336 479 l 1137 385 q 1005 595 1052 479 l 1059 595 q 1209 445 1147 494 q 1335 366 1271 396 z "},"↕":{"ha":694,"x_min":103,"x_max":591,"o":"m 332 992 l 362 992 q 441 866 392 928 q 591 716 490 804 l 591 662 q 380 794 475 709 l 380 -92 q 591 40 475 -6 l 591 -14 q 441 -164 490 -102 q 362 -290 392 -226 l 332 -290 q 253 -164 302 -226 q 103 -14 203 -102 l 103 40 q 314 -92 219 -6 l 314 794 q 103 662 219 709 l 103 716 q 253 866 203 804 q 332 992 302 928 z "},"↨":{"ha":694,"x_min":103,"x_max":591,"o":"m 332 992 l 362 992 q 441 866 392 928 q 591 716 490 804 l 591 662 q 380 794 475 709 l 380 -92 q 591 40 475 -6 l 591 -14 q 441 -164 490 -102 q 362 -290 392 -226 l 332 -290 q 253 -164 302 -226 q 103 -14 203 -102 l 103 40 q 314 -92 219 -6 l 314 794 q 103 662 219 709 l 103 716 q 253 866 203 804 q 332 992 302 928 m 104 -354 l 591 -354 l 591 -420 l 104 -420 l 104 -354 z "},"∟":{"ha":1360,"x_min":245,"x_max":1114,"o":"m 245 867 l 313 867 l 313 68 l 1114 68 l 1114 0 l 245 0 l 245 867 z "},"∩":{"ha":998,"x_min":123,"x_max":875,"o":"m 211 0 l 123 0 l 123 404 q 127 618 123 572 q 158 752 136 699 q 228 855 180 804 q 348 938 277 906 q 500 969 419 969 q 647 939 576 969 q 769 857 717 909 q 843 746 821 804 q 872 601 865 688 q 875 404 875 566 l 875 0 l 788 0 l 788 408 q 784 597 788 555 q 760 715 777 671 q 707 797 743 758 q 615 860 671 835 q 499 884 559 884 q 381 858 439 884 q 285 790 322 832 q 233 697 248 747 q 214 578 218 646 q 211 408 211 542 l 211 0 z "},"≡":{"ha":791,"x_min":25,"x_max":767,"o":"m 25 724 l 767 724 l 767 635 l 25 635 l 25 724 m 25 502 l 767 502 l 767 414 l 25 414 l 25 502 m 25 280 l 767 280 l 767 192 l 25 192 l 25 280 z "},"⌂":{"ha":833,"x_min":104,"x_max":730,"o":"m 104 0 l 104 430 l 416 782 l 730 430 l 730 0 l 104 0 m 159 55 l 675 55 l 675 407 l 416 696 l 159 407 l 159 55 z "},"⌐":{"ha":791,"x_min":24,"x_max":766,"o":"m 766 612 l 766 525 l 111 526 l 111 303 l 24 303 l 24 612 l 766 612 z "},"⌠":{"ha":839,"x_min":370,"x_max":662,"o":"m 469 -349 l 370 -349 l 370 879 q 431 1103 370 1027 q 568 1178 492 1178 q 638 1156 614 1178 q 662 1104 662 1134 q 645 1059 662 1077 q 602 1042 627 1042 q 564 1052 582 1042 q 535 1083 551 1059 q 504 1108 519 1108 q 483 1100 492 1108 q 473 1082 476 1095 q 469 987 469 1059 l 469 -349 z "},"⌡":{"ha":839,"x_min":177,"x_max":469,"o":"m 370 1178 l 469 1178 l 469 -50 q 408 -274 469 -199 q 271 -349 347 -349 q 201 -327 225 -349 q 177 -275 177 -305 q 194 -231 177 -248 q 236 -213 212 -213 q 276 -224 257 -213 q 304 -255 288 -231 q 335 -279 319 -279 q 356 -272 347 -279 q 366 -252 363 -267 q 370 -159 370 -231 l 370 1178 z "},"─":{"ha":984,"x_min":-16,"x_max":999,"o":"m 999 362 l -16 362 l -16 481 l 999 481 l 999 362 z "},"│":{"ha":984,"x_min":304,"x_max":422,"o":"m 304 -421 l 304 1264 l 422 1264 l 422 -421 l 304 -421 z "},"┌":{"ha":984,"x_min":433,"x_max":1000,"o":"m 1000 481 l 1000 362 l 551 362 l 551 -421 l 433 -421 l 433 481 l 1000 481 z "},"┐":{"ha":984,"x_min":-16,"x_max":551,"o":"m 432 362 l -16 362 l -16 481 l 551 481 l 551 -421 l 432 -421 l 432 362 z "},"└":{"ha":984,"x_min":433,"x_max":1000,"o":"m 433 362 l 433 1264 l 551 1264 l 551 481 l 1000 481 l 1000 362 l 433 362 z "},"┘":{"ha":984,"x_min":-16,"x_max":551,"o":"m 551 362 l -16 362 l -16 481 l 432 481 l 432 1264 l 551 1264 l 551 362 z "},"├":{"ha":984,"x_min":433,"x_max":1000,"o":"m 433 -421 l 433 1264 l 551 1264 l 551 481 l 1000 481 l 1000 362 l 551 362 l 551 -421 l 433 -421 z "},"┤":{"ha":984,"x_min":-16,"x_max":551,"o":"m 432 -421 l 432 362 l -16 362 l -16 481 l 432 481 l 432 1264 l 551 1264 l 551 -421 l 432 -421 z "},"┬":{"ha":984,"x_min":-16,"x_max":999,"o":"m 432 362 l -16 362 l -16 481 l 999 481 l 999 362 l 551 362 l 551 -421 l 432 -421 l 432 362 z "},"┴":{"ha":984,"x_min":-16,"x_max":999,"o":"m 999 362 l -16 362 l -16 481 l 432 481 l 432 1264 l 551 1264 l 551 481 l 999 481 l 999 362 z "},"┼":{"ha":984,"x_min":-16,"x_max":999,"o":"m 432 362 l -16 362 l -16 481 l 432 481 l 432 1264 l 551 1264 l 551 481 l 999 481 l 999 362 l 551 362 l 551 -421 l 432 -421 l 432 362 z "},"═":{"ha":984,"x_min":-16,"x_max":999,"o":"m 999 491 l -16 491 l -16 610 l 999 610 l 999 491 m 999 233 l -16 233 l -16 352 l 999 352 l 999 233 z "},"║":{"ha":984,"x_min":304,"x_max":680,"o":"m 562 -421 l 562 1264 l 680 1264 l 680 -421 l 562 -421 m 304 -421 l 304 1264 l 422 1264 l 422 -421 l 304 -421 z "},"╒":{"ha":984,"x_min":433,"x_max":1000,"o":"m 433 -421 l 433 610 l 1000 610 l 1000 491 l 551 491 l 551 352 l 1000 352 l 1000 233 l 551 233 l 551 -421 l 433 -421 z "},"╓":{"ha":984,"x_min":304,"x_max":1000,"o":"m 304 -421 l 304 481 l 1000 481 l 1000 362 l 680 362 l 680 -421 l 562 -421 l 562 352 l 422 352 l 422 -421 l 304 -421 z "},"╔":{"ha":984,"x_min":304,"x_max":999,"o":"m 422 -421 l 304 -421 l 304 610 l 999 610 l 999 491 l 422 491 l 422 -421 m 680 233 l 680 -421 l 562 -421 l 562 352 l 999 352 l 999 233 l 680 233 z "},"╕":{"ha":984,"x_min":-16,"x_max":551,"o":"m 432 233 l -16 233 l -16 352 l 432 352 l 432 491 l -16 491 l -16 610 l 551 610 l 551 -421 l 432 -421 l 432 233 z "},"╖":{"ha":984,"x_min":-16,"x_max":680,"o":"m 303 -421 l 304 362 l -16 362 l -16 481 l 680 481 l 680 -421 l 561 -421 l 561 362 l 422 362 l 422 -421 l 303 -421 z "},"╗":{"ha":984,"x_min":-16,"x_max":680,"o":"m 561 -421 l 561 491 l -16 491 l -16 610 l 680 610 l 680 -421 l 561 -421 m 303 233 l -16 233 l -16 352 l 422 352 l 422 -421 l 303 -421 l 303 233 z "},"╘":{"ha":984,"x_min":433,"x_max":1000,"o":"m 433 233 l 433 1264 l 551 1264 l 551 610 l 1000 610 l 1000 491 l 551 491 l 551 352 l 1000 352 l 1000 233 l 433 233 z "},"╙":{"ha":984,"x_min":304,"x_max":1000,"o":"m 1000 362 l 304 362 l 304 1264 l 422 1264 l 422 481 l 562 481 l 562 1264 l 680 1264 l 680 481 l 1000 481 l 1000 362 z "},"╚":{"ha":984,"x_min":304,"x_max":999,"o":"m 422 1264 l 422 352 l 999 352 l 999 233 l 304 233 l 304 1264 l 422 1264 m 680 610 l 999 610 l 999 491 l 562 491 l 562 1264 l 680 1264 l 680 610 z "},"╛":{"ha":984,"x_min":-16,"x_max":551,"o":"m 551 233 l -16 233 l -16 352 l 432 352 l 432 491 l -16 491 l -16 610 l 432 610 l 432 1264 l 551 1264 l 551 233 z "},"╜":{"ha":984,"x_min":-16,"x_max":680,"o":"m 680 362 l -16 362 l -16 481 l 303 481 l 303 1264 l 422 1264 l 422 481 l 561 481 l 561 1264 l 680 1264 l 680 362 z "},"╝":{"ha":984,"x_min":-16,"x_max":680,"o":"m 561 1264 l 680 1264 l 680 233 l -16 233 l -16 352 l 561 352 l 561 1264 m 303 610 l 303 1264 l 422 1264 l 422 491 l -16 491 l -16 610 l 303 610 z "},"╞":{"ha":984,"x_min":433,"x_max":1000,"o":"m 433 -421 l 433 1264 l 551 1264 l 551 610 l 1000 610 l 1000 491 l 551 491 l 551 352 l 1000 352 l 1000 233 l 551 233 l 551 -421 l 433 -421 z "},"╟":{"ha":984,"x_min":304,"x_max":1000,"o":"m 562 -421 l 562 1264 l 680 1264 l 680 481 l 1000 481 l 1000 362 l 680 362 l 680 -421 l 562 -421 m 304 -421 l 304 1264 l 422 1264 l 422 -421 l 304 -421 z "},"╠":{"ha":984,"x_min":304,"x_max":1000,"o":"m 304 -421 l 304 1264 l 422 1264 l 422 -421 l 304 -421 m 562 491 l 562 1264 l 680 1264 l 680 610 l 1000 610 l 1000 491 l 562 491 m 562 -421 l 562 352 l 1000 352 l 1000 233 l 680 233 l 680 -421 l 562 -421 z "},"╡":{"ha":984,"x_min":-16,"x_max":551,"o":"m 432 233 l -16 233 l -16 352 l 433 352 l 432 491 l -16 491 l -16 610 l 432 610 l 432 1264 l 551 1264 l 551 -421 l 432 -421 l 432 233 z "},"╢":{"ha":984,"x_min":-16,"x_max":680,"o":"m 303 -421 l 304 362 l -16 362 l -16 481 l 303 481 l 303 1264 l 422 1264 l 422 -421 l 303 -421 m 561 -421 l 561 1264 l 680 1264 l 680 -421 l 561 -421 z "},"╣":{"ha":984,"x_min":-16,"x_max":680,"o":"m 561 -421 l 561 1264 l 680 1264 l 680 -421 l 561 -421 m 422 1264 l 422 491 l -16 491 l -16 610 l 303 610 l 303 1264 l 422 1264 m 303 233 l -16 233 l -16 352 l 422 352 l 422 -421 l 303 -421 l 303 233 z "},"╤":{"ha":984,"x_min":-16,"x_max":999,"o":"m 999 491 l -16 491 l -16 610 l 999 610 l 999 491 m 432 233 l -16 233 l -16 352 l 999 352 l 999 233 l 551 233 l 551 -421 l 432 -421 l 432 233 z "},"╥":{"ha":984,"x_min":-16,"x_max":999,"o":"m 303 -421 l 304 362 l -16 362 l -16 481 l 999 481 l 999 362 l 680 362 l 680 -421 l 561 -421 l 561 352 l 422 352 l 422 -421 l 303 -421 z "},"╦":{"ha":984,"x_min":-16,"x_max":999,"o":"m 999 491 l -16 491 l -16 610 l 999 610 l 999 491 m 303 233 l -16 233 l -16 352 l 422 352 l 422 -421 l 303 -421 l 303 233 m 561 -421 l 561 352 l 999 352 l 999 233 l 680 233 l 680 -421 l 561 -421 z "},"╧":{"ha":984,"x_min":-16,"x_max":999,"o":"m 999 491 l -16 491 l -16 610 l 432 610 l 432 1264 l 551 1264 l 551 610 l 999 610 l 999 491 m 999 233 l -16 233 l -16 352 l 999 352 l 999 233 z "},"╨":{"ha":984,"x_min":-16,"x_max":999,"o":"m 999 362 l -16 362 l -16 481 l 303 481 l 303 1264 l 422 1264 l 422 481 l 561 481 l 561 1264 l 680 1264 l 680 481 l 999 481 l 999 362 z "},"╩":{"ha":984,"x_min":-16,"x_max":999,"o":"m 422 491 l -16 491 l -16 610 l 303 610 l 303 1264 l 422 1264 l 422 491 m 999 491 l 561 491 l 561 1264 l 680 1264 l 680 610 l 999 610 l 999 491 m 999 233 l -16 233 l -16 352 l 999 352 l 999 233 z "},"╪":{"ha":984,"x_min":-16,"x_max":999,"o":"m 432 233 l -16 233 l -16 352 l 432 352 l 432 491 l -16 491 l -16 610 l 432 610 l 432 1264 l 551 1264 l 551 610 l 999 610 l 999 491 l 551 491 l 551 352 l 999 352 l 999 233 l 551 233 l 551 -421 l 432 -421 l 432 233 z "},"╫":{"ha":984,"x_min":-16,"x_max":999,"o":"m 303 -421 l 304 362 l -16 362 l -16 481 l 303 481 l 303 1264 l 422 1264 l 422 481 l 561 481 l 561 1264 l 680 1264 l 680 481 l 999 481 l 999 362 l 680 362 l 680 -421 l 561 -421 l 561 362 l 422 362 l 422 -421 l 303 -421 z "},"╬":{"ha":984,"x_min":-16,"x_max":999,"o":"m 680 610 l 999 610 l 999 491 l 562 491 l 562 1264 l 680 1264 l 680 610 m 303 610 l 303 1264 l 422 1264 l 422 491 l -16 491 l -16 610 l 303 610 m 303 233 l -16 233 l -16 352 l 422 352 l 422 -421 l 303 -421 l 303 233 m 680 233 l 680 -421 l 562 -421 l 562 352 l 999 352 l 999 233 l 680 233 z "},"▀":{"ha":984,"x_min":-16,"x_max":999,"o":"m 999 421 l -16 421 l -16 1264 l 999 1264 l 999 421 z "},"▄":{"ha":984,"x_min":-16,"x_max":999,"o":"m 999 -421 l -16 -421 l -16 421 l 999 421 l 999 -421 z "},"█":{"ha":984,"x_min":-16,"x_max":999,"o":"m -16 -421 l -16 1264 l 999 1264 l 999 -421 l -16 -421 z "},"▌":{"ha":984,"x_min":-16,"x_max":492,"o":"m -16 -421 l -16 1264 l 492 1264 l 492 -421 l -16 -421 z "},"▐":{"ha":984,"x_min":492,"x_max":1000,"o":"m 492 -421 l 492 1264 l 1000 1264 l 1000 -421 l 492 -421 z "},"░":{"ha":984,"x_min":69,"x_max":999,"o":"m 69 1264 l 154 1264 l 154 1179 l 69 1179 l 69 1264 m 407 1264 l 492 1264 l 492 1179 l 407 1179 l 407 1264 m 745 1264 l 830 1264 l 830 1179 l 745 1179 l 745 1264 m 238 1095 l 323 1095 l 323 1010 l 238 1010 l 238 1095 m 576 1095 l 661 1095 l 661 1010 l 576 1010 l 576 1095 m 914 1095 l 999 1095 l 999 1010 l 914 1010 l 914 1095 m 745 926 l 830 926 l 830 842 l 745 842 l 745 926 m 407 926 l 492 926 l 492 842 l 407 842 l 407 926 m 69 926 l 154 926 l 154 842 l 69 842 l 69 926 m 914 757 l 999 757 l 999 673 l 914 673 l 914 757 m 576 757 l 661 757 l 661 673 l 576 673 l 576 757 m 238 757 l 323 757 l 323 673 l 238 673 l 238 757 m 69 588 l 154 588 l 154 503 l 69 503 l 69 588 m 407 588 l 492 588 l 492 503 l 407 503 l 407 588 m 745 588 l 830 588 l 830 503 l 745 503 l 745 588 m 914 419 l 999 419 l 999 334 l 914 334 l 914 419 m 576 419 l 661 419 l 661 334 l 576 334 l 576 419 m 238 419 l 323 419 l 323 334 l 238 334 l 238 419 m 69 250 l 154 250 l 154 165 l 69 165 l 69 250 m 407 250 l 492 250 l 492 165 l 407 165 l 407 250 m 745 250 l 830 250 l 830 165 l 745 165 l 745 250 m 238 81 l 323 81 l 323 -3 l 238 -3 l 238 81 m 576 81 l 661 81 l 661 -3 l 576 -3 l 576 81 m 914 81 l 999 81 l 999 -3 l 914 -3 l 914 81 m 745 -88 l 830 -88 l 830 -173 l 745 -173 l 745 -88 m 407 -88 l 492 -88 l 492 -173 l 407 -173 l 407 -88 m 69 -88 l 154 -88 l 154 -173 l 69 -173 l 69 -88 m 238 -257 l 323 -257 l 323 -342 l 238 -342 l 238 -257 m 576 -257 l 661 -257 l 661 -342 l 576 -342 l 576 -257 m 914 -257 l 999 -257 l 999 -342 l 914 -342 l 914 -257 z "},"▒":{"ha":984,"x_min":-15,"x_max":999,"o":"m 70 1264 l 154 1264 l 154 1179 l 70 1179 l 70 1264 m 239 1264 l 323 1264 l 323 1179 l 239 1179 l 239 1264 m 408 1264 l 492 1264 l 492 1179 l 408 1179 l 408 1264 m 576 1264 l 661 1264 l 661 1179 l 576 1179 l 576 1264 m 746 1264 l 830 1264 l 830 1179 l 746 1179 l 746 1264 m 915 1264 l 999 1264 l 999 1179 l 915 1179 l 915 1264 m -15 1095 l 70 1095 l 70 1010 l -15 1010 l -15 1095 m 154 1095 l 239 1095 l 239 1010 l 154 1010 l 154 1095 m 323 1095 l 408 1095 l 408 1010 l 323 1010 l 323 1095 m 492 1095 l 576 1095 l 576 1010 l 492 1010 l 492 1095 m 661 1095 l 746 1095 l 746 1010 l 661 1010 l 661 1095 m 830 1095 l 915 1095 l 915 1010 l 830 1010 l 830 1095 m 70 926 l 154 926 l 154 842 l 70 842 l 70 926 m 239 926 l 323 926 l 323 842 l 239 842 l 239 926 m 408 926 l 492 926 l 492 842 l 408 842 l 408 926 m 576 926 l 661 926 l 661 842 l 576 842 l 576 926 m 746 926 l 830 926 l 830 842 l 746 842 l 746 926 m 915 926 l 999 926 l 999 842 l 915 842 l 915 926 m 154 757 l 239 757 l 239 673 l 154 673 l 154 757 m 323 757 l 408 757 l 408 673 l 323 673 l 323 757 m 492 757 l 576 757 l 576 673 l 492 673 l 492 757 m 661 757 l 746 757 l 746 673 l 661 673 l 661 757 m 830 757 l 915 757 l 915 673 l 830 673 l 830 757 m -15 757 l 70 757 l 70 673 l -15 673 l -15 757 m 70 588 l 154 588 l 154 503 l 70 503 l 70 588 m 239 588 l 323 588 l 323 503 l 239 503 l 239 588 m 408 588 l 492 588 l 492 503 l 408 503 l 408 588 m 576 588 l 661 588 l 661 503 l 576 503 l 576 588 m 746 588 l 830 588 l 830 503 l 746 503 l 746 588 m 915 588 l 999 588 l 999 503 l 915 503 l 915 588 m -15 419 l 70 419 l 70 334 l -15 334 l -15 419 m 323 419 l 408 419 l 408 334 l 323 334 l 323 419 m 492 419 l 576 419 l 576 334 l 492 334 l 492 419 m 661 419 l 746 419 l 746 334 l 661 334 l 661 419 m 830 419 l 915 419 l 915 334 l 830 334 l 830 419 m 154 419 l 239 419 l 239 334 l 154 334 l 154 419 m 915 250 l 999 250 l 999 165 l 915 165 l 915 250 m 746 250 l 830 250 l 830 165 l 746 165 l 746 250 m 576 250 l 661 250 l 661 165 l 576 165 l 576 250 m 408 250 l 492 250 l 492 165 l 408 165 l 408 250 m 239 250 l 323 250 l 323 165 l 239 165 l 239 250 m 70 250 l 154 250 l 154 165 l 70 165 l 70 250 m -15 81 l 70 81 l 70 -3 l -15 -3 l -15 81 m 154 81 l 239 81 l 239 -3 l 154 -3 l 154 81 m 323 81 l 408 81 l 408 -3 l 323 -3 l 323 81 m 492 81 l 576 81 l 576 -3 l 492 -3 l 492 81 m 661 81 l 746 81 l 746 -3 l 661 -3 l 661 81 m 830 81 l 915 81 l 915 -3 l 830 -3 l 830 81 m 915 -88 l 999 -88 l 999 -173 l 915 -173 l 915 -88 m 746 -88 l 830 -88 l 830 -173 l 746 -173 l 746 -88 m 576 -88 l 661 -88 l 661 -173 l 576 -173 l 576 -88 m 408 -88 l 492 -88 l 492 -173 l 408 -173 l 408 -88 m 239 -88 l 323 -88 l 323 -173 l 239 -173 l 239 -88 m 70 -88 l 154 -88 l 154 -173 l 70 -173 l 70 -88 m -15 -257 l 70 -257 l 70 -342 l -15 -342 l -15 -257 m 154 -257 l 239 -257 l 239 -342 l 154 -342 l 154 -257 m 323 -257 l 408 -257 l 408 -342 l 323 -342 l 323 -257 m 492 -257 l 576 -257 l 576 -342 l 492 -342 l 492 -257 m 661 -257 l 746 -257 l 746 -342 l 661 -342 l 661 -257 m 830 -257 l 915 -257 l 915 -342 l 830 -342 l 830 -257 z "},"▓":{"ha":1013,"x_min":-1,"x_max":1013,"o":"m 1013 1010 l 1013 757 l 929 757 l 929 673 l 1013 673 l 1013 419 l 929 419 l 929 334 l 1013 334 l 1013 81 l 929 81 l 929 -3 l 1013 -3 l 1013 -257 l 929 -257 l 929 -342 l 1013 -342 l 1013 -426 l -1 -426 l -1 -173 l 84 -173 l 84 -88 l -1 -88 l -1 165 l 84 165 l 84 250 l -1 250 l -1 503 l 84 503 l 84 588 l -1 588 l -1 842 l 84 842 l 84 926 l -1 926 l -1 1179 l 84 1179 l 84 1264 l 168 1264 l 168 1179 l 253 1179 l 253 1264 l 337 1264 l 337 1179 l 422 1179 l 422 1264 l 507 1264 l 507 1179 l 591 1179 l 591 1264 l 675 1264 l 675 1179 l 760 1179 l 760 1264 l 844 1264 l 844 1179 l 929 1179 l 929 1264 l 1013 1264 l 1013 1095 l 929 1095 l 929 1010 l 1013 1010 m 84 1095 l 84 1010 l 168 1010 l 168 1095 l 84 1095 m 253 1095 l 253 1010 l 337 1010 l 337 1095 l 253 1095 m 422 1095 l 422 1010 l 507 1010 l 507 1095 l 422 1095 m 591 1095 l 591 1010 l 675 1010 l 675 1095 l 591 1095 m 760 1095 l 760 1010 l 844 1010 l 844 1095 l 760 1095 m 929 926 l 844 926 l 844 842 l 929 842 l 929 926 m 760 926 l 675 926 l 675 842 l 760 842 l 760 926 m 591 926 l 507 926 l 507 842 l 591 842 l 591 926 m 422 926 l 337 926 l 337 842 l 422 842 l 422 926 m 253 926 l 168 926 l 168 842 l 253 842 l 253 926 m 84 757 l 84 673 l 168 673 l 168 757 l 84 757 m 253 757 l 253 673 l 337 673 l 337 757 l 253 757 m 422 757 l 422 673 l 507 673 l 507 757 l 422 757 m 591 757 l 591 673 l 675 673 l 675 757 l 591 757 m 760 757 l 760 673 l 844 673 l 844 757 l 760 757 m 253 588 l 168 588 l 168 503 l 253 503 l 253 588 m 337 588 l 337 503 l 422 503 l 422 588 l 337 588 m 507 588 l 507 503 l 591 503 l 591 588 l 507 588 m 675 588 l 675 503 l 760 503 l 760 588 l 675 588 m 844 588 l 844 503 l 929 503 l 929 588 l 844 588 m 84 419 l 84 334 l 168 334 l 168 419 l 84 419 m 422 419 l 422 334 l 507 334 l 507 419 l 422 419 m 337 334 l 337 419 l 253 419 l 253 334 l 337 334 m 591 419 l 591 334 l 675 334 l 675 419 l 591 419 m 760 419 l 760 334 l 844 334 l 844 419 l 760 419 m 929 165 l 929 250 l 844 250 l 844 165 l 929 165 m 760 165 l 760 250 l 675 250 l 675 165 l 760 165 m 591 165 l 591 250 l 507 250 l 507 165 l 591 165 m 422 165 l 422 250 l 337 250 l 337 165 l 422 165 m 253 165 l 253 250 l 168 250 l 168 165 l 253 165 m 84 81 l 84 -3 l 168 -3 l 168 81 l 84 81 m 253 81 l 253 -3 l 337 -3 l 337 81 l 253 81 m 422 81 l 422 -3 l 507 -3 l 507 81 l 422 81 m 591 81 l 591 -3 l 675 -3 l 675 81 l 591 81 m 760 81 l 760 -3 l 844 -3 l 844 81 l 760 81 m 929 -173 l 929 -88 l 844 -88 l 844 -173 l 929 -173 m 760 -173 l 760 -88 l 675 -88 l 675 -173 l 760 -173 m 591 -173 l 591 -88 l 507 -88 l 507 -173 l 591 -173 m 422 -173 l 422 -88 l 337 -88 l 337 -173 l 422 -173 m 253 -173 l 253 -88 l 168 -88 l 168 -173 l 253 -173 m 84 -257 l 84 -342 l 168 -342 l 168 -257 l 84 -257 m 253 -257 l 253 -342 l 337 -342 l 337 -257 l 253 -257 m 422 -257 l 422 -342 l 507 -342 l 507 -257 l 422 -257 m 591 -257 l 591 -342 l 675 -342 l 675 -257 l 591 -257 m 760 -257 l 760 -342 l 844 -342 l 844 -257 l 760 -257 z "},"■":{"ha":839,"x_min":99,"x_max":739,"o":"m 99 640 l 739 640 l 739 0 l 99 0 l 99 640 z "},"▬":{"ha":1389,"x_min":0,"x_max":1388,"o":"m 0 477 l 1388 477 l 1388 215 l 0 215 l 0 477 z "},"▲":{"ha":1375,"x_min":206,"x_max":1169,"o":"m 206 0 l 688 962 l 1169 0 l 206 0 z "},"►":{"ha":1375,"x_min":195,"x_max":1179,"o":"m 195 961 l 1179 470 l 195 -21 l 195 961 z "},"▼":{"ha":1375,"x_min":206,"x_max":1169,"o":"m 1169 941 l 688 -21 l 206 941 l 1169 941 z "},"◄":{"ha":1375,"x_min":195,"x_max":1179,"o":"m 1179 961 l 1179 -21 l 195 470 l 1179 961 z "},"○":{"ha":839,"x_min":121,"x_max":718,"o":"m 420 690 q 566 652 494 690 q 678 541 638 613 q 718 392 718 469 q 631 180 718 268 q 420 93 543 93 q 208 180 296 93 q 121 392 121 268 q 161 542 121 470 q 273 652 201 613 q 420 690 345 690 m 420 639 q 298 607 357 639 q 205 515 239 575 q 172 392 172 456 q 245 217 172 290 q 420 144 317 144 q 594 217 522 144 q 667 392 667 290 q 633 515 667 456 q 541 607 600 575 q 420 639 482 639 z "},"◘":{"ha":839,"x_min":87,"x_max":751,"o":"m 87 0 l 87 665 l 751 665 l 751 0 l 87 0 m 419 469 q 322 429 362 469 q 282 332 282 389 q 322 236 282 276 q 419 195 363 195 q 516 236 476 195 q 556 332 556 276 q 516 429 556 389 q 419 469 476 469 z "},"◙":{"ha":839,"x_min":28,"x_max":812,"o":"m 28 0 l 28 783 l 812 783 l 812 0 l 28 0 m 420 690 q 273 652 345 690 q 161 541 201 613 q 121 391 121 469 q 209 180 121 268 q 420 93 296 93 q 631 180 544 93 q 719 391 719 268 q 679 541 719 469 q 567 652 639 613 q 420 690 496 690 m 420 639 q 542 607 482 639 q 634 516 601 575 q 667 391 667 456 q 595 217 667 289 q 420 144 523 144 q 245 217 317 144 q 173 391 173 289 q 206 516 173 456 q 299 607 239 575 q 420 639 358 639 z "},"☺":{"ha":1418,"x_min":277,"x_max":1142,"o":"m 709 784 q 922 728 818 784 q 1084 568 1025 672 q 1142 351 1142 464 q 1085 137 1142 239 q 924 -23 1027 34 q 709 -81 821 -81 q 494 -23 597 -81 q 334 137 391 34 q 277 351 277 239 q 335 568 277 464 q 496 728 393 672 q 709 784 600 784 m 709 721 q 528 673 616 721 q 390 536 439 625 q 340 351 340 448 q 389 168 340 256 q 526 31 437 80 q 709 -18 614 -18 q 893 31 805 -18 q 1030 168 981 80 q 1079 351 1079 256 q 1029 536 1079 448 q 891 673 979 625 q 709 721 802 721 m 543 496 q 582 480 566 496 q 598 441 598 464 q 582 402 598 418 q 543 386 566 386 q 505 402 521 386 q 488 441 488 418 q 505 480 488 464 q 543 496 521 496 m 875 496 q 914 480 898 496 q 930 441 930 464 q 914 402 930 418 q 875 386 898 386 q 836 402 852 386 q 820 441 820 418 q 836 480 820 464 q 875 496 852 496 m 510 212 l 552 237 q 709 139 606 139 q 866 237 813 139 l 909 212 q 825 114 875 148 q 709 80 775 80 q 593 114 643 80 q 510 212 544 148 z "},"☻":{"ha":1461,"x_min":298,"x_max":1164,"o":"m 731 784 q 943 728 840 784 q 1105 568 1047 672 q 1164 351 1164 464 q 1106 137 1164 239 q 946 -23 1049 34 q 731 -81 843 -81 q 516 -23 618 -81 q 356 137 413 34 q 298 351 298 239 q 356 568 298 464 q 518 728 414 672 q 731 784 622 784 m 565 496 q 526 480 543 496 q 510 441 510 464 q 526 402 510 418 q 565 386 543 386 q 604 402 588 386 q 620 441 620 418 q 604 480 620 464 q 565 496 588 496 m 897 496 q 858 480 873 496 q 842 441 842 464 q 858 402 842 418 q 897 386 874 386 q 936 402 920 386 q 951 441 951 418 q 936 480 951 464 q 897 496 920 496 m 532 212 q 615 114 566 148 q 731 80 665 80 q 847 114 797 80 q 930 212 897 148 l 888 237 q 731 139 835 139 q 574 237 627 139 l 532 212 z "},"☼":{"ha":1273,"x_min":11,"x_max":1263,"o":"m 612 1099 l 663 1099 l 663 871 q 786 845 732 866 q 900 775 840 823 l 1097 968 l 1132 932 l 938 738 q 1008 623 987 673 q 1035 495 1034 558 l 1263 495 l 1263 448 l 1036 448 q 939 213 1023 320 l 1132 16 l 1093 -18 l 901 173 q 785 105 835 124 q 663 77 736 85 l 663 -151 l 612 -151 l 612 77 q 484 109 536 87 q 378 171 432 130 l 178 -18 l 144 17 l 337 211 q 269 323 292 268 q 239 451 246 379 l 11 451 l 11 498 l 239 498 q 267 624 245 570 q 336 734 290 677 l 144 929 l 176 968 l 374 777 q 496 845 443 824 q 612 871 549 865 l 612 1099 m 635 821 q 465 777 548 821 q 335 648 381 732 q 288 474 288 564 q 334 301 288 384 q 463 172 380 218 q 635 126 545 126 q 808 172 726 126 q 937 301 891 218 q 983 474 983 384 q 937 648 983 564 q 806 777 890 732 q 635 821 723 821 z "},"♀":{"ha":1042,"x_min":165,"x_max":876,"o":"m 540 313 l 540 40 l 851 40 l 851 0 l 540 0 l 540 -298 l 500 -298 l 500 0 l 188 0 l 188 40 l 500 40 l 500 313 q 347 357 430 313 q 215 487 264 401 q 165 667 165 572 q 213 844 165 759 q 344 975 260 928 q 521 1022 428 1022 q 697 975 613 1022 q 829 843 782 928 q 876 667 876 759 q 778 422 876 525 q 540 313 681 319 m 520 984 q 364 943 440 984 q 245 825 288 902 q 202 666 202 749 q 295 440 202 534 q 520 347 389 347 q 746 440 652 347 q 839 666 839 534 q 796 825 839 749 q 677 943 753 902 q 520 984 601 984 z "},"♂":{"ha":1042,"x_min":75,"x_max":960,"o":"m 825 1099 l 849 1088 l 960 636 l 921 626 l 825 1020 l 582 499 q 734 362 682 448 q 785 178 785 276 q 739 1 785 85 q 607 -131 692 -83 q 430 -178 523 -178 q 253 -131 338 -178 q 122 1 169 -83 q 75 178 75 85 q 179 429 75 325 q 432 532 283 532 q 545 514 485 532 l 789 1037 l 425 857 l 408 893 l 825 1099 m 430 496 q 274 455 350 496 q 155 337 197 414 q 112 178 112 260 q 205 -48 112 45 q 430 -141 298 -141 q 655 -48 562 -141 q 749 178 749 45 q 706 337 749 260 q 587 455 663 414 q 430 496 511 496 z "},"♠":{"ha":738,"x_min":39,"x_max":699,"o":"m 370 835 q 424 704 387 762 q 554 561 460 646 q 673 430 648 476 q 699 338 699 385 q 655 230 699 273 q 551 186 612 186 q 446 225 495 186 q 378 315 410 254 q 404 157 378 216 q 485 65 429 98 q 633 25 541 31 l 638 0 l 101 0 l 106 25 q 299 98 231 25 q 366 315 368 171 q 290 219 335 251 q 189 186 245 186 q 83 231 127 186 q 39 335 39 275 q 61 425 39 385 q 160 538 92 481 q 262 631 229 594 q 335 731 312 687 q 370 835 357 775 z "},"♣":{"ha":911,"x_min":37,"x_max":873,"o":"m 745 0 l 170 0 l 175 23 q 323 70 287 47 q 413 172 378 104 q 448 315 448 240 q 448 347 448 326 q 347 224 406 262 q 226 185 288 185 q 92 240 147 185 q 37 375 37 295 q 87 508 37 454 q 201 562 138 562 q 312 527 242 562 q 275 598 283 574 q 267 650 267 623 q 320 782 267 728 q 454 835 374 835 q 588 782 534 835 q 643 653 643 728 q 596 527 643 593 q 665 557 653 554 q 706 563 683 563 q 824 510 774 563 q 873 378 873 456 q 819 241 873 296 q 688 186 764 186 q 601 207 646 186 q 522 262 555 227 q 463 347 498 287 q 495 176 465 239 q 588 72 526 113 q 739 23 630 44 l 745 0 z "},"♥":{"ha":825,"x_min":43,"x_max":782,"o":"m 414 -16 q 354 134 393 64 q 203 352 315 204 q 102 490 121 460 q 57 577 71 537 q 43 657 43 616 q 93 783 43 732 q 218 834 143 834 q 347 781 292 834 q 414 664 388 742 q 476 780 435 740 q 606 835 532 835 q 731 785 680 835 q 782 665 782 734 q 752 538 782 604 q 637 363 723 472 q 475 133 526 223 q 414 -16 435 62 z "},"♦":{"ha":709,"x_min":43,"x_max":666,"o":"m 353 835 q 502 615 414 732 q 666 410 604 479 q 502 205 616 357 q 354 -16 410 81 q 304 66 336 19 q 168 255 249 147 q 43 410 150 279 q 220 632 112 488 q 353 835 300 739 z "},"♪":{"ha":694,"x_min":25,"x_max":669,"o":"m 330 924 l 355 924 q 509 915 472 924 q 604 863 563 901 q 652 782 634 834 q 669 661 669 730 l 669 591 l 602 591 l 602 621 q 583 699 602 667 q 526 748 564 731 q 416 770 476 770 l 397 770 l 397 203 q 375 76 397 121 q 300 2 353 30 q 185 -25 248 -25 q 68 17 111 -25 q 25 126 25 58 q 77 246 25 197 q 212 294 128 294 q 330 263 264 294 l 330 924 z "},"♫":{"ha":1042,"x_min":58,"x_max":902,"o":"m 362 862 l 902 1030 l 902 279 q 881 152 902 195 q 808 81 859 109 q 692 54 757 54 q 574 96 618 54 q 530 205 530 138 q 583 322 530 273 q 718 372 635 372 q 765 367 745 372 q 833 342 786 362 l 833 833 l 429 708 l 429 141 q 408 13 429 59 q 333 -60 386 -33 q 218 -87 280 -87 q 101 -45 144 -87 q 58 64 58 -3 q 109 183 58 135 q 244 232 161 232 q 362 201 297 232 l 362 862 z "},"Ĳ":{"ha":1143,"x_min":28,"x_max":1137,"o":"m 509 25 l 509 0 l 28 0 l 28 25 l 58 25 q 123 39 98 25 q 150 72 140 49 q 157 157 157 88 l 157 762 q 150 850 157 833 q 120 881 142 868 q 58 895 97 895 l 28 895 l 28 920 l 509 920 l 509 895 l 478 895 q 414 880 438 895 q 386 848 396 871 q 378 762 378 831 l 378 157 q 386 69 378 87 q 417 38 394 52 q 478 25 439 25 l 509 25 m 648 895 l 648 920 l 1137 920 l 1137 895 l 1107 895 q 1042 880 1067 895 q 1015 848 1025 871 q 1008 762 1008 831 l 1008 312 q 981 120 1008 180 q 887 19 955 60 q 725 -21 820 -21 q 537 40 609 -21 q 466 175 466 101 q 495 252 466 222 q 566 281 524 281 q 636 255 608 281 q 664 190 664 229 q 659 157 664 171 q 638 122 656 150 q 619 83 619 95 q 637 53 619 66 q 704 34 663 34 q 752 49 733 34 q 779 95 771 64 q 787 271 787 127 l 787 762 q 779 850 787 833 q 748 881 771 868 q 687 895 726 895 l 648 895 z "},"ĳ":{"ha":767,"x_min":28,"x_max":667,"o":"m 199 941 q 274 910 243 941 q 304 836 304 880 q 274 762 304 793 q 199 732 243 732 q 125 762 156 732 q 95 836 95 793 q 125 910 95 880 q 199 941 156 941 m 294 634 l 294 132 q 310 46 294 64 q 371 24 326 27 l 371 0 l 28 0 l 28 24 q 91 49 71 26 q 104 132 104 64 l 104 502 q 89 588 104 569 q 28 609 73 606 l 28 634 l 294 634 m 564 941 q 637 910 607 941 q 667 838 667 880 q 637 764 667 794 q 564 733 606 733 q 490 764 521 733 q 460 838 460 794 q 490 910 460 880 q 564 941 520 941 m 659 634 l 659 -22 q 647 -159 659 -115 q 579 -261 630 -222 q 446 -300 529 -300 q 323 -266 363 -300 q 283 -184 283 -232 q 304 -132 283 -154 q 353 -110 325 -110 q 393 -125 378 -110 q 408 -171 408 -140 q 408 -190 408 -179 q 406 -210 406 -204 q 417 -245 406 -233 q 445 -256 428 -256 q 472 -243 460 -256 q 483 -204 483 -229 q 479 -149 483 -191 q 471 -58 472 -74 l 469 102 l 469 494 l 470 530 q 455 588 470 572 q 394 609 441 604 l 394 634 l 659 634 z "},"ŉ":{"ha":1013,"x_min":103,"x_max":1099,"o":"m 127 489 l 127 519 q 242 607 206 553 q 277 718 277 661 q 273 734 277 728 q 263 740 268 740 q 251 735 259 740 q 202 724 231 724 q 133 755 162 724 q 103 828 103 786 q 137 907 103 873 q 219 941 171 941 q 319 896 277 941 q 360 772 360 850 q 301 600 360 675 q 127 489 243 524 m 673 634 l 673 552 q 766 629 722 605 q 863 653 811 653 q 965 619 924 653 q 1019 534 1006 585 q 1030 385 1030 495 l 1030 138 q 1043 47 1030 65 q 1099 24 1057 29 l 1099 0 l 778 0 l 778 24 q 829 54 814 29 q 840 138 840 71 l 840 420 q 834 519 840 498 q 813 550 828 539 q 781 562 799 562 q 673 478 723 562 l 673 138 q 686 48 673 67 q 735 24 699 29 l 735 0 l 414 0 l 414 24 q 471 50 454 28 q 483 138 483 65 l 483 496 q 470 586 483 568 q 414 609 456 604 l 414 634 l 673 634 z "},"′":{"ha":391,"x_min":134,"x_max":355,"o":"m 167 490 l 134 490 l 138 749 q 180 893 138 846 q 281 941 222 941 q 334 921 313 941 q 355 871 355 901 q 309 749 355 833 l 167 490 z "},"″":{"ha":767,"x_min":134,"x_max":682,"o":"m 167 490 l 134 490 l 138 749 q 180 893 138 846 q 281 941 222 941 q 334 921 313 941 q 355 871 355 901 q 309 749 355 833 l 167 490 m 494 490 l 461 490 l 465 749 q 507 893 465 846 q 608 941 549 941 q 661 921 640 941 q 682 871 682 901 q 635 749 682 833 l 494 490 z "},"℅":{"ha":1157,"x_min":37,"x_max":1122,"o":"m 935 941 l 281 -39 l 191 -39 l 843 941 l 935 941 m 413 581 l 429 570 q 347 477 396 507 q 242 448 298 448 q 97 513 157 448 q 37 686 37 578 q 101 870 37 800 q 257 941 165 941 q 372 904 330 941 q 414 823 414 868 q 397 778 414 795 q 353 761 380 761 q 304 780 323 761 q 280 850 285 800 q 265 894 277 882 q 239 906 254 906 q 197 881 214 906 q 172 763 172 842 q 226 574 172 646 q 315 526 260 526 q 361 538 339 526 q 413 581 382 549 m 902 479 q 1059 413 996 479 q 1122 233 1122 346 q 1060 53 1122 119 q 904 -14 998 -14 q 747 53 810 -14 q 685 231 685 120 q 748 411 685 342 q 902 479 810 479 m 905 444 q 847 404 863 444 q 831 192 831 363 q 852 52 831 83 q 902 20 873 20 q 960 61 943 20 q 976 271 976 102 q 953 418 976 383 q 905 444 936 444 z "},"ℓ":{"ha":521,"x_min":18,"x_max":498,"o":"m 18 225 l 109 323 l 109 652 q 172 879 110 818 q 308 941 234 941 q 419 899 376 941 q 461 793 461 858 q 427 654 461 727 q 293 467 402 600 l 293 214 q 313 98 293 126 q 364 71 334 71 q 422 98 394 71 q 464 194 450 125 l 498 194 q 419 31 475 81 q 289 -19 364 -19 q 160 36 212 -19 q 109 195 109 91 l 109 273 l 42 202 l 18 225 m 293 516 q 421 782 421 665 q 405 852 421 831 q 367 873 389 873 q 318 842 337 873 q 293 676 293 802 l 293 516 z "},"□":{"ha":839,"x_min":99,"x_max":739,"o":"m 99 640 l 739 640 l 739 0 l 99 0 l 99 640 m 151 589 l 151 52 l 688 52 l 688 589 l 151 589 z "},"▪":{"ha":492,"x_min":62,"x_max":431,"o":"m 431 643 l 431 275 l 62 275 l 62 643 l 431 643 z "},"▫":{"ha":492,"x_min":62,"x_max":431,"o":"m 431 643 l 431 275 l 62 275 l 62 643 l 431 643 m 379 591 l 114 591 l 114 326 l 379 326 l 379 591 z "},"●":{"ha":839,"x_min":121,"x_max":718,"o":"m 420 690 q 566 652 494 690 q 678 541 638 613 q 718 392 718 469 q 631 180 718 268 q 420 93 543 93 q 208 180 296 93 q 121 392 121 268 q 161 542 121 470 q 273 652 201 613 q 420 690 345 690 z "},"◦":{"ha":492,"x_min":52,"x_max":439,"o":"m 246 652 q 383 596 327 652 q 439 458 439 539 q 383 321 439 378 q 246 264 326 264 q 109 321 165 264 q 52 458 52 378 q 109 596 52 539 q 246 652 165 652 m 246 601 q 145 559 186 601 q 104 458 104 517 q 145 358 104 399 q 246 316 187 316 q 347 358 305 316 q 389 458 389 399 q 347 559 389 517 q 246 601 305 601 z "},"Ā":{"ha":1003,"x_min":11,"x_max":987,"o":"m 578 262 l 253 262 l 214 172 q 195 98 195 127 q 227 41 195 60 q 317 25 245 31 l 317 0 l 11 0 l 11 25 q 92 66 60 33 q 171 205 124 100 l 500 939 l 513 939 l 844 184 q 922 50 892 77 q 987 25 945 28 l 987 0 l 543 0 l 543 25 l 561 25 q 636 40 614 25 q 651 71 651 51 q 647 96 651 83 q 627 147 646 102 l 578 262 m 555 312 l 418 629 l 277 312 l 555 312 m 283 1133 l 719 1133 l 719 1023 l 283 1023 l 283 1133 z "},"ā":{"ha":694,"x_min":62,"x_max":671,"o":"m 397 94 q 189 -9 281 -9 q 98 27 134 -9 q 62 116 62 62 q 125 247 62 189 q 397 401 187 304 l 397 465 q 389 555 397 536 q 359 588 381 574 q 311 602 338 602 q 238 582 267 602 q 220 553 220 570 q 239 518 220 539 q 265 462 265 489 q 240 405 265 429 q 176 382 216 382 q 104 408 133 382 q 75 468 75 433 q 114 561 75 517 q 222 629 153 606 q 366 653 291 653 q 508 615 456 653 q 576 532 561 576 q 586 401 586 503 l 586 155 q 589 100 586 111 q 600 83 593 89 q 615 78 606 78 q 651 103 633 78 l 671 87 q 601 14 637 37 q 519 -9 565 -9 q 434 17 465 -9 q 397 94 404 42 m 397 143 l 397 355 q 275 252 315 307 q 248 178 248 216 q 271 123 248 147 q 318 105 288 105 q 397 143 352 105 m 125 850 l 561 850 l 561 740 l 125 740 l 125 850 z "},"Ĉ":{"ha":1003,"x_min":55,"x_max":927,"o":"m 927 941 l 927 622 l 901 622 q 789 813 871 747 q 605 880 708 880 q 447 830 519 880 q 342 701 375 781 q 299 473 299 598 q 330 248 299 349 q 428 95 361 146 q 600 43 494 43 q 759 81 687 43 q 911 212 831 119 l 911 132 q 750 15 834 52 q 555 -21 667 -21 q 293 38 408 -21 q 117 208 179 97 q 55 443 55 318 q 124 692 55 574 q 310 876 193 810 q 558 941 427 941 q 763 899 655 941 q 842 874 825 874 q 880 890 864 874 q 901 941 896 906 l 927 941 m 613 1266 l 751 1007 l 699 1007 l 537 1147 l 371 1011 l 315 1011 l 460 1266 l 613 1266 z "},"ĉ":{"ha":616,"x_min":53,"x_max":585,"o":"m 564 163 l 585 147 q 474 22 541 63 q 332 -19 407 -19 q 129 77 205 -19 q 53 307 53 172 q 122 534 53 436 q 352 653 205 653 q 508 604 450 653 q 566 493 566 554 q 543 431 566 454 q 481 408 519 408 q 415 435 441 408 q 383 529 389 461 q 363 589 379 572 q 327 606 348 606 q 271 571 294 606 q 236 411 236 519 q 264 240 236 321 q 342 118 293 158 q 431 89 380 89 q 494 104 464 89 q 564 163 524 120 m 398 968 l 536 709 l 484 709 l 322 848 l 156 713 l 100 713 l 245 968 l 398 968 z "},"Ċ":{"ha":1003,"x_min":55,"x_max":927,"o":"m 927 941 l 927 622 l 901 622 q 789 813 871 747 q 605 880 708 880 q 447 830 519 880 q 342 701 375 781 q 299 473 299 598 q 330 248 299 349 q 428 95 361 146 q 600 43 494 43 q 759 81 687 43 q 911 212 831 119 l 911 132 q 750 15 834 52 q 555 -21 667 -21 q 293 38 408 -21 q 117 208 179 97 q 55 443 55 318 q 124 692 55 574 q 310 876 193 810 q 558 941 427 941 q 763 899 655 941 q 842 874 825 874 q 880 890 864 874 q 901 941 896 906 l 927 941 m 527 1210 q 597 1181 568 1210 q 627 1110 627 1152 q 597 1040 627 1069 q 527 1010 568 1010 q 456 1040 486 1010 q 427 1110 427 1069 q 456 1181 427 1152 q 527 1210 486 1210 z "},"ċ":{"ha":616,"x_min":53,"x_max":585,"o":"m 564 163 l 585 147 q 474 22 541 63 q 332 -19 407 -19 q 129 77 205 -19 q 53 307 53 172 q 122 534 53 436 q 352 653 205 653 q 508 604 450 653 q 566 493 566 554 q 543 431 566 454 q 481 408 519 408 q 415 435 441 408 q 383 529 389 461 q 363 589 379 572 q 327 606 348 606 q 271 571 294 606 q 236 411 236 519 q 264 240 236 321 q 342 118 293 158 q 431 89 380 89 q 494 104 464 89 q 564 163 524 120 m 328 928 q 398 899 369 928 q 427 828 427 869 q 398 758 427 787 q 328 728 369 728 q 257 758 286 728 q 228 828 228 787 q 257 899 228 869 q 328 928 286 928 z "},"Ē":{"ha":926,"x_min":28,"x_max":864,"o":"m 378 867 l 378 492 l 397 492 q 524 547 484 492 q 574 709 563 602 l 600 709 l 600 228 l 574 228 q 539 357 566 307 q 479 424 513 407 q 378 441 444 441 l 378 182 q 385 90 378 106 q 409 62 391 73 q 466 51 427 51 l 521 51 q 727 111 650 51 q 839 292 805 170 l 864 292 l 823 0 l 28 0 l 28 25 l 58 25 q 123 39 98 25 q 150 72 140 49 q 157 157 157 88 l 157 762 q 154 839 157 825 q 129 876 147 863 q 58 895 103 895 l 28 895 l 28 920 l 798 920 l 798 648 l 772 648 q 716 791 752 747 q 616 854 681 834 q 473 867 578 867 l 378 867 m 245 1133 l 681 1133 l 681 1023 l 245 1023 l 245 1133 z "},"ē":{"ha":616,"x_min":54,"x_max":584,"o":"m 584 340 l 236 340 q 303 140 242 214 q 416 84 350 84 q 490 107 456 84 q 561 189 523 130 l 584 174 q 470 25 532 68 q 326 -19 408 -19 q 112 90 184 -19 q 54 307 54 177 q 139 559 54 465 q 340 653 225 653 q 508 574 437 653 q 584 340 578 495 m 417 385 q 405 535 417 494 q 368 597 393 576 q 330 609 354 609 q 273 574 295 609 q 233 409 233 514 l 233 385 l 417 385 m 90 850 l 526 850 l 526 740 l 90 740 l 90 850 z "},"Ĕ":{"ha":926,"x_min":28,"x_max":864,"o":"m 378 867 l 378 492 l 397 492 q 524 547 484 492 q 574 709 563 602 l 600 709 l 600 228 l 574 228 q 539 357 566 307 q 479 424 513 407 q 378 441 444 441 l 378 182 q 385 90 378 106 q 409 62 391 73 q 466 51 427 51 l 521 51 q 727 111 650 51 q 839 292 805 170 l 864 292 l 823 0 l 28 0 l 28 25 l 58 25 q 123 39 98 25 q 150 72 140 49 q 157 157 157 88 l 157 762 q 154 839 157 825 q 129 876 147 863 q 58 895 103 895 l 28 895 l 28 920 l 798 920 l 798 648 l 772 648 q 716 791 752 747 q 616 854 681 834 q 473 867 578 867 l 378 867 m 625 1227 l 669 1227 q 604 1071 664 1131 q 465 1010 543 1010 q 326 1071 387 1010 q 258 1227 264 1131 l 303 1227 q 356 1163 320 1185 q 459 1141 393 1141 q 570 1162 534 1141 q 625 1227 606 1183 z "},"ĕ":{"ha":616,"x_min":54,"x_max":584,"o":"m 584 340 l 236 340 q 303 140 242 214 q 416 84 350 84 q 490 107 456 84 q 561 189 523 130 l 584 174 q 470 25 532 68 q 326 -19 408 -19 q 112 90 184 -19 q 54 307 54 177 q 139 559 54 465 q 340 653 225 653 q 508 574 437 653 q 584 340 578 495 m 417 385 q 405 535 417 494 q 368 597 393 576 q 330 609 354 609 q 273 574 295 609 q 233 409 233 514 l 233 385 l 417 385 m 477 941 l 521 941 q 456 784 516 844 q 317 724 395 724 q 178 784 239 724 q 111 941 117 844 l 155 941 q 209 876 172 898 q 311 854 245 854 q 422 876 387 854 q 477 941 458 897 z "},"Ė":{"ha":926,"x_min":28,"x_max":864,"o":"m 378 867 l 378 492 l 397 492 q 524 547 484 492 q 574 709 563 602 l 600 709 l 600 228 l 574 228 q 539 357 566 307 q 479 424 513 407 q 378 441 444 441 l 378 182 q 385 90 378 106 q 409 62 391 73 q 466 51 427 51 l 521 51 q 727 111 650 51 q 839 292 805 170 l 864 292 l 823 0 l 28 0 l 28 25 l 58 25 q 123 39 98 25 q 150 72 140 49 q 157 157 157 88 l 157 762 q 154 839 157 825 q 129 876 147 863 q 58 895 103 895 l 28 895 l 28 920 l 798 920 l 798 648 l 772 648 q 716 791 752 747 q 616 854 681 834 q 473 867 578 867 l 378 867 m 464 1210 q 534 1181 505 1210 q 564 1110 564 1152 q 534 1040 564 1069 q 464 1010 505 1010 q 393 1040 422 1010 q 364 1110 364 1069 q 393 1181 364 1152 q 464 1210 422 1210 z "},"ė":{"ha":616,"x_min":54,"x_max":584,"o":"m 584 340 l 236 340 q 303 140 242 214 q 416 84 350 84 q 490 107 456 84 q 561 189 523 130 l 584 174 q 470 25 532 68 q 326 -19 408 -19 q 112 90 184 -19 q 54 307 54 177 q 139 559 54 465 q 340 653 225 653 q 508 574 437 653 q 584 340 578 495 m 417 385 q 405 535 417 494 q 368 597 393 576 q 330 609 354 609 q 273 574 295 609 q 233 409 233 514 l 233 385 l 417 385 m 321 928 q 392 899 363 928 q 421 828 421 869 q 392 758 421 787 q 321 728 363 728 q 251 758 280 728 q 222 828 222 787 q 251 899 222 869 q 321 928 280 928 z "},"Ĝ":{"ha":1080,"x_min":56,"x_max":1066,"o":"m 958 941 l 958 616 l 933 616 q 797 819 888 749 q 598 888 706 888 q 427 830 495 888 q 330 668 358 772 q 301 455 301 564 q 332 223 301 323 q 433 77 363 123 q 598 30 503 30 q 666 37 631 30 q 738 58 701 44 l 738 249 q 730 319 738 303 q 700 348 723 335 q 643 361 676 361 l 619 361 l 619 386 l 1066 386 l 1066 361 q 995 347 1015 357 q 964 312 975 336 q 958 249 958 299 l 958 58 q 775 -2 870 18 q 577 -22 680 -22 q 360 14 446 -22 q 207 107 273 50 q 104 238 141 165 q 56 448 56 332 q 202 798 56 655 q 569 941 348 941 q 692 930 637 941 q 789 900 722 925 q 868 874 856 874 q 903 888 887 874 q 933 941 920 902 l 958 941 m 649 1251 l 787 991 l 734 991 l 573 1131 l 407 996 l 351 996 l 496 1251 l 649 1251 z "}}}
